<svg width="112" height="80" viewBox="0 0 112 80" fill="none" xmlns="http://www.w3.org/2000/svg">
<rect width="112" height="80" rx="6.4" fill="white"/>
<g clip-path="url(#clip0_554_2140)">
<path d="M58.162 33.473C58.162 34.3727 57.4372 35.0975 56.5375 35.0975C55.6377 35.0975 54.913 34.3727 54.913 33.473C54.913 32.5733 55.6128 31.8485 56.5375 31.8485C57.4622 31.8735 58.162 32.5983 58.162 33.473ZM51.464 36.747C51.464 36.897 51.464 37.1469 51.464 37.1469C51.464 37.1469 50.6893 36.1472 49.0398 36.1472C46.3157 36.1472 44.1913 38.2215 44.1913 41.0956C44.1913 43.9447 46.2907 46.0441 49.0398 46.0441C50.7143 46.0441 51.464 45.0194 51.464 45.0194V45.4443C51.464 45.6442 51.614 45.7942 51.8139 45.7942H53.8383V36.3971C53.8383 36.3971 51.9889 36.3971 51.8139 36.3971C51.614 36.3971 51.464 36.5721 51.464 36.747ZM51.464 42.7701C51.0892 43.3199 50.3394 43.7948 49.4397 43.7948C47.8402 43.7948 46.6156 42.7951 46.6156 41.0956C46.6156 39.3962 47.8402 38.3965 49.4397 38.3965C50.3144 38.3965 51.1142 38.8963 51.464 39.4212V42.7701ZM55.3378 36.3971H57.7371V45.7942H55.3378V36.3971ZM91.1766 36.1472C89.5272 36.1472 88.7524 37.1469 88.7524 37.1469V31.8735H86.3531V45.7942C86.3531 45.7942 88.2026 45.7942 88.3775 45.7942C88.5775 45.7942 88.7274 45.6192 88.7274 45.4443V45.0194C88.7274 45.0194 89.5022 46.0441 91.1516 46.0441C93.8758 46.0441 96.0001 43.9447 96.0001 41.0956C96.0001 38.2465 93.8758 36.1472 91.1766 36.1472ZM90.7768 43.7698C89.8521 43.7698 89.1273 43.295 88.7524 42.7451V39.3962C89.1273 38.8963 89.927 38.3715 90.7768 38.3715C92.3763 38.3715 93.6009 39.3712 93.6009 41.0706C93.6009 42.7701 92.3763 43.7698 90.7768 43.7698ZM85.1035 40.2209V45.8192H82.7043V40.4958C82.7043 38.9463 82.2044 38.3215 80.8549 38.3215C80.1301 38.3215 79.3803 38.6964 78.9055 39.2462V45.7942H76.5062V36.3971H78.4056C78.6056 36.3971 78.7555 36.5721 78.7555 36.747V37.1469C79.4553 36.4221 80.38 36.1472 81.3047 36.1472C82.3544 36.1472 83.2291 36.4471 83.9289 37.0469C84.7786 37.7467 85.1035 38.6464 85.1035 40.2209ZM70.683 36.1472C69.0336 36.1472 68.2588 37.1469 68.2588 37.1469V31.8735H65.8596V45.7942C65.8596 45.7942 67.709 45.7942 67.8839 45.7942C68.0839 45.7942 68.2338 45.6192 68.2338 45.4443V45.0194C68.2338 45.0194 69.0086 46.0441 70.658 46.0441C73.3822 46.0441 75.5065 43.9447 75.5065 41.0956C75.5315 38.2465 73.4072 36.1472 70.683 36.1472ZM70.2832 43.7698C69.3585 43.7698 68.6337 43.295 68.2588 42.7451V39.3962C68.6337 38.8963 69.4334 38.3715 70.2832 38.3715C71.8827 38.3715 73.1073 39.3712 73.1073 41.0706C73.1073 42.7701 71.8827 43.7698 70.2832 43.7698ZM63.7852 36.1472C64.51 36.1472 64.8849 36.2721 64.8849 36.2721V38.4965C64.8849 38.4965 62.8855 37.8217 61.6359 39.2462V45.8192H59.2366V36.3971C59.2366 36.3971 61.086 36.3971 61.261 36.3971C61.4609 36.3971 61.6109 36.5721 61.6109 36.747V37.1469C62.0607 36.622 63.0354 36.1472 63.7852 36.1472ZM38.868 44.9444C38.743 44.6445 38.6181 44.3196 38.4931 44.0447C38.2932 43.5949 38.0932 43.17 37.9183 42.7701L37.8933 42.7451C36.1688 38.9963 34.3194 35.1975 32.37 31.4487L32.295 31.2987C32.0951 30.9238 31.8952 30.5239 31.6952 30.1241C31.4453 29.6742 31.1954 29.1994 30.7955 28.7495C29.9958 27.7498 28.8461 27.2 27.6215 27.2C26.3719 27.2 25.2472 27.7498 24.4225 28.6995C24.0476 29.1494 23.7727 29.6242 23.5228 30.0741C23.3228 30.474 23.1229 30.8738 22.923 31.2487L22.848 31.3987C20.9236 35.1475 19.0492 38.9463 17.3247 42.6951L17.2997 42.7451C17.1248 43.145 16.9248 43.5699 16.7249 44.0197C16.5999 44.2946 16.475 44.5945 16.35 44.9194C16.0251 45.8442 15.9252 46.7189 16.0501 47.6186C16.325 49.493 17.5746 51.0675 19.2991 51.7673C19.9489 52.0422 20.6237 52.1672 21.3235 52.1672C21.5234 52.1672 21.7733 52.1422 21.9733 52.1172C22.798 52.0172 23.6477 51.7423 24.4725 51.2675C25.4972 50.6926 26.4719 49.8679 27.5715 48.6683C28.6712 49.8679 29.6709 50.6926 30.6705 51.2675C31.4953 51.7423 32.345 52.0172 33.1698 52.1172C33.3697 52.1422 33.6196 52.1672 33.8196 52.1672C34.5193 52.1672 35.2191 52.0422 35.8439 51.7673C37.5934 51.0675 38.818 49.468 39.0929 47.6186C39.2929 46.7439 39.1929 45.8691 38.868 44.9444ZM27.5965 46.244C26.2469 44.5446 25.3722 42.9451 25.0723 41.5955C24.9473 41.0207 24.9223 40.5208 24.9973 40.071C25.0473 39.6711 25.1973 39.3212 25.3972 39.0213C25.872 38.3465 26.6718 37.9216 27.5965 37.9216C28.5212 37.9216 29.346 38.3215 29.7958 39.0213C29.9958 39.3212 30.1457 39.6711 30.1957 40.071C30.2707 40.5208 30.2457 41.0457 30.1207 41.5955C29.8208 42.9201 28.9461 44.5196 27.5965 46.244ZM37.5684 47.4187C37.3934 48.7183 36.5187 49.8429 35.2941 50.3427C34.6943 50.5927 34.0445 50.6676 33.3947 50.5927C32.7699 50.5177 32.1451 50.3178 31.4953 49.9429C30.5956 49.443 29.6958 48.6683 28.6462 47.5186C30.2957 45.4943 31.2954 43.6448 31.6702 41.9954C31.8452 41.2206 31.8702 40.5208 31.7952 39.871C31.6952 39.2462 31.4703 38.6714 31.1204 38.1716C30.3456 37.0469 29.0461 36.3971 27.5965 36.3971C26.147 36.3971 24.8474 37.0719 24.0726 38.1716C23.7227 38.6714 23.4978 39.2462 23.3978 39.871C23.2978 40.5208 23.3228 41.2456 23.5228 41.9954C23.8977 43.6448 24.9223 45.5193 26.5468 47.5436C25.5222 48.6933 24.5974 49.468 23.6977 49.9679C23.0479 50.3427 22.4231 50.5427 21.7983 50.6177C21.1235 50.6926 20.4737 50.5927 19.8989 50.3677C18.6743 49.8679 17.7996 48.7432 17.6246 47.4437C17.5496 46.8188 17.5996 46.194 17.8496 45.4943C17.9245 45.2443 18.0495 44.9944 18.1744 44.6945C18.3494 44.2946 18.5493 43.8698 18.7493 43.4449L18.7743 43.3949C20.4987 39.6711 22.3481 35.8723 24.2725 32.1734L24.3475 32.0235C24.5475 31.6486 24.7474 31.2487 24.9473 30.8738C25.1473 30.474 25.3722 30.0991 25.6471 29.7742C26.172 29.1744 26.8717 28.8495 27.6465 28.8495C28.4212 28.8495 29.121 29.1744 29.6459 29.7742C29.9208 30.0991 30.1457 30.474 30.3456 30.8738C30.5456 31.2487 30.7455 31.6486 30.9455 32.0235L31.0204 32.1734C32.9198 35.8973 34.7693 39.6961 36.4937 43.4199V43.4449C36.6937 43.8448 36.8686 44.2946 37.0685 44.6945C37.1935 44.9944 37.3185 45.2443 37.3934 45.4943C37.5934 46.1441 37.6684 46.7689 37.5684 47.4187Z" fill="#FF5A5F"/>
</g>
<defs>
<clipPath id="clip0_554_2140">
<rect width="80" height="24.9672" fill="white" transform="translate(16 27.2)"/>
</clipPath>
</defs>
</svg>
