<svg width="32" height="33" viewBox="0 0 32 33" fill="none" xmlns="http://www.w3.org/2000/svg">
<circle cx="16" cy="16.0769" r="16" fill="white"/>
<path d="M14.4999 21.0768C14.3683 21.0776 14.2379 21.0524 14.116 21.0026C13.9942 20.9528 13.8834 20.8795 13.7899 20.7868C13.6962 20.6939 13.6218 20.5833 13.571 20.4614C13.5203 20.3396 13.4941 20.2088 13.4941 20.0768C13.4941 19.9448 13.5203 19.8141 13.571 19.6923C13.6218 19.5704 13.6962 19.4598 13.7899 19.3668L17.0999 16.0768L13.9199 12.7668C13.7337 12.5795 13.6291 12.326 13.6291 12.0618C13.6291 11.7976 13.7337 11.5442 13.9199 11.3568C14.0129 11.2631 14.1235 11.1887 14.2454 11.1379C14.3672 11.0872 14.4979 11.061 14.6299 11.061C14.762 11.061 14.8927 11.0872 15.0145 11.1379C15.1364 11.1887 15.247 11.2631 15.3399 11.3568L19.1999 15.3568C19.3832 15.5438 19.4858 15.7951 19.4858 16.0568C19.4858 16.3186 19.3832 16.5699 19.1999 16.7568L15.1999 20.7568C15.1102 20.8538 15.0021 20.932 14.882 20.9869C14.7618 21.0418 14.632 21.0724 14.4999 21.0768Z" fill="#3671E9"/>
</svg>
