<svg width="112" height="81" viewBox="0 0 112 81" fill="none" xmlns="http://www.w3.org/2000/svg">
<rect y="0.955322" width="112" height="80" rx="4" fill="#0060AF"/>
<path fill-rule="evenodd" clip-rule="evenodd" d="M23.0357 48.6213C23.0357 47.5476 23.0481 44.6778 23.02 44.3242C23.0445 40.0538 19.7507 37.0414 17.6699 37.2762C16.23 37.394 15.023 37.9475 14.3754 39.5396C13.7746 41.0235 14.3117 42.9972 16.3083 43.4603C18.443 43.9577 19.6899 44.3715 20.5922 44.9553C21.6976 45.6701 22.6001 47.0357 22.6241 48.623" fill="white"/>
<path fill-rule="evenodd" clip-rule="evenodd" d="M22.1435 48.6229C22.1504 47.2466 21.3356 46.0297 20.2705 45.3757C19.3258 44.7977 18.0575 44.4181 16.0114 43.9287C15.379 43.7762 14.7174 43.4374 14.5126 43.0056C13.9708 43.5202 13.8724 44.6772 13.9677 45.3536C14.0785 46.1358 15.0484 47.4254 16.5089 47.4759C17.4008 47.5096 18.5285 47.295 19.0692 47.1866C20.0021 46.9967 21.478 47.5475 21.713 48.6212" fill="white"/>
<path fill-rule="evenodd" clip-rule="evenodd" d="M23.7901 30.6206C21.3135 30.6206 19.1747 32.1601 19.1821 34.824C19.1899 37.0641 21.101 38.2633 21.7832 39.1199C22.8137 40.4107 23.3714 41.9385 23.4291 44.2762C23.4745 46.1367 23.4722 47.974 23.4822 48.6251H24.0286C24.0194 47.9438 23.9946 45.9935 24.0227 44.2187C24.0598 41.8802 24.6377 40.4107 25.6687 39.1199C26.3568 38.2633 28.2661 37.0641 28.2702 34.824C28.2797 32.1601 26.1417 30.6206 23.6677 30.6206" fill="white"/>
<path fill-rule="evenodd" clip-rule="evenodd" d="M24.4185 48.6213C24.4185 47.5476 24.4057 44.6778 24.4332 44.3242C24.409 40.0538 27.7007 37.0414 29.7834 37.2762C31.2232 37.394 32.4287 37.9475 33.0784 39.5396C33.6784 41.0235 33.1384 42.9972 31.1444 43.4603C29.0082 43.9577 27.763 44.3715 26.8585 44.9553C25.7543 45.6701 24.915 47.0357 24.8892 48.623" fill="white"/>
<path fill-rule="evenodd" clip-rule="evenodd" d="M25.3101 48.6229C25.3024 47.2466 26.117 46.0297 27.1789 45.3757C28.1278 44.7977 29.3974 44.4181 31.4416 43.9287C32.0754 43.7762 32.7362 43.4374 32.9374 43.0056C33.4818 43.5202 33.5802 44.6772 33.4846 45.3536C33.3718 46.1358 32.4041 47.4254 30.9462 47.4759C30.0548 47.5096 28.921 47.295 28.3826 47.1866C27.4533 46.9967 25.9732 47.5475 25.7373 48.6212" fill="white"/>
<path fill-rule="evenodd" clip-rule="evenodd" d="M26.0739 53.066L25.7573 50.8863L26.5222 50.777C26.7082 50.7532 26.9349 50.7838 27.0256 50.8936C27.1258 51.0085 27.1565 51.1034 27.1758 51.254C27.2049 51.4405 27.1477 51.6557 26.9251 51.763V51.7696C27.1735 51.7696 27.3237 51.9379 27.3675 52.222C27.3737 52.2823 27.3927 52.427 27.3737 52.548C27.3232 52.8357 27.1413 52.9285 26.8337 52.9691L26.0739 53.066ZM26.5663 52.6759C26.657 52.6636 26.7489 52.6589 26.8208 52.6157C26.9311 52.548 26.921 52.4032 26.9056 52.2954C26.8674 52.0591 26.802 51.969 26.5359 52.0061L26.3684 52.0304L26.4746 52.6878L26.5663 52.6759ZM26.4063 51.6686C26.5075 51.6533 26.6446 51.6416 26.7018 51.551C26.7319 51.4906 26.7701 51.4425 26.7448 51.3079C26.7136 51.1486 26.6577 51.0495 26.4426 51.0879L26.2424 51.1182L26.3215 51.6768L26.4063 51.6686Z" fill="white"/>
<path fill-rule="evenodd" clip-rule="evenodd" d="M29.3876 51.7551C29.3935 51.7957 29.4004 51.8409 29.403 51.8814C29.4649 52.2787 29.3876 52.608 28.9135 52.6986C28.2125 52.8256 28.0783 52.4155 27.9552 51.8409L27.8895 51.5298C27.7929 50.9802 27.7514 50.5639 28.4346 50.4354C28.8198 50.3694 29.0743 50.5139 29.1802 50.8753C29.1967 50.9292 29.2173 50.9824 29.225 51.0368L28.8058 51.1184C28.7574 50.9824 28.6933 50.7397 28.5047 50.7601C28.1662 50.7988 28.278 51.1956 28.3127 51.3617L28.4387 51.9584C28.4766 52.1388 28.5518 52.4271 28.8447 52.3715C29.0825 52.3266 28.9787 51.9773 28.9576 51.8341" fill="white"/>
<path fill-rule="evenodd" clip-rule="evenodd" d="M30.0603 52.4147L29.9155 50.1591L30.4784 49.9971L31.6591 51.9589L31.2158 52.0839L30.936 51.5854L30.4437 51.7248L30.5073 52.2916L30.0603 52.4147ZM30.4024 51.3605L30.7582 51.2633L30.2857 50.3507L30.4024 51.3605Z" fill="white"/>
<path fill-rule="evenodd" clip-rule="evenodd" d="M16.1504 50.7092C16.3266 50.1776 16.4843 49.7859 17.1569 49.9598C17.5168 50.0547 17.7399 50.2041 17.7294 50.5982C17.7276 50.6859 17.6969 50.7755 17.6768 50.862L17.2582 50.7532C17.3131 50.5353 17.3478 50.3627 17.0634 50.2801C16.7347 50.1951 16.6546 50.571 16.6092 50.7333L16.4389 51.3244C16.3848 51.5 16.3199 51.7902 16.6092 51.8652C16.8483 51.9257 16.9931 51.7047 17.0796 51.3817L16.787 51.3083L16.8882 50.9664L17.5769 51.175L17.2499 52.3147L16.9331 52.2336L17.0044 51.9927H16.9954C16.8493 52.1899 16.6716 52.2106 16.5157 52.1821C15.8271 52.0068 15.8989 51.5825 16.0633 51.0157" fill="white"/>
<path fill-rule="evenodd" clip-rule="evenodd" d="M18.7138 51.6719L18.5064 52.5991L18.0396 52.5042L18.537 50.3391L19.3328 50.5084C19.7986 50.6033 19.9393 50.7986 19.8733 51.2013C19.8357 51.4322 19.7149 51.6809 19.4199 51.6607L19.4168 51.6571C19.6662 51.7392 19.6873 51.8579 19.6438 52.0627C19.625 52.1501 19.4954 52.679 19.5848 52.7645L19.5879 52.8296L19.1048 52.7106C19.0847 52.5642 19.1533 52.3004 19.1803 52.1542C19.2074 52.025 19.2509 51.8429 19.1118 51.7746C19.0031 51.7198 18.9624 51.7224 18.8392 51.696L18.7138 51.6719ZM18.7934 51.3365L19.1077 51.4164C19.2986 51.4427 19.4047 51.3494 19.4423 51.1318C19.4763 50.9324 19.4323 50.8547 19.261 50.8161L18.924 50.7515L18.7934 51.3365Z" fill="white"/>
<path fill-rule="evenodd" clip-rule="evenodd" d="M21.7079 50.8226L22.1696 50.8731L21.9707 52.3953C21.8741 52.8779 21.6762 53.0887 21.1131 53.0229C20.5401 52.9544 20.4041 52.7086 20.4386 52.2222L20.639 50.7014L21.1043 50.7514L20.9046 52.2382C20.8833 52.3997 20.8438 52.6389 21.1483 52.6681C21.4186 52.6875 21.4799 52.5185 21.5106 52.3086" fill="white"/>
<path fill-rule="evenodd" clip-rule="evenodd" d="M22.6782 53.106L22.8173 50.9296L23.7041 50.9658C24.1235 50.9854 24.233 51.3079 24.2201 51.6159C24.2078 51.8031 24.1459 52.0122 23.9728 52.1256C23.8308 52.222 23.6482 52.2449 23.4792 52.2371L23.1901 52.222L23.1324 53.1342L22.6782 53.106ZM23.203 51.8901L23.438 51.9025C23.6289 51.909 23.7554 51.8379 23.7719 51.5736C23.7814 51.3201 23.6794 51.2768 23.432 51.2666L23.246 51.2606L23.203 51.8901Z" fill="white"/>
<path fill-rule="evenodd" clip-rule="evenodd" d="M85.2386 32.7242L81.7132 38.7562C80.3826 37.7375 78.758 36.988 76.6848 36.988C71.7789 36.988 69.7859 40.4351 69.7859 42.8634C69.7859 44.6662 71.0379 47.3255 75.4032 47.3255C77.2357 47.3255 79.8403 46.124 80.59 45.5771L77.1035 52.5753C75.4415 52.8879 74.8954 53.0817 73.4887 53.1227C65.6754 53.3425 62.5184 48.8178 62.5205 44.1948C62.5259 38.0828 68.2901 30.6499 77.8462 30.6499C78.4316 30.6499 79.1478 30.841 79.7601 31.0526L80.3792 30.3063" fill="white"/>
<path fill-rule="evenodd" clip-rule="evenodd" d="M99.7848 30.4957L100.783 52.4186H93.3536L93.3495 48.659H88.2832L86.6161 52.4186H78.5586L86.9825 36.7638L85.083 36.7522L88.6918 30.4957H99.7848ZM93.301 37.2024L90.437 43.5791H93.3876L93.301 37.2024Z" fill="white"/>
<path fill-rule="evenodd" clip-rule="evenodd" d="M57.8303 30.4956C61.5095 30.5151 63.5885 32.3977 63.5885 35.117C63.5885 37.6242 61.3958 39.8432 58.9888 40.9907C61.467 41.8497 61.6813 43.9577 61.6813 45.4488C61.6813 49.0521 57.8463 52.4186 52.8609 52.4186H41.9883L46.2293 36.9819L44.4873 36.9724L48.0484 30.4956C48.0484 30.4956 54.8385 30.4762 57.8303 30.4956ZM54.2207 39.3842C54.9817 39.3842 56.3255 39.2025 56.6614 37.8141C57.0296 36.3067 55.7685 36.2662 55.1636 36.2662L53.0021 36.2574L52.2483 39.3842H54.2207ZM51.1647 43.2583L50.1695 46.8613H52.7148C53.716 46.8613 55.0806 46.3926 55.415 45.2201C55.7453 44.0444 54.7913 43.2583 53.7938 43.2583H51.1647Z" fill="white"/>
<path fill-rule="evenodd" clip-rule="evenodd" d="M23.8881 55.1125C20.1234 55.1125 16.2549 54.2384 12.3912 52.5098L12.2964 52.4658L12.2511 52.3747C10.5173 48.9247 9.6001 45.1514 9.6001 41.4595C9.6001 37.7729 10.4796 34.1609 12.2145 30.7155L12.2624 30.624L12.359 30.5783C15.9331 28.9822 19.7777 28.174 23.7902 28.174C27.5276 28.174 31.5195 29.0738 35.3319 30.7811L35.4295 30.8221L35.4749 30.9154C37.2417 34.429 38.1735 38.2016 38.1735 41.8325C38.1735 45.4489 37.2788 49.0643 35.5097 52.5758L35.4633 52.6679L35.3649 52.7106C31.8452 54.2812 27.8764 55.1125 23.8881 55.1125ZM12.7488 52.0367C16.5019 53.7012 20.2455 54.5415 23.8881 54.5415C27.7504 54.5415 31.5914 53.7457 35.0109 52.237C36.7094 48.8344 37.5704 45.3324 37.5704 41.8325C37.5704 38.3182 36.6718 34.6629 34.972 31.2525C31.2722 29.6129 27.4083 28.7435 23.7902 28.7435C19.9057 28.7435 16.1822 29.5202 12.7164 31.0526C11.0526 34.3919 10.2058 37.8912 10.2058 41.4595C10.2058 45.0341 11.0856 48.6911 12.7488 52.0367Z" fill="white"/>
</svg>
