<svg width="112" height="80" viewBox="0 0 112 80" fill="none" xmlns="http://www.w3.org/2000/svg">
<rect width="112" height="80" rx="6.4" fill="white"/>
<path fill-rule="evenodd" clip-rule="evenodd" d="M34.5968 33.2491C35.2985 33.2491 35.7897 33.8105 35.6494 34.4421C34.3878 40.0113 34.5811 45.8115 36.2108 51.2842C36.4213 51.9158 35.8599 52.5474 35.2283 52.5474H18.2459C17.5441 52.5474 16.9827 51.8456 17.1933 51.2141C18.8775 45.2491 18.8775 41.1088 17.7547 34.4421C17.6845 33.7404 18.1055 33.3193 18.8073 33.3193H18.8775C22.3161 33.6702 24.4915 33.8105 26.7371 33.8105C28.8424 33.8105 31.088 33.6702 34.4564 33.3193H34.5968V33.2491ZM24.0704 38.0211C24.0704 38.4421 23.7196 38.793 23.2283 38.793C23.13 38.7935 23.0326 38.7733 22.9425 38.7337C22.8525 38.6942 22.7717 38.6361 22.7056 38.5633C22.6394 38.4905 22.5893 38.4046 22.5584 38.3112C22.5276 38.2178 22.5167 38.119 22.5266 38.0211C22.5167 37.9232 22.5276 37.8243 22.5584 37.7309C22.5893 37.6375 22.6394 37.5516 22.7056 37.4788C22.7717 37.4061 22.8525 37.348 22.9425 37.3084C23.0326 37.2688 23.13 37.2487 23.2283 37.2491C23.7196 37.2491 24.0704 37.6 24.0704 37.9509V38.0211ZM30.1055 38.793C30.5266 38.793 30.9476 38.4421 30.9476 38.0211C30.9476 37.6 30.5266 37.2491 30.1055 37.2491C29.9194 37.2491 29.7409 37.3231 29.6093 37.4547C29.4777 37.5863 29.4038 37.7648 29.4038 37.9509C29.3827 38.054 29.3851 38.1606 29.4108 38.2627C29.4365 38.3648 29.4848 38.4598 29.5522 38.5406C29.6196 38.6215 29.7043 38.6862 29.8001 38.7299C29.8959 38.7736 30.0003 38.7951 30.1055 38.793ZM22.3161 40.6877C22.3161 42.0913 23.3687 44.8983 26.6669 44.8983C30.0354 44.8983 31.088 42.0913 31.088 40.6877C31.088 40.407 30.8073 40.1263 30.5266 40.1263C30.2459 40.1263 30.0354 40.407 30.0354 40.6877C30.0354 41.7404 29.1933 43.9158 26.6669 43.9158C26.2372 43.9252 25.8098 43.8486 25.41 43.6905C25.0103 43.5325 24.6461 43.2962 24.3388 42.9955C24.0316 42.6948 23.7875 42.3358 23.6209 41.9395C23.4544 41.5432 23.3686 41.1176 23.3687 40.6877C23.3687 40.407 23.1582 40.1263 22.8073 40.1263C22.5266 40.1263 22.3161 40.407 22.3161 40.6877Z" fill="#0072FF"/>
<path d="M28.9126 30.3719C29.2067 30.3201 29.4869 30.2082 29.7358 30.0434C29.9847 29.8785 30.1971 29.6642 30.3596 29.4138C30.5221 29.1633 30.6313 28.8821 30.6805 28.5876C30.7296 28.2931 30.7176 27.9916 30.6452 27.702C30.5728 27.4123 30.4415 27.1407 30.2596 26.9039C30.0776 26.6672 29.8489 26.4705 29.5876 26.3259C29.3264 26.1814 29.0382 26.0922 28.7409 26.0639C28.4437 26.0356 28.1438 26.0688 27.86 26.1614C27.566 26.2133 27.2858 26.3251 27.0368 26.49C26.7879 26.6548 26.5756 26.8691 26.413 27.1196C26.2505 27.37 26.1413 27.6513 26.0922 27.9458C26.043 28.2403 26.055 28.5417 26.1275 28.8314C26.1999 29.121 26.3311 29.3927 26.5131 29.6294C26.695 29.8661 26.9237 30.0629 27.185 30.2074C27.4463 30.3519 27.7345 30.4411 28.0317 30.4694C28.3289 30.4977 28.6288 30.4645 28.9126 30.3719Z" fill="#FFCD00"/>
<path d="M33.6835 32.6176V30.372C33.7537 29.6702 32.9818 29.179 32.28 29.6001L28.2098 32.2667C27.9291 32.4071 27.7186 32.6878 27.6484 32.9685C29.3326 32.9685 31.1572 32.8281 33.6835 32.6176Z" fill="#00CDC7"/>
<path d="M19.86 32.6176C22.5968 32.8983 24.6319 33.0387 26.667 33.0387L25.6845 29.8106C25.5886 29.5335 25.388 29.305 25.1257 29.1738C24.8634 29.0427 24.5603 29.0194 24.281 29.1088L20.281 30.1615C19.6494 30.3018 19.2986 31.0036 19.5793 31.565L19.7898 32.5474L19.86 32.6176Z" fill="#FF4646"/>
<path d="M82.6669 42.9333C82.235 41.7115 81.4377 40.6522 80.3832 39.899C79.3287 39.1457 78.068 38.7351 76.7722 38.7228C76.282 38.7228 75.7984 38.837 75.36 39.0562C74.9215 39.2754 74.54 39.5938 74.2459 39.986C73.6143 40.6877 73.5441 41.8807 73.6845 42.793V43.0737L73.9652 42.8632C74.1757 42.6526 74.6669 42.3719 75.2283 42.2316H76.2108C76.9827 42.3018 77.6845 42.6526 78.2459 43.214C78.9476 43.9158 79.2283 44.8281 79.2283 45.8807C79.2283 47.0035 78.8775 47.8456 78.2459 48.5474C77.5441 49.2491 76.702 49.5298 75.6494 49.5298C75.1842 49.5418 74.7213 49.4611 74.2875 49.2924C73.8538 49.1237 73.458 48.8705 73.1231 48.5474C72.0704 47.4947 72.2108 45.4597 72.2108 45.4597V33.3193L72.0704 33.179L71.6494 33.1088C71.2985 32.9684 70.8775 32.8983 70.3862 32.8983C69.7547 32.8983 69.2634 33.0386 68.9126 33.3193C68.5617 33.5298 68.4213 33.9509 68.4213 34.5123V45.2491C68.4213 46.3719 68.5617 47.3544 68.7722 48.1965C68.9827 49.0386 69.3336 49.7404 69.7547 50.3018C70.4564 51.1439 71.2283 51.7754 72.281 52.2667C74.3354 53.1398 76.6467 53.1901 78.7371 52.407C79.6003 52.1034 80.39 51.6215 81.055 50.9929C81.7199 50.3642 82.2452 49.6027 82.5968 48.7579C82.9476 47.9158 83.088 46.9333 83.088 45.8807C83.088 44.7579 82.9476 43.7754 82.5968 42.9333H82.6669ZM59.8599 33.1088L58.5968 32.8983C57.895 32.8983 57.474 33.0386 57.0529 33.3193C56.7722 33.5298 56.5617 33.9509 56.5617 34.5123V52.5474H60.3512V33.3193L59.8599 33.179V33.1088ZM64.4915 37.1088C64.7783 37.1142 65.0632 37.061 65.3287 36.9524C65.5941 36.8438 65.8346 36.6821 66.0354 36.4772C66.4564 36.1263 66.6669 35.6351 66.6669 35.0737C66.6669 34.5153 66.4451 33.9799 66.0503 33.585C65.6555 33.1902 65.12 32.9684 64.5617 32.9684C63.9301 32.9684 63.4389 33.1088 63.0178 33.5298C62.6468 33.9298 62.4455 34.4581 62.4564 35.0035C62.4564 35.6351 62.5968 36.1263 63.0178 36.4772C63.4065 36.8739 63.9362 37.1009 64.4915 37.1088ZM64.6319 39.1439C64.0003 39.1439 63.509 39.2842 63.1582 39.5649C62.8073 39.7754 62.6669 40.1965 62.6669 40.8281V52.5474H66.4564V39.4947L65.895 39.3544C65.5441 39.214 65.1231 39.1439 64.6319 39.1439ZM88.0704 33.1088C87.7196 32.9684 87.2985 32.8983 86.8073 32.8983C86.1757 32.8983 85.6845 33.0386 85.3336 33.3193C84.9827 33.5298 84.8424 33.9509 84.8424 34.5123V52.5474H88.6319V33.3193L88.0704 33.179V33.1088ZM92.702 37.1088C93.2573 37.1009 93.787 36.8739 94.1757 36.4772C94.5968 36.1263 94.8073 35.6351 94.8073 35.0737C94.8073 34.5153 94.5855 33.9799 94.1907 33.585C93.7959 33.1902 93.2604 32.9684 92.702 32.9684C92.0704 32.9684 91.5792 33.1088 91.1582 33.5298C90.7872 33.9298 90.5859 34.4581 90.5968 35.0035C90.5968 35.6351 90.8073 36.1263 91.1582 36.4772C91.3589 36.6821 91.5994 36.8438 91.8649 36.9524C92.1304 37.061 92.4152 37.1142 92.702 37.1088ZM92.7722 39.1439C92.1406 39.1439 91.6494 39.2842 91.2985 39.5649C90.9476 39.7754 90.8073 40.1965 90.8073 40.8281V52.5474H94.5968V39.4947L94.0354 39.3544C93.6845 39.214 93.2634 39.1439 92.7722 39.1439ZM54.3161 42.9333C53.8842 41.7115 53.0869 40.6522 52.0324 39.899C50.9778 39.1457 49.7172 38.7351 48.4213 38.7228C47.943 38.7335 47.4733 38.8528 47.0478 39.0716C46.6223 39.2905 46.2521 39.6031 45.9652 39.986C45.2634 40.6877 45.2634 41.8807 45.4038 42.793V43.0737L45.6845 42.8632C45.895 42.6526 46.3862 42.3719 46.9476 42.2316H47.9301C48.702 42.3018 49.3336 42.6526 49.9652 43.214C50.5968 43.9158 50.9476 44.8281 50.9476 45.8807C50.9476 47.0035 50.5968 47.8456 49.895 48.5474C49.1933 49.2491 48.4213 49.4597 47.3687 49.4597C46.9035 49.4716 46.4406 49.3909 46.0068 49.2222C45.5731 49.0536 45.1773 48.8003 44.8424 48.4772C43.7897 47.4246 43.8599 45.3895 43.8599 45.3895V33.3193L43.7897 33.179L43.3687 33.1088C43.0178 32.9684 42.5968 32.8983 42.1055 32.8983C41.474 32.8983 40.9827 33.0386 40.6319 33.3193C40.281 33.5298 40.1406 33.9509 40.1406 34.5123V45.2491C40.1406 46.3719 40.2108 47.3544 40.4915 48.1965C40.702 49.0386 41.0529 49.7404 41.4038 50.3018C42.1055 51.1439 42.9476 51.7754 44.0003 52.2667C46.0342 53.1213 48.3168 53.1714 50.3862 52.407C51.2495 52.1034 52.0392 51.6215 52.7041 50.9929C53.369 50.3642 53.8943 49.6027 54.2459 48.7579C54.6669 47.9158 54.8073 46.9333 54.8073 45.8807C54.8073 44.7579 54.6669 43.7754 54.3161 42.9333Z" fill="#0072FF"/>
</svg>
