<svg width="112" height="81" viewBox="0 0 112 81" fill="none" xmlns="http://www.w3.org/2000/svg">
<rect y="0.955322" width="112" height="80" rx="4" fill="white"/>
<path fill-rule="evenodd" clip-rule="evenodd" d="M18.1634 48.4602L21.9643 53.1671H12.5538L18.1634 48.4602ZM16.9681 47.0063L9.60674 53.1815L9.60372 37.9941L16.9681 47.0063ZM34.6802 31.7134C34.6802 31.7134 33.0642 30.9484 31.1868 31.0601C29.0405 31.1865 27.2449 32.0097 26.2126 33.0958C25.5631 33.7781 24.845 34.6105 24.4843 35.5145C23.9613 36.8223 23.8496 38.5503 23.8496 38.5503C23.8496 38.5503 23.0989 37.9132 22.1584 36.0567C21.0649 33.8973 20.7658 32.5893 20.6176 31.097C20.4857 29.7874 20.6927 28.4925 20.6927 28.4925H34.6802V31.7134ZM34.6802 36.019V45.5951C34.6802 45.5951 33.8106 45.9291 33.1013 45.9291C32.392 45.9291 31.1841 45.824 29.7812 45.0527C28.3885 44.2877 27.6177 43.3621 27.02 42.5234C26.4139 41.6703 25.9135 40.4877 25.7647 39.6356C25.6452 38.9538 25.5163 37.2533 26.2126 35.8713C26.5905 35.1212 27.6047 33.8356 29.5572 33.7625C31.1488 33.7014 32.0313 34.1199 32.8402 34.5638C34.3796 35.4103 34.6802 36.019 34.6802 36.019ZM19.4495 44.9227L21.9725 42.8196C21.1684 41.7925 20.9559 41.4055 20.0571 40.0795C19.1368 38.7223 18.3659 37.2291 17.7067 35.4771C16.9932 33.5792 16.8208 32.5138 16.8996 31.097C16.9983 29.2944 17.4082 28.4925 17.4082 28.4925H9.6001L9.60372 32.7007C9.60372 32.7007 15.5806 40.1909 19.4495 44.9227ZM26.6584 53.1602H34.6802V47.3112C34.6802 47.3112 32.6905 48.2239 31.3972 48.2976C30.6272 48.3425 29.8799 48.3721 28.6741 48.0513C27.3336 47.6952 26.5721 47.348 25.3298 46.3233C24.3319 45.5014 23.191 44.2877 23.191 44.2877L20.6532 46.4036C21.8306 47.8438 22.7002 48.8921 22.9664 49.1743C24.111 50.3838 24.596 50.8283 25.3669 51.2594C26.1375 51.6913 28.7121 51.6679 28.7121 51.6679L26.6584 53.1602Z" fill="#E94E0F"/>
<path fill-rule="evenodd" clip-rule="evenodd" d="M95.3488 47.9574C95.3488 49.6521 95.5773 52.4378 93.6794 53.116V53.2289H100.888V53.116C98.991 52.4007 99.2186 49.6521 99.2186 47.9574V33.7632C99.2186 32.0693 98.991 29.2831 100.888 28.5678V28.4548H93.6794V28.5678C95.6145 29.2831 95.3488 32.0316 95.3488 33.7632V47.9574ZM68.9171 33.7632L81.9306 50.1416C83.5994 52.2872 84.7763 53.5303 87.4698 54.4334V33.3115C87.4698 31.2034 87.4698 29.697 89.4432 28.5678V28.4548H82.7652V28.5678C84.7763 29.697 84.7376 31.2034 84.7376 33.3115V47.5812L70.8525 30.1865L70.3206 29.4334C70.0556 29.1324 69.9041 28.9443 69.7523 28.4926V28.4548H64.2122V28.5678C66.1852 29.697 66.1852 31.2034 66.1852 33.3115V48.3348C66.1852 50.4426 66.1852 51.9484 64.175 53.116V53.2289H70.8905V53.116C68.8794 51.9484 68.9171 50.4426 68.9171 48.3348V33.7632ZM47.7047 38.4324V31.053L50.2461 30.7888C52.5228 30.563 54.9505 31.9187 54.9505 34.5169C54.9505 37.6042 51.422 38.4324 48.9567 38.4324H47.7047ZM47.7047 50.2168V40.9168L50.3599 40.7664C53.6988 40.578 57.2649 42.1598 57.2649 45.8118C57.2649 49.3886 54.1168 50.8191 51.0049 50.5181L47.7047 50.2168ZM43.8343 47.9199C43.8343 49.6521 44.0622 52.4007 42.1646 53.116V53.2289H48.4248C51.2702 53.2289 54.2683 53.3421 56.9235 52.0619C59.4656 50.8569 61.4767 48.3716 61.4767 45.4724C61.4767 41.7833 58.7064 39.5239 55.2918 38.808C57.4548 37.8672 59.0855 36.4366 59.0855 33.9139C59.0855 30.563 56.165 28.4548 51.1573 28.4548H42.1646V28.5678C44.1005 29.2831 43.8343 32.0316 43.8343 33.7255V47.9199Z" fill="#005B6A"/>
</svg>
