<svg width="112" height="81" viewBox="0 0 112 81" fill="none" xmlns="http://www.w3.org/2000/svg">
<rect y="0.955322" width="112" height="80" rx="4" fill="#00529C"/>
<path fill-rule="evenodd" clip-rule="evenodd" d="M33.2021 35.6609H38.5402C40.7019 35.6609 42.3134 36.6173 42.3134 38.6308C42.3134 40.107 41.5663 40.9291 40.2686 41.3647V41.3979C41.8153 41.7176 42.6135 42.5565 42.6135 43.9817C42.6135 46.7841 40.1684 47.3708 38.0903 47.3708H33.2021V35.6609ZM36.2941 40.2914H37.1595C38.1738 40.2914 39.222 40.0396 39.222 39.049C39.222 37.9766 38.2239 37.875 37.1919 37.875H36.2941V40.2914ZM36.2941 45.1567H37.2101C38.3398 45.1567 39.5201 44.9887 39.5201 43.7974C39.5201 42.5234 38.3069 42.4049 37.2425 42.4049H36.2941V45.1567Z" fill="white"/>
<path fill-rule="evenodd" clip-rule="evenodd" d="M46.6724 35.6609H50.4638L54.9369 47.3708H51.5444L50.6804 44.8718H46.3237L45.4086 47.3708H42.2661L46.6724 35.6609ZM48.5689 38.0772H48.5339L47.0383 42.6577H49.948L48.5689 38.0772Z" fill="white"/>
<path fill-rule="evenodd" clip-rule="evenodd" d="M55.3677 35.6609H59.3083L63.2328 43.6136H63.2652L63.2161 35.6609H66.0438V47.3708H62.2024L58.1438 39.3686H58.1119L58.2111 47.3708H55.3677V35.6609Z" fill="white"/>
<path fill-rule="evenodd" clip-rule="evenodd" d="M67.0933 35.6609H70.1857V40.4435H70.2191L73.7098 35.6609H77.4359L73.145 41.113L77.7684 47.3708H73.8262L70.2191 42.0531H70.1857V47.3708H67.0933V35.6609Z" fill="white"/>
<path fill-rule="evenodd" clip-rule="evenodd" d="M81.603 35.6609H86.9411C89.1022 35.6609 90.7158 36.6173 90.7158 38.6308C90.7158 40.107 89.9687 40.9291 88.671 41.3647V41.3979C90.2172 41.7176 91.0154 42.5565 91.0154 43.9817C91.0154 46.7841 88.5708 47.3708 86.4932 47.3708H81.603V35.6609ZM84.6964 40.2914H85.5604C86.5752 40.2914 87.6218 40.0396 87.6218 39.049C87.6218 37.9766 86.6253 37.875 85.5948 37.875H84.6964V40.2914ZM84.6964 45.1567H85.6115C86.7412 45.1567 87.9225 44.9887 87.9225 43.7974C87.9225 42.5234 86.7088 42.4049 85.6444 42.4049H84.6964V45.1567Z" fill="white"/>
<path fill-rule="evenodd" clip-rule="evenodd" d="M91.7007 35.6609H97.2215C99.2829 35.6609 100.963 36.6 100.963 38.6144C100.963 40.1744 100.231 41.2146 98.7353 41.5664V41.5996C99.7308 41.8687 99.7986 42.7572 100.381 44.1834L101.512 47.3708H98.2863L97.6208 45.2583C96.9886 43.2449 96.5893 42.7404 95.4419 42.7404H94.7931V47.3708H91.7007V35.6609ZM94.7931 40.5262H95.6085C96.606 40.5262 97.8703 40.492 97.8703 39.1669C97.8703 38.0772 96.7882 37.875 95.6085 37.875H94.7931V40.5262Z" fill="white"/>
<mask id="mask0_598_343" style="mask-type:luminance" maskUnits="userSpaceOnUse" x="6" y="29" width="100" height="25">
<path fill-rule="evenodd" clip-rule="evenodd" d="M6.3999 53.2846H105.456V29.7554H6.3999V53.2846Z" fill="white"/>
</mask>
<g mask="url(#mask0_598_343)">
<path fill-rule="evenodd" clip-rule="evenodd" d="M102.364 47.3709H105.456V35.6609H102.364V47.3709Z" fill="white"/>
<path fill-rule="evenodd" clip-rule="evenodd" d="M26.1442 29.7553H9.95744C7.99267 29.7553 6.3999 31.4021 6.3999 33.4339V33.4728V49.6069C6.3999 51.6188 7.96331 53.2544 9.90278 53.2845H26.1356C28.1009 53.2845 29.6942 51.6377 29.6942 49.6069L29.7018 33.4339C29.7018 31.4021 28.1095 29.7553 26.1442 29.7553ZM11.8817 51.3992L10.9985 51.4089C9.9296 51.4089 9.06312 50.523 9.06312 49.4297L9.05806 49.2739V34.3378L9.06362 33.5335C9.10361 32.4755 9.90024 31.6237 10.9439 31.6237H12.7391C14.3658 31.6237 15.6852 33.051 15.6852 34.7351C15.6852 35.5674 15.3618 36.3231 14.838 36.8726L10.2576 41.5618L14.5505 45.9722C15.1042 46.5477 15.4387 47.3044 15.4387 48.1332C15.4387 49.9373 13.846 51.3992 11.8817 51.3992ZM25.0794 51.3844L17.0755 51.3808C17.0755 51.3808 18.0012 49.3628 18.0012 48.1138C18.0012 46.5911 17.4961 45.2302 16.7061 44.33L13.9685 41.5143L16.7628 38.6016C17.5943 37.8127 18.147 36.4125 18.147 34.8178C18.147 33.555 17.8008 32.4362 17.2436 31.6237H19.183C20.8102 31.6237 22.1297 33.051 22.1297 34.7351C22.1297 35.5674 21.8068 36.3231 21.2829 36.8726L16.7901 41.5128L26.1215 51.1133C25.8259 51.3012 25.4529 51.3844 25.0794 51.3844ZM27.034 48.387L20.3466 41.5107L23.5316 38.2447C24.1805 37.4271 24.5915 36.195 24.5915 34.8178C24.5915 33.5468 24.2402 32.4009 23.6779 31.588L25.1037 31.6309C26.1726 31.6309 27.0391 32.5184 27.0391 33.6111L27.034 48.387Z" fill="white"/>
</g>
</svg>
