<svg width="112" height="80" viewBox="0 0 112 80" fill="none" xmlns="http://www.w3.org/2000/svg">
<rect width="112" height="80" rx="4" fill="#108EE9"/>
<path fill-rule="evenodd" clip-rule="evenodd" d="M24.1754 27.2H23.8021C20.6997 27.2653 17.6439 28.5067 15.3909 30.6421C12.7495 33.0875 11.2338 36.6509 11.2002 40.2424V40.5765C11.2637 44.0933 12.7365 47.5747 15.3013 49.9939C17.573 52.1891 20.6866 53.4677 23.8469 53.52H24.2127C28.4837 53.4715 32.5941 51.0803 34.8154 47.4459C36.7157 44.4331 37.2999 40.6437 36.4562 37.1885C35.7487 34.2075 33.9642 31.4915 31.4927 29.6771C29.3927 28.1091 26.7943 27.2485 24.1754 27.2ZM18.3757 37.8941C19.5815 38.2469 20.8677 38.0323 22.0418 37.6533C22.6888 37.4401 23.3257 37.1962 23.9627 36.9524L23.9627 36.9524L23.9627 36.9524L23.9627 36.9524L23.9627 36.9524C24.9925 36.5582 26.0223 36.1639 27.0949 35.8987C28.5303 35.5627 30.1431 35.8333 31.293 36.7853C31.5205 37.0039 31.52 37.3196 31.5195 37.6189C31.5194 37.693 31.5193 37.766 31.5226 37.8363C31.5098 38.7999 31.5143 39.7637 31.5189 40.7275V40.7278V40.7279V40.7279V40.728V40.728C31.5256 42.1484 31.5323 43.5686 31.4834 44.9875C31.3101 44.9138 31.1378 44.8356 30.9653 44.7572L30.9652 44.7572L30.9652 44.7572C30.2546 44.4346 29.5402 44.1102 28.7413 44.0952C27.075 44.0036 25.5347 44.5566 23.9914 45.1107C22.7357 45.5616 21.478 46.0132 20.149 46.1187C18.9431 46.2027 17.6831 45.9171 16.705 45.1909C16.5046 44.9136 16.5146 44.5664 16.5244 44.2266C16.5284 44.0884 16.5323 43.9514 16.5221 43.8208C16.5406 42.9583 16.5324 42.0942 16.5242 41.23C16.5109 39.8367 16.4976 38.4431 16.5967 37.056C16.8167 37.154 17.0285 37.2707 17.2401 37.3873L17.2401 37.3873L17.2401 37.3873L17.2401 37.3873L17.2401 37.3873C17.6048 37.5882 17.9693 37.789 18.3757 37.8941ZM43.6818 33.7553C43.0216 33.7594 42.3614 33.7636 41.7015 33.7557C41.7006 35.9715 41.7006 38.1877 41.7006 40.4041C41.7006 42.6205 41.7006 44.8372 41.6997 47.0539C42.4351 47.0548 43.1701 47.0548 43.9051 47.0548C44.6401 47.0548 45.3751 47.0548 46.1106 47.0557C47.1802 47.0576 48.261 46.8523 49.2167 46.3576C51.7591 45.1107 53.2319 42.1128 52.7447 39.3333C52.3415 36.44 49.8141 33.9816 46.8778 33.7856C45.8129 33.7418 44.7473 33.7485 43.6818 33.7553ZM44.4799 43.1051C44.4854 40.9419 44.4909 38.7787 44.4717 36.6155C44.7568 36.6243 45.0437 36.6193 45.3307 36.6143H45.3308C45.9587 36.6033 46.5877 36.5924 47.2026 36.7256C48.7351 37.0765 49.9167 38.5045 50.025 40.0651C50.1874 41.6181 49.2858 43.2216 47.8522 43.8563C47.0751 44.2235 46.2211 44.2056 45.3758 44.188C45.0739 44.1817 44.773 44.1754 44.4773 44.1867L44.4799 43.1051ZM57.6839 39.1336C57.7735 36.2496 60.3701 33.6587 63.2895 33.7576C66.1511 33.7277 68.6637 36.2627 68.7775 39.0907C68.8073 40.7154 68.8027 42.3408 68.7981 43.966V43.9675V43.9675V43.9676C68.7952 44.9952 68.7923 46.0228 68.7981 47.0501L68.7957 47.0501C67.8688 47.052 66.9437 47.0539 66.0186 47.0501C66.0139 46.5741 66.0144 46.0981 66.0149 45.6223V45.6222V45.6222V45.6221C66.0153 45.1464 66.0158 44.671 66.0111 44.196C64.9196 44.2015 63.8288 44.2005 62.7382 44.1996H62.7361H62.736H62.7359C61.9733 44.1989 61.2109 44.1982 60.4485 44.1997C60.4457 44.5543 60.447 44.909 60.4484 45.2639V45.2639V45.264V45.265C60.4507 45.8646 60.453 46.4642 60.4354 47.0632C59.8194 47.0483 59.2041 47.0499 58.5892 47.0516H58.5891H58.5891H58.589C58.2816 47.0524 57.9744 47.0533 57.6671 47.052C57.6705 46.0922 57.668 45.1321 57.6655 44.1721C57.661 42.492 57.6566 40.8121 57.6839 39.1336ZM61.1597 37.5693C60.4021 38.3879 60.4242 39.4925 60.4453 40.5509C60.4507 40.82 60.456 41.0861 60.4485 41.3437C61.1898 41.3445 61.9314 41.344 62.6731 41.3436H62.6732H62.6732H62.6733C63.7861 41.3429 64.8989 41.3423 66.0111 41.3456C66.0042 41.0891 66.0102 40.8245 66.0162 40.5571V40.5568V40.5566V40.5564C66.0394 39.5218 66.0636 38.4443 65.3503 37.6272C64.3554 36.3205 62.1901 36.2907 61.1597 37.5693ZM73.6607 39.1635C73.7429 36.6248 75.7271 34.2691 78.2453 33.8416C80.1194 33.4813 82.1279 34.2187 83.3487 35.6784C84.2933 36.7181 84.7749 38.1256 84.7749 39.5219C84.7786 41.1955 84.7773 42.8683 84.7761 44.5414V44.5416L84.7761 44.5717C84.7755 45.3983 84.7749 46.2251 84.7749 47.052C84.46 47.0539 84.145 47.0528 83.8299 47.0517H83.8298H83.8297C83.2219 47.0495 82.6138 47.0473 82.0066 47.0669C81.9865 45.6447 81.9898 44.2219 81.993 42.7991C81.9954 41.7047 81.9979 40.6103 81.9898 39.5163C82.0047 38.5008 81.4615 37.4891 80.573 36.9851C79.6509 36.4325 78.4021 36.5147 77.5565 37.1792C76.8247 37.7261 76.4159 38.6371 76.429 39.5443C76.4247 40.9745 76.4253 42.404 76.4259 43.8337C76.4264 44.9063 76.4269 45.979 76.4253 47.052C76.0866 47.0507 75.7479 47.0513 75.4092 47.0519C74.8164 47.053 74.2236 47.054 73.6309 47.0445C73.6507 45.7782 73.647 44.5115 73.6434 43.2447V43.2442C73.6395 41.8838 73.6356 40.5234 73.6607 39.1635ZM90.5279 36.3336C91.6013 34.6611 93.5837 33.5821 95.5866 33.7725C97.8509 33.9125 99.8594 35.6373 100.487 37.7933C100.718 38.5212 100.729 39.2816 100.74 40.0413V40.0414C100.746 40.4759 100.753 40.9102 100.8 41.3381V47.0371C100.089 47.0567 99.3779 47.0542 98.6668 47.0518H98.6666L98.665 47.0518C98.4284 47.051 98.1919 47.0501 97.9554 47.0501C97.9542 46.7436 97.9547 46.4368 97.9553 46.13C97.9564 45.4821 97.9575 44.834 97.9423 44.1867C96.8164 44.2037 95.6898 44.2014 94.5629 44.1991H94.5628C93.8383 44.1976 93.1136 44.1961 92.389 44.1997C92.3881 44.6748 92.3881 45.1499 92.3881 45.6252C92.3881 46.1005 92.3881 46.576 92.3871 47.052H89.6058C89.6049 45.8265 89.6049 44.6015 89.6049 43.3768C89.6049 42.152 89.6049 40.9275 89.6039 39.7029C89.5909 38.5232 89.8727 37.3248 90.5279 36.3336ZM93.0853 37.588C92.3425 38.4035 92.3646 39.4992 92.3858 40.5496C92.3912 40.8191 92.3966 41.0857 92.389 41.3437C93.6261 41.345 94.8632 41.3446 96.0998 41.3442C96.7179 41.344 97.3358 41.3437 97.9535 41.3437C97.9453 41.0805 97.9511 40.8086 97.957 40.534C97.979 39.5039 98.0019 38.4336 97.2871 37.6216C96.2829 36.3131 94.1082 36.2963 93.0853 37.588Z" fill="white"/>
</svg>
