<svg width="112" height="81" viewBox="0 0 112 81" fill="none" xmlns="http://www.w3.org/2000/svg">
<rect y="0.955322" width="112" height="80" rx="4" fill="white"/>
<g clip-path="url(#clip0_598_447)">
<mask id="mask0_598_447" style="mask-type:luminance" maskUnits="userSpaceOnUse" x="-47" y="-331" width="334" height="473">
<path d="M-46.6362 141.274H286.933V-330.487H-46.6362V141.274Z" fill="white"/>
</mask>
<g mask="url(#mask0_598_447)">
<path d="M10.2832 44.2829H11.3145C11.9031 44.2829 12.3785 44.3298 12.9028 44.9351C13.2738 45.3536 13.6816 46.2784 13.6816 47.7743C13.6816 48.3113 13.6855 48.843 13.5838 49.3894C13.4205 50.2512 13.0227 51.6327 10.748 51.6327C10.1393 51.6327 10.2832 51.6169 10.2832 51.6169V44.2839V44.2829ZM11.4531 52.9077C14.5146 52.9077 15.8853 51.5416 15.8853 47.8105C15.8853 46.8241 15.5954 45.1708 14.6767 44.1623C13.7265 43.1271 12.4977 42.9978 11.4598 42.9978H8.04736V52.9077H11.4531Z" fill="#046148"/>
<path d="M21.1153 50.3408C21.1153 50.6689 21.1059 51.1096 20.7578 51.4249C20.4658 51.682 20.0547 51.7015 19.898 51.7015C19.5096 51.7015 19.16 51.5603 19.0127 51.0801C18.9759 50.9288 18.9611 50.7762 18.9611 50.6301C18.9611 49.9063 19.4412 49.6016 19.9749 49.4717C20.2547 49.4069 20.443 49.3946 21.1153 49.3386L21.1153 50.3408ZM21.1153 48.4451L19.9998 48.5549C18.7978 48.6927 18.3377 48.8026 17.8235 49.1442C16.9931 49.7087 16.9824 50.5343 16.9824 50.8055C16.9824 51.4825 17.1879 51.9921 17.4679 52.2854C17.8368 52.7153 18.4214 52.8727 18.9859 52.8727C20.3701 52.8727 21.0303 52.2439 21.0303 52.2439L21.0398 52.6912H22.906V48.0031C22.906 47.4755 22.9186 46.7335 22.3134 46.2086C21.9967 45.9373 21.7194 45.8122 21.2909 45.7512C20.865 45.6747 20.717 45.6439 20.3018 45.6439C19.0429 45.6439 18.0934 45.8654 17.5524 46.8285C17.3201 47.2457 17.3321 47.6642 17.3321 47.9843H19.043C19.0587 47.7052 19.0713 47.3186 19.2894 47.0501C19.3998 46.8975 19.6583 46.6798 20.1371 46.6798C20.2932 46.6798 20.7465 46.6798 20.9775 47.0575C21.1062 47.2806 21.1169 47.5704 21.1169 47.8992V48.445L21.1153 48.4451Z" fill="#046148"/>
<path d="M35.9728 50.3408C35.9728 50.6689 35.9634 51.1096 35.6126 51.4249C35.3282 51.682 34.9155 51.7015 34.7488 51.7015C34.3631 51.7015 34.0189 51.5603 33.8696 51.0801C33.8321 50.9288 33.8214 50.7762 33.8214 50.6301C33.8214 49.9063 34.2988 49.6016 34.8352 49.4717C35.115 49.4069 35.3013 49.3946 35.9729 49.3386L35.9728 50.3408ZM35.9728 48.4451L34.862 48.5549C33.6526 48.6927 33.1993 48.8026 32.6816 49.1442C31.856 49.7087 31.8433 50.5343 31.8433 50.8055C31.8433 51.4825 32.0427 51.9921 32.32 52.2854C32.6944 52.7153 33.2823 52.8727 33.8441 52.8727C35.2316 52.8727 35.8905 52.2439 35.8905 52.2439L35.8999 52.6912H37.7595V48.0031C37.7595 47.4755 37.7752 46.7335 37.1736 46.2086C36.8568 45.9373 36.5743 45.8122 36.1511 45.7512C35.7232 45.6747 35.5772 45.6439 35.1594 45.6439C33.9011 45.6439 32.9536 45.8654 32.4092 46.8285C32.1801 47.2457 32.1949 47.6642 32.1949 47.9843H33.9011C33.9169 47.7052 33.9294 47.3186 34.1481 47.0501C34.2573 46.8975 34.5158 46.6798 34.9952 46.6798C35.1513 46.6798 35.6039 46.6798 35.8409 47.0575C35.9633 47.2806 35.974 47.5704 35.974 47.8992V48.445L35.9728 48.4451Z" fill="#046148"/>
<path d="M64.0879 52.6911H62.1406V48.4952C62.1406 48.2268 62.1406 48.003 62.1186 47.7747C62.0997 47.555 62.0368 46.8426 61.1879 46.8426C60.9629 46.8426 60.772 46.8983 60.6501 46.9499C60.0763 47.2129 60.0615 47.6791 60.0475 48.0494V52.6912H58.0962V45.8249H60.0475V46.6057C60.5376 46.1671 60.9809 45.687 62.0758 45.687C62.9952 45.687 63.4505 46.0432 63.6387 46.2635C64.0719 46.7503 64.0719 47.3818 64.0886 47.874V52.6912L64.0879 52.6911Z" fill="#046148"/>
<path d="M30.4108 52.6911H28.4648V48.4952C28.4648 48.2268 28.4648 48.003 28.4327 47.7747C28.4201 47.555 28.3537 46.8426 27.5 46.8426C27.2822 46.8426 27.0915 46.8983 26.9696 46.9499C26.3944 47.2129 26.3776 47.6791 26.3616 48.0494V52.6912H24.4116V45.8249H26.3616V46.6057C26.8611 46.1671 27.299 45.687 28.3925 45.687C29.3173 45.687 29.7646 46.0432 29.9581 46.2635C30.3954 46.7503 30.3954 47.3818 30.4108 47.874L30.4108 52.6911Z" fill="#046148"/>
<path d="M39.1904 45.8215H41.1397V46.6204C41.5141 46.2863 42.1743 45.6809 43.3448 45.6809C44.6841 45.6809 45.0564 46.4804 45.1474 46.7443C45.945 45.9729 46.4693 45.6809 47.2333 45.6809C47.6076 45.6809 47.8641 45.742 48.1119 45.8323C49.1619 46.2354 49.1846 47.1688 49.204 47.7742V52.6866H47.2206V48.2121C47.2111 47.726 47.1954 47.4508 47.0693 47.2351C47.0441 47.1794 46.8503 46.8374 46.3574 46.8374C46.1907 46.8374 45.8726 46.8777 45.7233 46.9598C45.1776 47.2203 45.1568 47.6736 45.1474 48.0413V52.6865H43.2149V48.2408C43.2149 47.7125 43.2212 46.8373 42.341 46.8373C42.1422 46.8373 41.796 46.8936 41.6252 46.988C41.1397 47.2872 41.1263 47.7259 41.1397 48.3366V52.6865H39.1904V45.8215Z" fill="#046148"/>
<path d="M54.9605 49.1095C54.9605 49.4992 54.9448 49.8735 54.9042 50.2512C54.8633 50.6302 54.7969 51.3923 54.2131 51.7123C54.0451 51.7926 53.8683 51.8347 53.6868 51.8347C52.5813 51.8347 52.4815 50.6749 52.4587 50.2511C52.4335 49.935 52.4137 49.6256 52.4137 49.3183C52.4137 49.0436 52.4326 48.662 52.4725 48.212C52.5122 47.8485 52.5931 47.1527 53.1556 46.8239C53.3478 46.7267 53.5326 46.6867 53.7475 46.6867C54.7968 46.6867 54.8919 47.7876 54.9167 48.2121C54.945 48.513 54.9605 48.8155 54.9605 49.1095ZM56.9482 49.1444C56.9482 48.535 56.9482 47.3946 56.2706 46.6205C55.453 45.6442 54.2825 45.6442 53.868 45.6442C53.3872 45.6442 52.2816 45.6631 51.4138 46.4505C50.4321 47.3256 50.4321 48.7232 50.4321 49.4303C50.4321 50.7722 50.7348 52.1912 52.4323 52.6867C52.9265 52.8374 53.189 52.8641 53.6865 52.8641C54.1519 52.8641 55.3157 52.8641 56.1802 51.9032C56.9482 51.0528 56.9482 49.7778 56.9482 49.1444Z" fill="#046148"/>
<path d="M23.1278 36.0034H41.1648L25.1675 31.0968L23.1278 32.1926L16.2051 33.979L23.1278 36.0034Z" fill="#EF9826"/>
<path d="M8.04736 29.003V36.0033H23.13V32.1925L8.04736 29.003Z" fill="#EB712D"/>
<path d="M41.1724 36.0034L23.1279 29.0032L23.1307 32.1926L41.1724 36.0034Z" fill="#FEC02B"/>
<path d="M103.353 49.1625V35.999H79.0588L74.0093 39.6393L79.0588 44.0258L103.353 49.1625Z" fill="#EF9826"/>
<path d="M79.0584 44.0259L72.4545 38.3323L41.1743 36.0084L79.0584 49.1706V44.0259Z" fill="#FEC02B"/>
<path d="M41.1665 35.9988V36.0051L79.0587 44.0239V36.0004H41.1665V35.9988Z" fill="#EB712D"/>
</g>
</g>
<defs>
<clipPath id="clip0_598_447">
<rect width="95.4008" height="24" fill="white" transform="translate(8 28.9553)"/>
</clipPath>
</defs>
</svg>
