<svg width="25" height="24" viewBox="0 0 25 24" fill="none" xmlns="http://www.w3.org/2000/svg">
<path fill-rule="evenodd" clip-rule="evenodd" d="M14.1347 20.7274V12.7661H16.8581L17.2666 9.66257H14.1347V7.6814C14.1347 6.78313 14.388 6.17096 15.7027 6.17096L17.3769 6.17029V3.39435C17.0874 3.35745 16.0935 3.27284 14.9368 3.27284C12.5215 3.27284 10.8679 4.71892 10.8679 7.37402V9.66257H8.13623V12.7661H10.8679V20.7274H14.1347Z" fill="#BBC3CF"/>
<mask id="mask0_444_3602" style="mask-type:luminance" maskUnits="userSpaceOnUse" x="8" y="3" width="10" height="18">
<path fill-rule="evenodd" clip-rule="evenodd" d="M14.1347 20.7274V12.7661H16.8581L17.2666 9.66257H14.1347V7.6814C14.1347 6.78313 14.388 6.17096 15.7027 6.17096L17.3769 6.17029V3.39435C17.0874 3.35745 16.0935 3.27284 14.9368 3.27284C12.5215 3.27284 10.8679 4.71892 10.8679 7.37402V9.66257H8.13623V12.7661H10.8679V20.7274H14.1347Z" fill="white"/>
</mask>
<g mask="url(#mask0_444_3602)">
</g>
</svg>
