<svg width="112" height="80" viewBox="0 0 112 80" fill="none" xmlns="http://www.w3.org/2000/svg">
<rect width="112" height="80" rx="4" fill="white"/>
<path fill-rule="evenodd" clip-rule="evenodd" d="M18.0585 30.6358C19.1207 30.4627 20.2105 30.4828 21.2777 30.5894C22.2671 30.7938 23.2653 31.022 24.1733 31.4797C26.0105 32.3563 27.5743 33.7772 28.6164 35.5266C29.4804 37.143 30.0749 38.9564 29.9858 40.8086C30.0109 44.6109 27.6019 48.2339 24.1896 49.8504C21.9774 50.9025 19.4041 51.0467 17.0402 50.4699C15.4413 49.9783 13.8988 49.1832 12.7338 47.9618C11.624 46.9322 10.7862 45.6204 10.2545 44.2084C9.56104 42.4715 9.49833 40.5403 9.79304 38.7106C10.3323 35.9931 12.0115 33.5013 14.3879 32.0566C15.494 31.328 16.7656 30.8953 18.0585 30.6358ZM16.6389 35.5153C15.8388 35.5968 14.9648 35.8777 14.5221 36.6C14.033 37.2919 13.982 38.1573 13.9335 38.9794C13.9295 39.0469 13.9256 39.1141 13.9214 39.1809C13.9114 39.3883 13.8929 39.5954 13.8744 39.8025V39.8025C13.837 40.2204 13.7996 40.6385 13.8323 41.0594C13.8567 41.3437 13.8739 41.6288 13.8911 41.914C13.9341 42.6267 13.9771 43.3396 14.1321 44.0391C14.3239 44.9207 15.1177 45.6041 15.9931 45.7647C17.6244 46.0588 19.2863 46.0329 20.9382 46.0072L20.9389 46.0072C21.0899 46.0049 21.2409 46.0025 21.3918 46.0004C22.0677 45.9628 22.7437 45.8938 23.4121 45.7872C24.4128 45.6568 25.2969 44.8417 25.4612 43.8384C25.7484 42.6082 25.7998 41.3391 25.7145 40.0838C25.554 39.2787 24.9846 38.5526 24.2109 38.2579C23.8623 38.0895 23.4756 38.0905 23.0963 38.0915C23.0295 38.0917 22.9628 38.0919 22.8966 38.0911C22.1506 38.092 21.4045 38.0916 20.6585 38.0912H20.6584C19.353 38.0905 18.0478 38.0897 16.743 38.0961C16.593 38.0989 16.453 38.0476 16.3143 37.9967L16.3143 37.9967C16.2628 37.9779 16.2115 37.9591 16.1599 37.9431C16.1561 37.6622 16.1661 37.2421 16.5436 37.2346C17.5265 37.2124 18.5103 37.2189 19.494 37.2255C20.7897 37.2341 22.0851 37.2427 23.3782 37.1857C23.2377 36.5336 22.8402 35.8526 22.1555 35.672C21.5373 35.5065 20.8977 35.4225 20.2619 35.3635C20.0805 35.3613 19.8989 35.3578 19.7171 35.3543C18.6872 35.3346 17.6526 35.3149 16.6389 35.5153ZM23.6416 40.993C23.3117 40.9039 22.9167 41.0344 22.8013 41.3742C22.7289 41.7654 22.8449 42.1424 22.9602 42.5168C23.0086 42.6741 23.0569 42.8309 23.091 42.9882C23.1286 43.0101 23.185 43.0427 23.2415 43.0753C23.2979 43.1079 23.3544 43.1405 23.392 43.1625C23.5212 43.0873 23.6528 43.0195 23.7895 42.9606C23.8043 42.6296 23.884 42.3113 23.9638 41.9931C23.9991 41.852 24.0345 41.7108 24.0642 41.5686C24.0027 41.3341 23.8485 41.1196 23.6416 40.993Z" fill="#01ACD7"/>
<path fill-rule="evenodd" clip-rule="evenodd" d="M42.8697 33.7609C41.9028 33.3821 40.8293 33.4248 39.8161 33.5502C37.624 33.8888 35.7002 35.5617 35.0506 37.6823C34.7559 38.5225 34.7622 39.4292 34.84 40.3058C35.1021 42.548 36.7888 44.5169 38.9294 45.2028C40.4468 45.6618 42.1975 45.6769 43.5983 44.8555C43.7812 44.7543 43.9474 44.6293 44.1136 44.5042L44.1136 44.5042L44.1136 44.5042L44.1136 44.5042L44.1136 44.5041C44.2687 44.3874 44.4239 44.2707 44.5927 44.1733L44.5953 44.2898C44.6161 45.2141 44.6396 46.2594 43.9381 46.9573C43.4679 47.5316 42.7568 47.8338 42.0382 47.9442C40.4845 48.2289 38.8417 47.6984 37.6867 46.635C37.4299 46.8965 37.1609 47.1463 36.8919 47.3961C36.4567 47.8003 36.0217 48.2044 35.6388 48.6578C36.8477 49.8015 38.3789 50.6266 40.0393 50.8461C41.662 51.0505 43.4077 50.9514 44.8536 50.1175C46.08 49.4365 47.0457 48.274 47.4244 46.9184C47.6595 46.2429 47.6563 45.5212 47.6531 44.8153L47.6526 44.6962C47.6514 40.9579 47.6514 37.2208 47.6526 33.4825C47.065 33.4752 46.4774 33.4755 45.8898 33.4758C45.4654 33.4761 45.041 33.4763 44.6166 33.4737C44.6169 33.5764 44.6174 33.679 44.618 33.7817C44.6199 34.1155 44.6217 34.4492 44.6141 34.7829C44.0911 34.3553 43.513 33.9778 42.8697 33.7609ZM39.0185 37.0189C39.5213 36.5724 40.1885 36.4019 40.8394 36.3053C42.1348 36.1084 43.592 36.7016 44.2554 37.8616C44.5229 38.3316 44.5118 38.8628 44.5008 39.3891V39.3891V39.3891V39.3891V39.3891C44.4969 39.5733 44.4931 39.7569 44.5012 39.9371C44.6103 41.0431 43.7488 42.0188 42.7618 42.395C41.5692 42.844 40.0982 42.8741 39.0573 42.0451C37.4973 40.8751 37.466 38.2052 39.0185 37.0189ZM69.5133 33.4762C68.2166 33.4674 66.8647 33.8549 65.9305 34.7904C65.9222 34.6712 65.9145 34.5521 65.9067 34.4331L65.9067 34.4321L65.9066 34.4317C65.8932 34.226 65.8799 34.0207 65.864 33.816C64.8432 33.8035 63.8224 33.7997 62.8016 33.816C62.803 36.911 62.8028 40.006 62.8026 43.101C62.8025 45.4223 62.8023 47.7436 62.8029 50.0648C63.5201 50.111 64.2391 50.107 64.9579 50.103H64.9579H64.958H64.958H64.958H64.9581H64.9581H64.9582H64.9582C65.2925 50.1011 65.6266 50.0992 65.9606 50.1024C65.9839 48.6684 65.9787 47.2337 65.9735 45.7988L65.9735 45.7965L65.9735 45.7941L65.9735 45.7917L65.9735 45.7894C65.9718 45.3025 65.97 44.8156 65.9694 44.3288C68.2216 46.1183 71.807 45.9214 73.8323 43.8685C76.0369 41.6576 76.1636 37.7174 74.0404 35.4099C72.9231 34.1258 71.2075 33.416 69.5133 33.4762ZM66.1173 38.1312C66.4471 37.1393 67.4554 36.5474 68.4348 36.353C69.4443 36.1486 70.573 36.4031 71.353 37.0904C72.6748 38.2918 72.6848 40.6005 71.4383 41.8583C70.188 43.0684 67.9758 43.0459 66.7331 41.8357C66.2039 41.3679 65.9267 40.6356 65.9731 39.9358C65.9835 39.7514 65.9786 39.5642 65.9736 39.3769V39.3768V39.3768V39.3767V39.3767C65.9624 38.9527 65.9512 38.5278 66.1173 38.1312ZM53.6445 33.6304C55.4265 33.2718 57.3766 33.4875 58.9278 34.4794C60.1079 35.1917 61.0058 36.3467 61.4071 37.6647C61.9576 39.3966 61.7106 41.378 60.6797 42.8854C59.6552 44.404 57.9058 45.3345 56.0999 45.5088C54.9876 45.5841 53.8376 45.5465 52.7855 45.1414C51.0423 44.5558 49.5801 43.1174 49.066 41.3404C48.5142 39.675 48.77 37.7688 49.7156 36.294C50.5909 34.9146 52.0581 33.9728 53.6445 33.6304ZM54.3907 36.3693C53.9467 36.4959 53.5316 36.7167 53.168 36.9988C51.9089 37.9908 51.6017 39.9521 52.4983 41.2802C53.5229 42.9694 56.1664 43.303 57.5534 41.8884C58.2318 41.2651 58.5541 40.3346 58.4638 39.4229C58.5403 37.4014 56.2981 35.7724 54.3907 36.3693ZM83.501 33.5514C81.6764 33.3119 79.7 33.5665 78.1863 34.6813C77.3123 35.3761 76.5649 36.3317 76.4169 37.4678C76.8526 37.5425 77.2848 37.6367 77.717 37.731C78.28 37.8537 78.843 37.9765 79.4141 38.056C79.6611 37.064 80.5214 36.2752 81.5309 36.1122C82.1843 35.9993 82.864 36.0332 83.4998 36.2263C84.0553 36.4069 84.4779 37.0151 84.2346 37.5945C83.7815 38.0077 83.165 38.1326 82.5777 38.2516C82.502 38.267 82.4267 38.2823 82.3523 38.298C82.2509 38.3126 82.1491 38.3269 82.047 38.3414L82.0466 38.3414C80.5558 38.552 79.006 38.7709 77.7374 39.6323C76.1686 40.7296 76.1623 43.3117 77.6132 44.5106C78.8109 45.5402 80.4976 45.6581 81.9999 45.4587C83.0395 45.2643 84.0867 44.8141 84.7501 43.9576C84.7538 44.1689 84.7538 44.3802 84.7538 44.5916C84.7538 44.8031 84.7538 45.0147 84.7576 45.2267C84.9865 45.2264 85.2155 45.2256 85.4445 45.2249C86.1704 45.2226 86.897 45.2202 87.6244 45.2317C87.6272 43.8166 87.6268 42.4019 87.6264 40.9873V40.9824V40.9736V40.9736C87.6261 39.9144 87.6258 38.8554 87.6269 37.7964C87.6381 36.9349 87.3234 36.0959 86.8493 35.3861C86.0794 34.3051 84.7726 33.7596 83.501 33.5514ZM79.5533 42.1342C79.3877 41.7417 79.7075 41.3542 80.0273 41.161C80.6722 40.8056 81.3982 40.673 82.1227 40.5406C82.9958 40.3811 83.867 40.222 84.5921 39.6737C84.5852 39.8459 84.5907 40.0262 84.5963 40.209C84.6151 40.8261 84.6348 41.4717 84.182 41.9323C83.3066 42.8051 81.9736 42.9656 80.796 42.8904C80.3069 42.8615 79.6636 42.6922 79.5533 42.1342ZM88.8867 33.8073C88.5495 33.8079 88.2123 33.8085 87.8752 33.8085C88.7648 35.6673 89.6741 37.5168 90.5835 39.3664C91.4367 41.1018 92.29 42.8374 93.1271 44.5808C92.7156 45.4855 92.2683 46.3737 91.8209 47.2617C91.348 48.2005 90.8752 49.1392 90.4447 50.0974C90.807 50.0959 91.1695 50.0986 91.5321 50.1014C92.3381 50.1076 93.1446 50.1139 93.9498 50.0723C96.5921 44.6573 99.2319 39.2423 101.869 33.8248C100.684 33.7947 99.5002 33.7997 98.3164 33.8198C97.1802 36.3141 96.0303 38.8034 94.874 41.2877C94.5331 40.5515 94.1885 39.8169 93.844 39.0824C93.2812 37.8826 92.7184 36.6829 92.1716 35.4764C92.084 35.28 91.9875 35.0874 91.891 34.895C91.714 34.5418 91.5371 34.1889 91.4154 33.8123C90.5725 33.8042 89.7296 33.8057 88.8867 33.8073Z" fill="#010101"/>
</svg>
