<svg width="25" height="24" viewBox="0 0 25 24" fill="none" xmlns="http://www.w3.org/2000/svg">
<path fill-rule="evenodd" clip-rule="evenodd" d="M8.10045 2.18195H16.899C19.8871 2.18195 22.3181 4.61294 22.318 7.60087V16.3994C22.318 19.3873 19.8871 21.8183 16.899 21.8183H8.10045C5.11252 21.8183 2.68164 19.3874 2.68164 16.3994V7.60087C2.68164 4.61294 5.11252 2.18195 8.10045 2.18195ZM16.8991 20.0761C18.9265 20.0761 20.5759 18.4268 20.5759 16.3994H20.5758V7.60087C20.5758 5.57361 18.9263 3.92418 16.899 3.92418H8.10045C6.07319 3.92418 4.42387 5.57361 4.42387 7.60087V16.3994C4.42387 18.4268 6.07319 20.0762 8.10045 20.0761H16.8991ZM7.35696 12.0002C7.35696 9.16437 9.66401 6.85727 12.4998 6.85727C15.3356 6.85727 17.6427 9.16437 17.6427 12.0002C17.6427 14.836 15.3356 17.143 12.4998 17.143C9.66401 17.143 7.35696 14.836 7.35696 12.0002ZM9.1278 12.0001C9.1278 13.8594 10.6406 15.372 12.4998 15.372C14.3591 15.372 15.8718 13.8594 15.8718 12.0001C15.8718 10.1407 14.3592 8.62803 12.4998 8.62803C10.6404 8.62803 9.1278 10.1407 9.1278 12.0001Z" fill="#BBC3CF"/>
<mask id="mask0_444_3604" style="mask-type:luminance" maskUnits="userSpaceOnUse" x="2" y="2" width="21" height="20">
<path fill-rule="evenodd" clip-rule="evenodd" d="M8.10045 2.18195H16.899C19.8871 2.18195 22.3181 4.61294 22.318 7.60087V16.3994C22.318 19.3873 19.8871 21.8183 16.899 21.8183H8.10045C5.11252 21.8183 2.68164 19.3874 2.68164 16.3994V7.60087C2.68164 4.61294 5.11252 2.18195 8.10045 2.18195ZM16.8991 20.0761C18.9265 20.0761 20.5759 18.4268 20.5759 16.3994H20.5758V7.60087C20.5758 5.57361 18.9263 3.92418 16.899 3.92418H8.10045C6.07319 3.92418 4.42387 5.57361 4.42387 7.60087V16.3994C4.42387 18.4268 6.07319 20.0762 8.10045 20.0761H16.8991ZM7.35696 12.0002C7.35696 9.16437 9.66401 6.85727 12.4998 6.85727C15.3356 6.85727 17.6427 9.16437 17.6427 12.0002C17.6427 14.836 15.3356 17.143 12.4998 17.143C9.66401 17.143 7.35696 14.836 7.35696 12.0002ZM9.1278 12.0001C9.1278 13.8594 10.6406 15.372 12.4998 15.372C14.3591 15.372 15.8718 13.8594 15.8718 12.0001C15.8718 10.1407 14.3592 8.62803 12.4998 8.62803C10.6404 8.62803 9.1278 10.1407 9.1278 12.0001Z" fill="white"/>
</mask>
<g mask="url(#mask0_444_3604)">
</g>
</svg>
