<svg width="24" height="24" viewBox="0 0 24 24" fill="none" xmlns="http://www.w3.org/2000/svg">
<rect x="0.5" y="0.5" width="23" height="23" rx="11.5" fill="#F9FAFF"/>
<path d="M15.6715 11.9588V13.8331H8.51243V11.9588H15.6715ZM12.092 17.0249C11.7307 17.0249 11.4225 16.8973 11.1673 16.642C10.912 16.3868 10.7844 16.0786 10.7844 15.7173C10.7844 15.3594 10.912 15.0545 11.1673 14.8026C11.4225 14.5507 11.7307 14.4247 12.092 14.4247C12.4499 14.4247 12.7548 14.5507 13.0067 14.8026C13.2586 15.0545 13.3846 15.3594 13.3846 15.7173C13.3846 16.0786 13.2586 16.3868 13.0067 16.642C12.7548 16.8973 12.4499 17.0249 12.092 17.0249ZM12.092 11.3622C11.8533 11.3622 11.6346 11.3042 11.4357 11.1882C11.2369 11.0689 11.0778 10.9115 10.9584 10.7159C10.8424 10.517 10.7844 10.2966 10.7844 10.0547C10.7844 9.69673 10.912 9.39347 11.1673 9.14489C11.4258 8.89299 11.734 8.76705 12.092 8.76705C12.4499 8.76705 12.7548 8.89299 13.0067 9.14489C13.2586 9.39347 13.3846 9.69673 13.3846 10.0547C13.3846 10.416 13.2586 10.7242 13.0067 10.9794C12.7548 11.2346 12.4499 11.3622 12.092 11.3622Z" fill="#797979"/>
<rect x="0.5" y="0.5" width="23" height="23" rx="11.5" stroke="#D4D5D8"/>
</svg>
