<svg width="112" height="80" viewBox="0 0 112 80" fill="none" xmlns="http://www.w3.org/2000/svg">
<rect width="112" height="80" rx="6.4" fill="white"/>
<g clip-path="url(#clip0_554_2287)">
<path d="M48.6953 31.7324H50.5074V40.4517H53.6311V42.1728H48.7029L48.6953 31.7324Z" fill="#000083"/>
<path d="M57.8287 34.3481C58.7887 34.3361 59.6988 34.7737 60.2892 35.5309V34.5036H61.9798V42.1879H60.2892V41.1606C59.6988 41.9177 58.7887 42.3554 57.8287 42.3433C55.7209 42.3433 54.1211 40.5426 54.1211 38.3439C54.1211 36.1451 55.7209 34.3481 57.8287 34.3481ZM58.1359 35.8873C56.7673 35.8873 55.8611 36.9639 55.8611 38.3439C55.8611 39.7238 56.7823 40.8042 58.1359 40.8042C59.4893 40.8042 60.4105 39.7276 60.4105 38.3439C60.4105 36.9601 59.5043 35.8873 58.1359 35.8873Z" fill="#000083"/>
<path d="M63.2939 40.8535L67.3238 36.0389H63.3545V34.5035H69.5073V35.8569L65.4927 40.6525H69.5983V42.1879H63.2939V40.8535Z" fill="#000083"/>
<path d="M73.8973 34.3481C74.8571 34.3361 75.7675 34.7737 76.3576 35.5309V34.5036H78.0485V42.1879H76.3576V41.1606C75.7675 41.9177 74.8571 42.3554 73.8973 42.3433C71.7896 42.3433 70.1934 40.5426 70.1934 38.3439C70.1934 36.1451 71.7896 34.3481 73.8973 34.3481ZM74.2043 35.8873C72.8357 35.8873 71.9297 36.9639 71.9297 38.3439C71.9297 39.7238 72.8509 40.8042 74.2043 40.8042C75.5577 40.8042 76.4789 39.7276 76.4789 38.3439C76.4789 36.9601 75.5729 35.8873 74.2043 35.8873Z" fill="#000083"/>
<path d="M82.8795 34.3481C83.8384 34.3355 84.7477 34.7734 85.3361 35.5309V31.1144H87.0267V42.1879H85.3361V41.1605C84.7477 41.918 83.8384 42.3559 82.8795 42.3433C80.7717 42.3433 79.1719 40.5426 79.1719 38.3438C79.1719 36.145 80.7717 34.3481 82.8795 34.3481ZM83.1864 35.8872C81.8178 35.8872 80.9119 36.9639 80.9119 38.3438C80.9119 39.7237 81.837 40.8042 83.1864 40.8042C84.5362 40.8042 85.461 39.7275 85.461 38.3438C85.461 36.9601 84.5551 35.8872 83.1864 35.8872Z" fill="#000083"/>
<path d="M91.8557 34.3481C92.8147 34.3355 93.7242 34.7734 94.3123 35.5309V34.5035H95.9993V42.1879H94.3049V41.1605C93.7164 41.918 92.8072 42.3559 91.8482 42.3433C89.7405 42.3433 88.1406 40.5426 88.1406 38.3438C88.1406 36.145 89.748 34.3481 91.8557 34.3481ZM92.163 35.8872C90.7943 35.8872 89.8881 36.9639 89.8881 38.3438C89.8881 39.7237 90.8132 40.8042 92.163 40.8042C93.5124 40.8042 94.4375 39.7275 94.4375 38.3438C94.4375 36.9601 93.5313 35.8872 92.163 35.8872Z" fill="#000083"/>
<path d="M28.9157 49.7632C28.7324 49.7644 28.5519 49.7175 28.3924 49.6271C27.0267 48.8369 16.9114 42.4947 16.5294 42.301C16.2387 42.1654 16.0402 41.8874 16.0061 41.5684V32.6725C15.9986 32.3404 16.1627 32.0279 16.4404 31.8457L16.5137 31.8038C17.4923 31.1968 20.768 29.1978 21.2861 28.91C21.405 28.8395 21.5404 28.8015 21.6786 28.8001C21.8082 28.8016 21.9355 28.8339 22.0501 28.8943C22.0501 28.8943 26.6342 31.8823 27.3354 32.1492C27.8274 32.3752 28.3639 32.4879 28.9053 32.4789C29.5187 32.4917 30.1249 32.3437 30.6635 32.0498C31.349 31.6887 35.729 28.91 35.7761 28.91C35.8865 28.8433 36.0134 28.8089 36.1424 28.8106C36.2807 28.8113 36.4163 28.8492 36.5348 28.9205C37.1314 29.2501 41.1921 31.7358 41.3648 31.8457C41.6504 32.018 41.8236 32.3285 41.8201 32.662V41.558C41.7881 41.8778 41.5889 42.1566 41.2968 42.2906C40.9148 42.4999 30.831 48.8422 29.439 49.6167C29.2805 49.7107 29.1 49.7613 28.9157 49.7632Z" fill="url(#paint0_linear_554_2287)"/>
<path d="M28.8633 49.7632L28.9156 49.7631C29.0989 49.7644 29.2794 49.7175 29.4389 49.6271C30.8047 48.8369 40.9147 42.4946 41.2967 42.301C41.5888 42.167 41.7879 41.8882 41.82 41.5684V32.6724C41.8217 32.5218 41.7876 32.373 41.7206 32.2381L28.8633 39.2973V49.7632Z" fill="url(#paint1_linear_554_2287)"/>
<path d="M28.8184 49.6377L28.7666 49.6377C28.5852 49.6389 28.4067 49.5925 28.2489 49.5031C26.8976 48.7213 16.8953 42.4466 16.5174 42.255C16.2284 42.1224 16.0314 41.8466 15.9997 41.5302V32.729C15.998 32.58 16.0317 32.4328 16.0981 32.2993L28.8184 39.2833V49.6377Z" fill="url(#paint2_linear_554_2287)"/>
</g>
<defs>
<linearGradient id="paint0_linear_554_2287" x1="15.9902" y1="28.9917" x2="41.5671" y2="28.7936" gradientUnits="userSpaceOnUse">
<stop offset="1e-07" stop-color="#FF9200"/>
<stop offset="0.337553" stop-color="#F36D00"/>
<stop offset="0.56729" stop-color="#F83C72"/>
<stop offset="0.78" stop-color="#FC1CBE"/>
<stop offset="0.93" stop-color="#FE08ED"/>
<stop offset="1" stop-color="#FF00FF"/>
</linearGradient>
<linearGradient id="paint1_linear_554_2287" x1="23.1754" y1="47.5755" x2="49.2523" y2="33.137" gradientUnits="userSpaceOnUse">
<stop stop-color="#EE0A3F"/>
<stop offset="1" stop-color="#EE0A3F" stop-opacity="0"/>
</linearGradient>
<linearGradient id="paint2_linear_554_2287" x1="25.7128" y1="43.8127" x2="13.1119" y2="33.662" gradientUnits="userSpaceOnUse">
<stop stop-color="#ED6600"/>
<stop offset="1" stop-color="#F98200"/>
</linearGradient>
<clipPath id="clip0_554_2287">
<rect width="80" height="20.9631" fill="white" transform="translate(16 28.8)"/>
</clipPath>
</defs>
</svg>
