<svg width="25" height="24" viewBox="0 0 25 24" fill="none" xmlns="http://www.w3.org/2000/svg">
<path d="M19.7 3.00012H5.3C4.31 3.00012 3.5 3.81012 3.5 4.80012V19.2001C3.5 20.1901 4.31 21.0001 5.3 21.0001H19.7C20.69 21.0001 21.5 20.1901 21.5 19.2001V4.80012C21.5 3.81012 20.69 3.00012 19.7 3.00012ZM8.9 18.3001H6.2V10.2001H8.9V18.3001ZM7.55 8.67012C6.65 8.67012 5.93 7.95012 5.93 7.05012C5.93 6.15012 6.65 5.43012 7.55 5.43012C8.45 5.43012 9.17 6.15012 9.17 7.05012C9.17 7.95012 8.45 8.67012 7.55 8.67012ZM18.8 18.3001H16.1V13.5301C16.1 12.8102 15.47 12.1801 14.75 12.1801C14.03 12.1801 13.4 12.8102 13.4 13.5301V18.3001H10.7V10.2001H13.4V11.2801C13.85 10.5601 14.84 10.0201 15.65 10.0201C17.36 10.0201 18.8 11.4601 18.8 13.1701V18.3001Z" fill="#BBC3CF"/>
</svg>
