<svg width="112" height="80" viewBox="0 0 112 80" fill="none" xmlns="http://www.w3.org/2000/svg">
<rect width="112" height="80" rx="4" fill="#E82529"/>
<path fill-rule="evenodd" clip-rule="evenodd" d="M49.602 12.8602C50.1653 12.7444 50.7868 12.7813 51.2803 13.0991C51.9371 13.4981 52.2943 14.2921 52.2302 15.0491C52.1145 16.4162 51.0151 17.6494 49.6579 17.8867C49.0297 18.0025 48.3442 17.8629 47.8474 17.4499C47.3564 17.0558 47.0822 16.4162 47.1232 15.7889C47.2316 14.4317 48.2292 13.1204 49.602 12.8602ZM70.3773 13.6032C70.8628 13.5615 71.3527 13.5677 71.8425 13.574C72.1421 13.5778 72.4418 13.5817 72.7403 13.5745C73.0001 13.5762 73.2599 13.5752 73.5197 13.5743C73.8888 13.5729 74.258 13.5715 74.6271 13.5778C74.7955 13.5605 74.9433 13.7272 74.9006 13.8931C74.4217 17.3738 73.9391 20.8542 73.4566 24.3345C73.0812 27.0419 72.7059 29.7491 72.3323 32.4564L72.331 32.4649C72.3116 32.5905 72.2882 32.7418 72.1549 32.7988C72.0352 32.8301 71.9119 32.8288 71.7893 32.8276C71.7479 32.8272 71.7066 32.8267 71.6656 32.8276C71.0493 32.8247 70.4329 32.8253 69.8167 32.8259H69.8158C69.1993 32.8265 68.5829 32.8271 67.9667 32.8243C67.7647 32.8546 67.5931 32.6543 67.6506 32.4597C68.1632 28.7362 68.6793 25.0134 69.1955 21.2905C69.5375 18.8237 69.8795 16.3568 70.2205 13.8898C70.2345 13.7806 70.2624 13.6492 70.3773 13.6032ZM35.0814 14.3129C34.4739 14.3067 33.8662 14.3004 33.2621 14.3422C33.065 14.4021 32.9353 14.5959 32.923 14.7971C32.5761 17.3963 32.2304 19.9957 31.8848 22.5953L31.8845 22.597L31.8845 22.5977L31.8844 22.5984L31.8843 22.5991L31.8842 22.5997L31.8841 22.6004L31.884 22.6011L31.8839 22.6018L31.8838 22.6024L31.8837 22.6031L31.8836 22.6038C31.6145 24.6279 31.3454 26.6521 31.0756 28.6763C30.9968 29.2297 31.0584 29.806 31.2718 30.3241C31.9303 31.9301 33.6743 32.9244 35.3763 32.917L36.1572 32.9176C38.499 32.9191 40.8413 32.9207 43.183 32.9162C43.3964 32.9285 43.5869 32.7496 43.5968 32.5377C43.64 32.2461 43.6835 31.9545 43.727 31.6627L43.7277 31.6576L43.7278 31.6574C43.8634 30.7476 43.9991 29.8374 44.1264 28.9267C44.1732 28.7091 43.9597 28.5244 43.7503 28.5564C42.8619 28.5554 41.9735 28.556 41.085 28.5565H41.0833C39.6758 28.5573 38.2683 28.5581 36.8608 28.5531C36.3714 28.5753 35.9486 28.0909 36.0438 27.6089C36.3459 25.4884 36.6534 23.3686 36.9608 21.2487L36.961 21.2476C37.2685 19.1274 37.5759 17.0073 37.8781 14.8865C37.9315 14.6164 37.7139 14.3348 37.4396 14.3225C37.1839 14.3078 36.9276 14.3103 36.6712 14.3128H36.6712H36.6712H36.6712H36.6711H36.6711H36.6711H36.6711H36.6711H36.6711H36.6711C36.5126 14.3144 36.3541 14.316 36.1957 14.3134C35.8249 14.3206 35.4532 14.3168 35.0814 14.3129ZM56.6295 18.8112C58.077 18.6495 59.536 18.638 60.9918 18.6281C62.3449 18.6363 63.7678 18.9442 64.8237 19.8375C65.7892 20.6389 66.3147 21.8705 66.4215 23.1029C66.4974 23.7887 66.4046 24.471 66.312 25.151C66.2856 25.3454 66.2592 25.5396 66.2367 25.7336C65.9915 27.58 65.7156 29.4219 65.4397 31.2635C65.384 31.6354 65.3283 32.0073 65.2728 32.3793C65.2646 32.6313 65.0273 32.821 64.7802 32.7873C64.2907 32.7857 63.8012 32.7865 63.3118 32.7873C62.5647 32.7886 61.8177 32.7898 61.0706 32.7824C60.7882 32.784 60.5862 32.4811 60.6593 32.2167L60.778 31.3826L60.778 31.3822L60.778 31.3819L60.7781 31.3816L60.7781 31.3813L60.7782 31.381L60.7782 31.3807L60.7783 31.3804L60.7783 31.3801L60.7784 31.3798C60.9844 29.9309 61.1905 28.4814 61.4122 27.0341C61.4453 26.8039 61.4818 26.5739 61.5183 26.3438L61.5184 26.3434C61.6333 25.62 61.7483 24.8957 61.757 24.1621L61.7562 24.1219C61.7477 23.7014 61.7381 23.2281 61.4286 22.9075C61.0788 22.5503 60.5698 22.4116 60.0878 22.3516C59.4638 22.2769 58.834 22.3393 58.2174 22.4403L57.7105 26.0128C57.3932 28.2487 57.0758 30.4846 56.7592 32.7208C56.0293 32.0968 55.0711 31.6945 54.099 31.8012C53.383 31.825 52.7377 32.1658 52.1432 32.5344C52.2329 31.9185 52.3224 31.3025 52.4118 30.6865L52.4119 30.6862L52.4119 30.6859L52.4119 30.6859L52.4119 30.6858L52.4119 30.6858L52.4119 30.6858L52.4119 30.6857L52.4119 30.6857L52.412 30.6857C52.7753 28.1836 53.1387 25.6819 53.5168 23.1817C53.5531 22.9636 53.5868 22.7448 53.6204 22.526L53.6204 22.5259L53.6205 22.5257L53.6205 22.5256L53.6205 22.5254L53.6205 22.5253L53.6206 22.5252L53.6206 22.525L53.6206 22.5249L53.6206 22.5247C53.7156 21.9072 53.8106 21.2892 53.9651 20.6832C54.0899 20.2136 54.287 19.7259 54.6918 19.4278C55.243 19.0083 55.9538 18.9073 56.6215 18.8124L56.6295 18.8112ZM47.3317 18.9753C47.2104 18.9747 47.0887 18.9742 46.9722 19.0083C46.7768 19.0764 46.6618 19.2735 46.6478 19.4722C46.4092 21.1871 46.169 22.9018 45.9288 24.6166L45.9281 24.6221L45.9278 24.6241C45.5658 27.2081 45.2039 29.7922 44.8473 32.3768C44.7906 32.6018 45.0008 32.8169 45.2258 32.7857C46.4877 32.7881 47.7497 32.789 49.0117 32.7857C49.322 32.8037 49.5725 32.5246 49.579 32.2249C49.8349 30.399 50.0922 28.5733 50.3496 26.7475L50.35 26.7445C50.6872 24.3521 51.0245 21.9596 51.3583 19.5666C51.4215 19.2842 51.1932 18.9795 50.9001 18.982C50.2666 18.9739 49.6331 18.9752 48.9996 18.9765C48.4828 18.9776 47.966 18.9787 47.4492 18.9746C47.4102 18.9756 47.371 18.9754 47.3317 18.9753ZM78.3925 19.3925C78.551 19.1947 78.7973 19.0772 79.0518 19.0879C79.4844 19.0882 79.917 19.0875 80.3497 19.0867H80.3497H80.3498H80.3499H80.3499H80.35H80.3501H80.3501H80.3502H80.3503H80.3503H80.3504H80.3505H80.3506H80.3506C81.2884 19.0852 82.2262 19.0836 83.1637 19.092C83.4683 19.083 83.6005 19.505 83.3723 19.6922C82.1433 21.0556 80.9118 22.4165 79.6802 23.7776L79.68 23.7778L79.6799 23.778L79.6797 23.7782L79.6795 23.7784L79.6794 23.7785L79.6792 23.7787L79.6791 23.7789L78.5888 24.984C78.9985 25.8621 79.4084 26.7402 79.8183 27.6184L79.8215 27.6251C80.8719 29.8753 81.9224 32.1257 82.9699 34.3777C83.1727 34.7086 82.8969 35.1807 82.5077 35.1544C81.2736 35.1594 80.0388 35.1585 78.8047 35.1553C78.5658 35.1733 78.3671 35.0017 78.2866 34.7882C77.4659 33.0034 76.6437 31.2191 75.8215 29.4347C75.118 27.9078 74.4144 26.3808 73.7117 24.8534C74.5495 23.8773 75.3863 22.9005 76.2231 21.9237L76.2244 21.9222L76.2256 21.9207L76.2282 21.9177L76.2321 21.9132L76.2372 21.9072L76.245 21.8981C76.9607 21.0627 77.6764 20.2274 78.3925 19.3925ZM55.4677 33.7143C54.9964 33.431 54.4184 33.3957 53.888 33.4959C52.4757 33.7381 51.4404 35.092 51.3558 36.4854C51.3361 37.0371 51.5529 37.5946 51.9519 37.9772C52.4232 38.4411 53.1178 38.6415 53.7681 38.5495C55.1902 38.3714 56.3643 37.0839 56.4669 35.6635C56.5236 34.8974 56.1434 34.0986 55.4677 33.7143ZM40.4493 34.9649C40.1087 34.9624 39.7647 34.96 39.4356 35.0592C38.8018 35.2407 38.2763 35.7259 38.021 36.3318C37.1168 38.3357 36.2123 40.3394 35.3077 42.3431C33.7019 45.9001 32.0961 49.4572 30.4926 53.015C30.3366 53.267 30.5665 53.6086 30.8572 53.5651C32.1471 53.5626 33.437 53.5536 34.7269 53.5429C34.9962 53.552 35.2606 53.3918 35.3648 53.1414C35.5861 52.6345 35.8022 52.1253 36.0183 51.6161L36.0184 51.6159C36.2345 51.1066 36.4507 50.5974 36.672 50.0904C36.7146 49.9327 36.8863 49.9171 37.0234 49.9245C37.6803 49.9263 38.3375 49.9258 38.9946 49.9253H38.9965C39.872 49.9246 40.7476 49.9239 41.623 49.9286C41.7551 49.913 41.8808 50.0132 41.8824 50.1487C41.9376 50.6527 41.9858 51.1575 42.0339 51.6622C42.0775 52.1185 42.121 52.5748 42.1698 53.0306C42.1919 53.3705 42.5081 53.6472 42.8472 53.63C43.2128 53.63 43.5784 53.6305 43.9441 53.631H43.9442H43.9443H43.9444L43.9522 53.631C44.8732 53.6324 45.7944 53.6337 46.7152 53.6267C47.0346 53.63 47.2801 53.29 47.1963 52.9854C46.5985 49.4041 45.9976 45.8228 45.3967 42.2415L45.3959 42.237L45.3946 42.2292L45.394 42.2255L45.3934 42.2219L45.3928 42.2182L45.3921 42.2146L45.3915 42.2109L45.3909 42.2073C45.0579 40.2225 44.7249 38.2378 44.3924 36.253C44.2873 35.5477 43.6411 34.9771 42.926 34.9689C42.4669 34.963 42.0072 34.9642 41.5475 34.9653H41.5475H41.5475H41.5474H41.5474H41.5474H41.5474C41.2408 34.9661 40.9343 34.9669 40.6278 34.9656C40.5689 34.9657 40.5099 34.9653 40.4507 34.9649H40.4504H40.4502H40.45H40.4497H40.4495H40.4493ZM39.4099 43.4413C39.8245 42.3855 40.2391 41.3297 40.6722 40.282C40.76 40.2015 40.8799 40.3041 40.8553 40.4101L40.9109 41.0138C41.0567 42.5961 41.2027 44.1789 41.3389 45.7617C41.3742 45.9309 41.2157 46.0721 41.0531 46.054C40.7802 46.0532 40.507 46.0545 40.2338 46.0558H40.2336H40.2335H40.2334H40.2333H40.2332H40.2331H40.2325H40.2322C39.6626 46.0584 39.0927 46.0611 38.5243 46.045C38.3993 45.9909 38.4495 45.8666 38.4906 45.7646L38.4907 45.7646C38.5001 45.7413 38.509 45.7192 38.5152 45.6993C38.8177 44.9491 39.1135 44.1958 39.4094 43.4426L39.4094 43.4423L39.4095 43.4421L39.4096 43.4419L39.4097 43.4417L39.4098 43.4415L39.4099 43.4413ZM74.6649 37.2198C74.4684 37.2173 74.271 37.2148 74.0803 37.2629C73.8381 37.3212 73.6517 37.5388 73.6468 37.7909C73.4153 40.1642 73.1874 42.5383 72.9595 44.9124L72.957 44.9385C72.8439 46.117 72.7308 47.2954 72.6172 48.4737C72.5556 48.7446 72.774 49.0378 73.0589 49.0246C73.7176 49.0302 74.3767 49.0288 75.036 49.0274H75.0361H75.0361H75.0362H75.0363C75.2562 49.0269 75.4762 49.0265 75.6962 49.0263C75.9318 49.0476 76.1527 48.8662 76.1806 48.6313C76.8754 45.2089 77.5673 41.785 78.259 38.3617L78.26 38.3563L78.2614 38.3498L78.3589 37.8672C78.4237 37.6291 78.3745 37.2654 78.0731 37.2334C77.4314 37.2151 76.7888 37.2179 76.146 37.2207C75.7205 37.2226 75.2948 37.2245 74.8694 37.2202C74.8015 37.2215 74.7333 37.2206 74.6649 37.2198ZM69.2935 39.9774C67.5627 39.5052 65.7605 39.2844 63.9673 39.3796C62.3761 39.4387 60.7258 39.7819 59.4277 40.7541C58.1517 41.6819 57.3422 43.122 56.921 44.6196C56.526 46.0384 56.3676 47.5245 56.4234 48.9959C56.485 50.2833 56.829 51.6586 57.8061 52.565C58.8357 53.5265 60.2873 53.8057 61.6445 53.9247C63.8712 54.1341 66.1448 53.8139 68.222 52.9862C68.5012 52.8861 68.7779 52.7276 68.9232 52.4575C69.0528 52.2194 69.0796 51.9504 69.1063 51.6827C69.1179 51.5654 69.1296 51.4483 69.1498 51.3343C69.3703 49.5957 69.5902 47.857 69.8101 46.1183L69.8142 46.0857C70.0327 44.3585 70.2511 42.6313 70.4701 40.9043C70.4988 40.6958 70.5046 40.4363 70.3092 40.305C70.1015 40.1728 69.8621 40.1174 69.6235 40.0622C69.5122 40.0365 69.4011 40.0108 69.2935 39.9774ZM61.4828 46.0746C61.6289 45.3816 61.8523 44.6771 62.326 44.1336C62.7989 43.5687 63.5445 43.2246 64.2851 43.2953C64.7096 43.333 65.1291 43.4168 65.5454 43.5112C65.415 44.5257 65.2848 45.5402 65.1546 46.5547L65.1541 46.5583C65.0238 47.5739 64.8935 48.5895 64.7629 49.6051C64.0773 49.8013 63.3482 49.9459 62.6372 49.8169C62.0345 49.7184 61.5715 49.2126 61.4056 48.642C61.1568 47.8029 61.303 46.912 61.4828 46.0746ZM53.3696 39.6236C52.6919 39.6198 52.0143 39.616 51.3386 39.6424C51.0734 39.6998 50.887 39.9486 50.8665 40.213C50.7284 41.2084 50.5923 42.204 50.4561 43.1996L50.4561 43.1999L50.4561 43.2001C50.1106 45.7268 49.7652 48.2533 49.3877 50.7751C49.3668 50.9038 49.3471 51.0333 49.3273 51.1632L49.3273 51.1636C49.212 51.9207 49.0952 52.6887 48.7301 53.3705C48.4057 53.9978 47.8745 54.5019 47.2595 54.8427C46.841 55.0925 46.3901 55.2752 45.9397 55.4576L45.9397 55.4577C45.8158 55.5079 45.692 55.558 45.569 55.6095C45.3653 55.6728 45.2389 55.8936 45.3366 56.0964C45.6322 57.0226 45.9343 57.9463 46.2373 58.87L46.256 58.9194C46.3353 59.1305 46.4404 59.4105 46.7094 59.3831C47.5149 59.2452 48.2949 58.9783 49.0519 58.6746C50.263 58.1614 51.4445 57.4438 52.2171 56.3526C52.9101 55.341 53.3206 54.1669 53.6187 52.9862C53.9583 51.6375 54.1317 50.2586 54.3049 48.8809L54.305 48.8808L54.305 48.8808L54.305 48.8806C54.3676 48.3831 54.4301 47.8857 54.5005 47.3899C54.7481 45.6336 54.9776 43.8747 55.2072 42.1157C55.2875 41.5006 55.3677 40.8855 55.4488 40.2705C55.4767 40.0939 55.4866 39.8879 55.3429 39.7557C55.2217 39.6197 55.0388 39.6211 54.8678 39.6224H54.8678C54.8302 39.6227 54.7931 39.623 54.7575 39.6218C54.2951 39.6288 53.8324 39.6262 53.3698 39.6236H53.3696ZM73.5926 50.4886C74.2125 50.3441 74.8973 50.3564 75.4646 50.6709C76.1814 51.0469 76.647 51.8499 76.6018 52.6603C76.5402 53.8278 75.6937 54.8763 74.6091 55.2737C73.8356 55.5701 72.9136 55.5315 72.2157 55.0644C71.6574 54.7039 71.2739 54.0684 71.2706 53.3968C71.2879 52.0601 72.2715 50.776 73.5926 50.4886ZM79.7892 60.5753C73.0499 60.4448 66.3049 60.7297 59.5927 61.3332C52.2541 62.0171 44.9359 62.9424 37.6769 64.2249C34.1644 64.8571 30.6577 65.5436 27.2002 66.4336C27.7783 66.7498 28.3554 67.0681 28.9325 67.3863C29.5513 67.7276 30.17 68.0688 30.7899 68.4074C31.4952 68.7941 32.3433 68.8976 33.1233 68.7071C33.6408 68.581 34.1579 68.4533 34.675 68.3256C35.6732 68.0791 36.6714 67.8326 37.672 67.5979C44.1723 66.0501 50.7605 64.9048 57.3701 63.9408C63.3408 63.0722 69.3395 62.3989 75.3538 61.9227C80.2169 61.5417 85.0907 61.279 89.9687 61.2149C89.4361 61.1279 88.8992 61.079 88.3624 61.0301C88.19 61.0144 88.0176 60.9987 87.8454 60.9817C85.1663 60.7494 82.4781 60.6303 79.7892 60.5753Z" fill="#FEFEFE"/>
</svg>
