<svg width="208" height="56" viewBox="0 0 208 56" fill="none" xmlns="http://www.w3.org/2000/svg">
<path fill-rule="evenodd" clip-rule="evenodd" d="M28 56C43.464 56 56 43.464 56 28C56 12.536 43.464 0 28 0C12.536 0 0 12.536 0 28C0 43.464 12.536 56 28 56ZM46.143 22.9462C42.7908 26.2877 37.3535 26.2917 33.999 22.9525C29.6858 18.6591 24.3508 13.3481 22.3074 11.314L22.2394 11.2463L21.4966 10.5068C24.8529 7.16569 30.2921 7.16348 33.648 10.5057C38.2441 15.0835 43.8003 20.6159 46.143 22.9462ZM19.6338 12.3604L18.7837 11.5141L17.933 12.36C14.1101 16.1613 14.1034 22.3288 17.925 26.1342L17.925 26.1343C22.6177 30.807 28.9128 37.0727 32.5783 40.7213L32.6198 40.7626L32.64 40.7826L35.5163 43.6457L36.367 44.4929L37.2178 43.6458C41.0392 39.8413 41.0432 33.6731 37.2208 29.8672L37.2207 29.8671C32.2049 24.8747 25.5963 18.2959 21.8159 14.5326L19.6338 12.3604ZM19.6265 24.4254C17.0426 21.8524 16.7854 17.8456 18.8517 14.9845L20.1094 16.2365L20.1378 16.2648C23.922 20.0319 30.514 26.594 35.5195 31.5762C38.1044 34.1501 38.3633 38.158 36.298 41.0212L34.3479 39.0802C30.6921 35.4414 24.3471 29.1258 19.6265 24.4254ZM33.6517 45.4944L33.6542 45.4919L32.1942 44.0384C29.8212 41.6761 25.0688 36.9449 21.1559 33.0498C17.7988 29.7076 12.3575 29.7102 9 33.0521L21.4991 45.4944C24.8551 48.8352 30.2957 48.8352 33.6517 45.4944Z" fill="url(#paint0_linear_433_2699)"/>
<path d="M65.632 32.916C65.632 33.684 65.7707 34.3347 66.048 34.868C66.3253 35.4013 66.688 35.8387 67.136 36.18C67.6053 36.5 68.1493 36.7453 68.768 36.916C69.3867 37.0653 70.0267 37.14 70.688 37.14C71.136 37.14 71.616 37.108 72.128 37.044C72.64 36.9587 73.12 36.8093 73.568 36.596C74.016 36.3827 74.3893 36.0947 74.688 35.732C74.9867 35.348 75.136 34.868 75.136 34.292C75.136 33.6733 74.9333 33.172 74.528 32.788C74.144 32.404 73.632 32.084 72.992 31.828C72.352 31.572 71.6267 31.348 70.816 31.156C70.0053 30.964 69.184 30.7507 68.352 30.516C67.4987 30.3027 66.6667 30.0467 65.856 29.748C65.0453 29.428 64.32 29.0227 63.68 28.532C63.04 28.0413 62.5173 27.4333 62.112 26.708C61.728 25.9613 61.536 25.0653 61.536 24.02C61.536 22.8467 61.7813 21.8333 62.272 20.98C62.784 20.1053 63.4453 19.38 64.256 18.804C65.0667 18.228 65.984 17.8013 67.008 17.524C68.032 17.2467 69.056 17.108 70.08 17.108C71.2747 17.108 72.416 17.2467 73.504 17.524C74.6133 17.78 75.5947 18.2067 76.448 18.804C77.3013 19.4013 77.9733 20.1693 78.464 21.108C78.976 22.0253 79.232 23.1453 79.232 24.468H74.368C74.3253 23.7853 74.176 23.22 73.92 22.772C73.6853 22.324 73.3653 21.972 72.96 21.716C72.5547 21.46 72.0853 21.2787 71.552 21.172C71.04 21.0653 70.4747 21.012 69.856 21.012C69.4507 21.012 69.0453 21.0547 68.64 21.14C68.2347 21.2253 67.8613 21.3747 67.52 21.588C67.2 21.8013 66.9333 22.068 66.72 22.388C66.5067 22.708 66.4 23.1133 66.4 23.604C66.4 24.052 66.4853 24.4147 66.656 24.692C66.8267 24.9693 67.1573 25.2253 67.648 25.46C68.16 25.6947 68.8533 25.9293 69.728 26.164C70.624 26.3987 71.7867 26.6973 73.216 27.06C73.6427 27.1453 74.2293 27.3053 74.976 27.54C75.744 27.7533 76.5013 28.1053 77.248 28.596C77.9947 29.0867 78.6347 29.748 79.168 30.58C79.7227 31.3907 80 32.436 80 33.716C80 34.7613 79.7973 35.732 79.392 36.628C78.9867 37.524 78.3787 38.3027 77.568 38.964C76.7787 39.604 75.7867 40.1053 74.592 40.468C73.4187 40.8307 72.0533 41.012 70.496 41.012C69.2373 41.012 68.0107 40.852 66.816 40.532C65.6427 40.2333 64.5973 39.7533 63.68 39.092C62.784 38.4307 62.0693 37.588 61.536 36.564C61.0027 35.54 60.7467 34.324 60.768 32.916H65.632ZM93.6453 30.452C93.4319 29.3 93.0479 28.4253 92.4933 27.828C91.9599 27.2307 91.1386 26.932 90.0293 26.932C89.3039 26.932 88.6959 27.06 88.2053 27.316C87.7359 27.5507 87.3519 27.8493 87.0533 28.212C86.7759 28.5747 86.5733 28.9587 86.4453 29.364C86.3386 29.7693 86.2746 30.132 86.2533 30.452H93.6453ZM86.2533 33.332C86.3173 34.804 86.6906 35.8707 87.3733 36.532C88.0559 37.1933 89.0373 37.524 90.3173 37.524C91.2346 37.524 92.0239 37.3 92.6853 36.852C93.3466 36.3827 93.7519 35.892 93.9013 35.38H97.9013C97.2613 37.364 96.2799 38.7827 94.9573 39.636C93.6346 40.4893 92.0346 40.916 90.1573 40.916C88.8559 40.916 87.6826 40.7133 86.6373 40.308C85.5919 39.8813 84.7066 39.284 83.9813 38.516C83.2559 37.748 82.6906 36.8307 82.2853 35.764C81.9013 34.6973 81.7093 33.524 81.7093 32.244C81.7093 31.0067 81.9119 29.8547 82.3173 28.788C82.7226 27.7213 83.2986 26.804 84.0453 26.036C84.7919 25.2467 85.6773 24.628 86.7013 24.18C87.7466 23.732 88.8986 23.508 90.1573 23.508C91.5653 23.508 92.7919 23.7853 93.8373 24.34C94.8826 24.8733 95.7359 25.5987 96.3973 26.516C97.0799 27.4333 97.5706 28.4787 97.8693 29.652C98.1679 30.8253 98.2746 32.052 98.1893 33.332H86.2533ZM100.692 29.044C100.756 27.9773 101.023 27.092 101.492 26.388C101.962 25.684 102.559 25.1187 103.284 24.692C104.01 24.2653 104.82 23.9667 105.716 23.796C106.634 23.604 107.551 23.508 108.468 23.508C109.3 23.508 110.143 23.572 110.996 23.7C111.85 23.8067 112.628 24.0307 113.332 24.372C114.036 24.7133 114.612 25.1933 115.06 25.812C115.508 26.4093 115.732 27.2093 115.732 28.212V36.82C115.732 37.5667 115.775 38.2813 115.86 38.964C115.946 39.6467 116.095 40.1587 116.308 40.5H111.7C111.615 40.244 111.54 39.988 111.476 39.732C111.434 39.4547 111.402 39.1773 111.38 38.9C110.655 39.6467 109.802 40.1693 108.82 40.468C107.839 40.7667 106.836 40.916 105.812 40.916C105.023 40.916 104.287 40.82 103.604 40.628C102.922 40.436 102.324 40.1373 101.812 39.732C101.3 39.3267 100.895 38.8147 100.596 38.196C100.319 37.5773 100.18 36.8413 100.18 35.988C100.18 35.0493 100.34 34.2813 100.66 33.684C101.002 33.0653 101.428 32.5747 101.94 32.212C102.474 31.8493 103.071 31.5827 103.732 31.412C104.415 31.22 105.098 31.0707 105.78 30.964C106.463 30.8573 107.135 30.772 107.796 30.708C108.458 30.644 109.044 30.548 109.556 30.42C110.068 30.292 110.474 30.1107 110.772 29.876C111.071 29.62 111.21 29.2573 111.188 28.788C111.188 28.2973 111.103 27.9133 110.932 27.636C110.783 27.3373 110.57 27.1133 110.292 26.964C110.036 26.7933 109.727 26.6867 109.364 26.644C109.023 26.58 108.65 26.548 108.244 26.548C107.348 26.548 106.644 26.74 106.132 27.124C105.62 27.508 105.322 28.148 105.236 29.044H100.692ZM111.188 32.404C110.996 32.5747 110.751 32.7133 110.452 32.82C110.175 32.9053 109.866 32.98 109.524 33.044C109.204 33.108 108.863 33.1613 108.5 33.204C108.138 33.2467 107.775 33.3 107.412 33.364C107.071 33.428 106.73 33.5133 106.388 33.62C106.068 33.7267 105.78 33.876 105.524 34.068C105.29 34.2387 105.098 34.4627 104.948 34.74C104.799 35.0173 104.724 35.3693 104.724 35.796C104.724 36.2013 104.799 36.5427 104.948 36.82C105.098 37.0973 105.3 37.3213 105.556 37.492C105.812 37.6413 106.111 37.748 106.452 37.812C106.794 37.876 107.146 37.908 107.508 37.908C108.404 37.908 109.098 37.7587 109.588 37.46C110.079 37.1613 110.442 36.8093 110.676 36.404C110.911 35.9773 111.05 35.5507 111.092 35.124C111.156 34.6973 111.188 34.356 111.188 34.1V32.404ZM119.387 23.956H123.675V26.196H123.739C124.337 25.3427 125.051 24.6813 125.883 24.212C126.737 23.7427 127.707 23.508 128.795 23.508C129.841 23.508 130.79 23.7107 131.643 24.116C132.518 24.5213 133.179 25.236 133.627 26.26C134.118 25.5347 134.779 24.8947 135.611 24.34C136.465 23.7853 137.467 23.508 138.619 23.508C139.494 23.508 140.305 23.6147 141.051 23.828C141.798 24.0413 142.438 24.3827 142.971 24.852C143.505 25.3213 143.921 25.94 144.219 26.708C144.518 27.4547 144.667 28.3613 144.667 29.428V40.5H140.123V31.124C140.123 30.5693 140.102 30.0467 140.059 29.556C140.017 29.0653 139.899 28.6387 139.707 28.276C139.515 27.9133 139.227 27.6253 138.843 27.412C138.481 27.1987 137.979 27.092 137.339 27.092C136.699 27.092 136.177 27.22 135.771 27.476C135.387 27.7107 135.078 28.0307 134.843 28.436C134.63 28.82 134.481 29.268 134.395 29.78C134.331 30.2707 134.299 30.772 134.299 31.284V40.5H129.755V31.22C129.755 30.7293 129.745 30.2493 129.723 29.78C129.702 29.2893 129.606 28.8413 129.435 28.436C129.286 28.0307 129.019 27.7107 128.635 27.476C128.273 27.22 127.729 27.092 127.003 27.092C126.79 27.092 126.502 27.1453 126.139 27.252C125.798 27.3373 125.457 27.5187 125.115 27.796C124.795 28.052 124.518 28.436 124.283 28.948C124.049 29.4387 123.931 30.0893 123.931 30.9V40.5H119.387V23.956ZM148.387 17.652H152.931V40.5H148.387V17.652ZM167.645 30.452C167.432 29.3 167.048 28.4253 166.493 27.828C165.96 27.2307 165.139 26.932 164.029 26.932C163.304 26.932 162.696 27.06 162.205 27.316C161.736 27.5507 161.352 27.8493 161.053 28.212C160.776 28.5747 160.573 28.9587 160.445 29.364C160.339 29.7693 160.275 30.132 160.253 30.452H167.645ZM160.253 33.332C160.317 34.804 160.691 35.8707 161.373 36.532C162.056 37.1933 163.037 37.524 164.317 37.524C165.235 37.524 166.024 37.3 166.685 36.852C167.347 36.3827 167.752 35.892 167.901 35.38H171.901C171.261 37.364 170.28 38.7827 168.957 39.636C167.635 40.4893 166.035 40.916 164.157 40.916C162.856 40.916 161.683 40.7133 160.637 40.308C159.592 39.8813 158.707 39.284 157.981 38.516C157.256 37.748 156.691 36.8307 156.285 35.764C155.901 34.6973 155.709 33.524 155.709 32.244C155.709 31.0067 155.912 29.8547 156.317 28.788C156.723 27.7213 157.299 26.804 158.045 26.036C158.792 25.2467 159.677 24.628 160.701 24.18C161.747 23.732 162.899 23.508 164.157 23.508C165.565 23.508 166.792 23.7853 167.837 24.34C168.883 24.8733 169.736 25.5987 170.397 26.516C171.08 27.4333 171.571 28.4787 171.869 29.652C172.168 30.8253 172.275 32.052 172.189 33.332H160.253ZM178.404 35.124C178.404 35.6147 178.5 36.0413 178.692 36.404C178.906 36.7453 179.172 37.0333 179.492 37.268C179.812 37.4813 180.175 37.6413 180.58 37.748C181.007 37.8547 181.444 37.908 181.892 37.908C182.212 37.908 182.543 37.876 182.884 37.812C183.247 37.7267 183.567 37.6093 183.844 37.46C184.143 37.2893 184.388 37.076 184.58 36.82C184.772 36.5427 184.868 36.2013 184.868 35.796C184.868 35.1133 184.41 34.6013 183.492 34.26C182.596 33.9187 181.338 33.5773 179.716 33.236C179.055 33.0867 178.404 32.916 177.764 32.724C177.146 32.5107 176.591 32.244 176.1 31.924C175.61 31.5827 175.215 31.1667 174.916 30.676C174.618 30.164 174.468 29.5453 174.468 28.82C174.468 27.7533 174.671 26.8787 175.076 26.196C175.503 25.5133 176.058 24.98 176.74 24.596C177.423 24.1907 178.191 23.9133 179.044 23.764C179.898 23.5933 180.772 23.508 181.668 23.508C182.564 23.508 183.428 23.5933 184.26 23.764C185.114 23.9347 185.871 24.2227 186.532 24.628C187.194 25.0333 187.738 25.5773 188.164 26.26C188.612 26.9213 188.879 27.764 188.964 28.788H184.644C184.58 27.9133 184.25 27.3267 183.652 27.028C183.055 26.708 182.351 26.548 181.54 26.548C181.284 26.548 181.007 26.5693 180.708 26.612C180.41 26.6333 180.132 26.6973 179.876 26.804C179.642 26.9107 179.439 27.0707 179.268 27.284C179.098 27.476 179.012 27.7427 179.012 28.084C179.012 28.4893 179.162 28.82 179.46 29.076C179.759 29.332 180.143 29.5453 180.612 29.716C181.103 29.8653 181.658 30.004 182.276 30.132C182.895 30.26 183.524 30.3987 184.164 30.548C184.826 30.6973 185.466 30.8787 186.084 31.092C186.724 31.3053 187.29 31.5933 187.78 31.956C188.271 32.2973 188.666 32.7347 188.964 33.268C189.263 33.78 189.412 34.42 189.412 35.188C189.412 36.276 189.188 37.1933 188.74 37.94C188.314 38.6653 187.748 39.252 187.044 39.7C186.34 40.148 185.53 40.4573 184.612 40.628C183.716 40.82 182.799 40.916 181.86 40.916C180.9 40.916 179.962 40.82 179.044 40.628C178.127 40.436 177.306 40.116 176.58 39.668C175.876 39.22 175.29 38.6333 174.82 37.908C174.372 37.1613 174.127 36.2333 174.084 35.124H178.404ZM195.592 35.124C195.592 35.6147 195.688 36.0413 195.88 36.404C196.093 36.7453 196.36 37.0333 196.68 37.268C197 37.4813 197.362 37.6413 197.768 37.748C198.194 37.8547 198.632 37.908 199.08 37.908C199.4 37.908 199.73 37.876 200.072 37.812C200.434 37.7267 200.754 37.6093 201.032 37.46C201.33 37.2893 201.576 37.076 201.768 36.82C201.96 36.5427 202.056 36.2013 202.056 35.796C202.056 35.1133 201.597 34.6013 200.68 34.26C199.784 33.9187 198.525 33.5773 196.904 33.236C196.242 33.0867 195.592 32.916 194.952 32.724C194.333 32.5107 193.778 32.244 193.288 31.924C192.797 31.5827 192.402 31.1667 192.104 30.676C191.805 30.164 191.656 29.5453 191.656 28.82C191.656 27.7533 191.858 26.8787 192.264 26.196C192.69 25.5133 193.245 24.98 193.928 24.596C194.61 24.1907 195.378 23.9133 196.232 23.764C197.085 23.5933 197.96 23.508 198.856 23.508C199.752 23.508 200.616 23.5933 201.448 23.764C202.301 23.9347 203.058 24.2227 203.72 24.628C204.381 25.0333 204.925 25.5773 205.352 26.26C205.8 26.9213 206.066 27.764 206.152 28.788H201.832C201.768 27.9133 201.437 27.3267 200.84 27.028C200.242 26.708 199.538 26.548 198.728 26.548C198.472 26.548 198.194 26.5693 197.896 26.612C197.597 26.6333 197.32 26.6973 197.064 26.804C196.829 26.9107 196.626 27.0707 196.456 27.284C196.285 27.476 196.2 27.7427 196.2 28.084C196.2 28.4893 196.349 28.82 196.648 29.076C196.946 29.332 197.33 29.5453 197.8 29.716C198.29 29.8653 198.845 30.004 199.464 30.132C200.082 30.26 200.712 30.3987 201.352 30.548C202.013 30.6973 202.653 30.8787 203.272 31.092C203.912 31.3053 204.477 31.5933 204.968 31.956C205.458 32.2973 205.853 32.7347 206.152 33.268C206.45 33.78 206.6 34.42 206.6 35.188C206.6 36.276 206.376 37.1933 205.928 37.94C205.501 38.6653 204.936 39.252 204.232 39.7C203.528 40.148 202.717 40.4573 201.8 40.628C200.904 40.82 199.986 40.916 199.048 40.916C198.088 40.916 197.149 40.82 196.232 40.628C195.314 40.436 194.493 40.116 193.768 39.668C193.064 39.22 192.477 38.6333 192.008 37.908C191.56 37.1613 191.314 36.2333 191.272 35.124H195.592Z" fill="url(#paint1_linear_433_2699)"/>
<defs>
<linearGradient id="paint0_linear_433_2699" x1="0" y1="28" x2="56" y2="28" gradientUnits="userSpaceOnUse">
<stop stop-color="#667EEA"/>
<stop offset="1" stop-color="#764BA2"/>
</linearGradient>
<linearGradient id="paint1_linear_433_2699" x1="60" y1="28" x2="208" y2="28" gradientUnits="userSpaceOnUse">
<stop stop-color="#667EEA"/>
<stop offset="1" stop-color="#764BA2"/>
</linearGradient>
</defs>
</svg>
