<svg width="112" height="81" viewBox="0 0 112 81" fill="none" xmlns="http://www.w3.org/2000/svg">
<rect y="0.955322" width="112" height="80" rx="4" fill="#003D79"/>
<path fill-rule="evenodd" clip-rule="evenodd" d="M8.10105 43.3249C8.10105 41.8903 8.07579 40.6862 8 39.6127H10.6294L10.7527 41.4571H10.8264C11.4224 40.4824 12.5123 39.3298 14.5452 39.3298C16.132 39.3298 17.3714 40.2538 17.891 41.6361H17.9421C18.3642 40.9448 18.8584 40.4331 19.428 40.0733C20.098 39.5874 20.8668 39.3298 21.8584 39.3298C23.8658 39.3298 25.8972 40.7379 25.8972 44.733V52.081H22.9229V45.1946C22.9229 43.1209 22.23 41.8903 20.7683 41.8903C19.7254 41.8903 18.9561 42.6598 18.636 43.5564C18.5608 43.8628 18.4865 44.2471 18.4865 44.6031V52.081H15.5112V44.8606C15.5112 43.1209 14.843 41.8903 13.4298 41.8903C12.2894 41.8903 11.5219 42.8135 11.2486 43.6822C11.1238 43.9914 11.0738 44.3489 11.0738 44.7067V52.081H8.10105V43.3249Z" fill="white"/>
<path fill-rule="evenodd" clip-rule="evenodd" d="M37.4856 49.0862C37.4856 50.2122 37.5351 51.3113 37.6592 52.0816H34.9067L34.7092 50.6994H34.6339C33.8906 51.6732 32.6265 52.3634 31.065 52.3634C28.6352 52.3634 27.2725 50.547 27.2725 48.6512C27.2725 45.5008 29.9733 43.9147 34.4356 43.94V43.7344C34.4356 42.9148 34.113 41.5586 31.9815 41.5586C30.7911 41.5586 29.5512 41.943 28.7337 42.4798L28.138 40.4331C29.032 39.8687 30.5951 39.3304 32.5022 39.3304C36.3707 39.3304 37.4856 41.8668 37.4856 44.5796V49.0862ZM34.5098 45.9885C32.3536 45.9368 30.2967 46.4232 30.2967 48.3182C30.2967 49.546 31.065 50.1104 32.032 50.1104C33.2452 50.1104 34.139 49.2908 34.4108 48.3949C34.4846 48.1645 34.5098 47.9075 34.5098 47.7034V45.9885Z" fill="white"/>
<path fill-rule="evenodd" clip-rule="evenodd" d="M39.5932 43.3249C39.5932 41.8903 39.5659 40.6862 39.4937 39.6127H42.1685L42.3181 41.4816H42.3913C42.9125 40.5098 44.2262 39.3298 46.2336 39.3298C48.3413 39.3298 50.5225 40.7379 50.5225 44.6819V52.081H47.474V45.0412C47.474 43.2477 46.8296 41.8903 45.1685 41.8903C43.9539 41.8903 43.1113 42.7866 42.7882 43.7344C42.6907 44.0167 42.6649 44.4016 42.6649 44.7575V52.081H39.5932V43.3249Z" fill="white"/>
<path fill-rule="evenodd" clip-rule="evenodd" d="M63.7414 34.6028V48.5727C63.7414 49.8526 63.7902 51.2377 63.8399 52.0816H61.113L60.991 50.1104H60.9405C60.2212 51.4937 58.7565 52.3635 56.9984 52.3635C54.1242 52.3635 51.843 49.8291 51.843 45.9885C51.8177 41.8147 54.346 39.3304 57.246 39.3304C58.9063 39.3304 60.0972 40.0483 60.6416 40.9708H60.6919V34.6028H63.7414ZM60.6919 44.8088C60.6919 44.5554 60.6664 44.2467 60.6186 43.9915C60.3455 42.7624 59.3782 41.7632 57.99 41.7632C56.0318 41.7632 54.941 43.5565 54.941 45.8865C54.941 48.1646 56.0318 49.8291 57.9652 49.8291C59.2041 49.8291 60.2955 48.9589 60.5926 47.6022C60.6664 47.3193 60.6919 47.0125 60.6919 46.6785V44.8088Z" fill="white"/>
<path fill-rule="evenodd" clip-rule="evenodd" d="M65.8955 52.081H68.9723V39.6134H65.8955V52.081Z" fill="white"/>
<path fill-rule="evenodd" clip-rule="evenodd" d="M71.1271 43.6321C71.1271 41.9429 71.1014 40.7379 71.0273 39.6124H73.6802L73.7772 41.9928H73.8801C74.474 40.2262 75.8872 39.6124 77.1756 39.6124C77.4725 39.6124 77.6458 39.56 77.8944 39.6124V42.3785C77.6458 42.3273 77.3737 42.2762 77.0018 42.2762C75.5396 42.2762 74.5473 43.2482 74.2749 44.6555C74.2267 44.9373 74.1766 45.2716 74.1766 45.6317V52.0815H71.1271V43.6321Z" fill="white"/>
<path fill-rule="evenodd" clip-rule="evenodd" d="M79.3076 52.081H82.3799V39.6134H79.3076V52.081Z" fill="white"/>
<path fill-rule="evenodd" clip-rule="evenodd" d="M78.5804 24.5387C76.735 25.6425 72.3821 28.2212 70.7572 29.1815C69.7669 29.7026 67.4732 29.9302 66.176 28.1234C66.1527 28.0907 64.4505 25.8938 64.381 25.8111C64.3323 25.7526 63.2318 24.0667 60.7798 24.014C60.4175 24.0051 58.6162 23.9952 56.8587 25.027C54.5226 26.4055 49.0895 29.6139 49.0895 29.6139C49.088 29.6139 49.088 29.6168 49.0852 29.6168C46.8519 30.9366 45.1118 31.9642 45.1118 31.9642L47.1677 34.5724C48.1295 35.8059 50.2983 36.7602 52.1792 35.6449C52.1792 35.6449 59.1288 31.488 59.1543 31.476C62.1599 29.7733 64.4791 29.7733 66.0183 30.4069C67.4 31.01 68.602 32.5125 68.602 32.5125C68.602 32.5125 70.1729 34.5234 70.45 34.8751C71.3438 36.0115 72.8232 35.5651 72.8232 35.5651C72.8232 35.5651 73.3714 35.5009 74.1978 34.9941C74.1978 34.9941 80.9294 30.9625 80.9337 30.9612C83.0712 29.6658 85.0316 29.4239 86.0336 29.5192C89.1718 29.8138 90.1467 32.0783 91.5073 33.6581C92.3087 34.5873 93.0317 35.1149 94.1375 35.0883C94.8641 35.0724 95.6849 34.6173 95.8059 34.5351L103.867 29.73C103.867 29.73 103.04 28.4433 101.346 26.4413C99.8298 24.6551 98.2195 25.4633 96.9356 26.1201C96.3963 26.3956 94.4419 27.7385 92.5057 28.6753C91.1261 29.3425 89.1445 29.1418 88.0584 27.7557C87.9935 27.6714 86.2364 25.4742 86.0518 25.2039C85.3426 24.2864 83.959 23.4647 82.1857 23.4647C81.1075 23.4647 79.884 23.7684 78.5804 24.5387Z" fill="url(#paint0_linear_598_310)"/>
<defs>
<linearGradient id="paint0_linear_598_310" x1="45.1118" y1="36.1388" x2="103.867" y2="36.1388" gradientUnits="userSpaceOnUse">
<stop stop-color="#FFCA06"/>
<stop offset="0.330844" stop-color="#FBAA18"/>
<stop offset="0.694742" stop-color="#FFC907"/>
<stop offset="1" stop-color="#FAA619"/>
</linearGradient>
</defs>
</svg>
