<svg width="112" height="80" viewBox="0 0 112 80" fill="none" xmlns="http://www.w3.org/2000/svg">
<rect width="112" height="80" rx="4" fill="#4C3494"/>
<path fill-rule="evenodd" clip-rule="evenodd" d="M91.4962 30.3361C88.8651 28.0125 85.247 26.9266 81.7669 27.2585C80.8974 27.3378 80.0348 27.4926 79.1975 27.7403C76.1307 28.6225 73.4409 30.7239 71.835 33.4793C69.6759 37.1131 69.4174 41.777 71.084 45.6517C72.3217 48.5706 74.6874 50.9932 77.5878 52.2779C80.8818 53.7369 84.7799 53.7809 88.1033 52.3895C89.7973 51.6766 91.3337 50.5878 92.5655 49.2238C94.8147 46.767 96.0113 43.4142 95.9349 40.0948C95.9153 36.413 94.2996 32.743 91.4962 30.3361ZM76.4284 34.9452C77.6651 33.1014 79.7048 31.8157 81.9128 31.5415C83.6636 31.3036 85.4996 31.6522 87.0164 32.5697C88.4734 33.4343 89.6122 34.7905 90.2928 36.3366C91.6372 39.4211 91.3356 43.2438 89.3057 45.964C88.3432 47.2527 86.9919 48.2573 85.4575 48.7528C83.5305 49.3804 81.3606 49.2453 79.5354 48.3611C78.096 47.6688 76.8925 46.5212 76.0945 45.1405C74.3104 42.0404 74.4132 37.9141 76.4284 34.9452ZM34.9488 28.6167C32.5743 27.3858 29.811 26.9746 27.1692 27.3251C24.6223 27.6531 22.1743 28.7577 20.2747 30.4908C18.3261 32.2338 16.9581 34.5986 16.3667 37.1415C15.6529 40.1604 15.9819 43.4299 17.3479 46.2216C18.6022 48.8291 20.7819 50.9804 23.4091 52.1956C26.0108 53.4059 29.01 53.6957 31.8105 53.1072C34.5013 52.5471 36.9865 51.0705 38.7775 48.9868C40.4852 47.0186 41.5486 44.5187 41.8472 41.9347C42.1361 39.5249 41.7787 37.0367 40.7966 34.815C39.6323 32.1623 37.5359 29.9249 34.9488 28.6167ZM24.3863 32.9329C25.434 32.176 26.6766 31.7001 27.9564 31.5356C29.4889 31.3378 31.084 31.5807 32.4695 32.273C34.1009 33.0691 35.41 34.4624 36.1807 36.0997C37.0561 37.9249 37.294 40.0292 36.964 42.0189C36.6595 43.8343 35.8301 45.5861 34.5043 46.8786C33.3645 48.0292 31.8487 48.7959 30.2497 49.0436C28.2913 49.352 26.2125 48.9281 24.5714 47.8039C22.8764 46.673 21.6867 44.8683 21.1726 42.909C20.6654 40.9741 20.729 38.8825 21.3919 36.9927C21.9559 35.3829 22.9919 33.9258 24.3863 32.9329ZM43.0289 27.9097L43.0281 27.9097C43.0275 28.8445 43.0277 29.7797 43.0279 30.715C43.028 31.1827 43.0281 31.6505 43.0281 32.1183C43.6626 32.1197 44.2965 32.1195 44.9307 32.1194C45.1422 32.1193 45.3537 32.1192 45.5652 32.1192C47.1347 35.7296 48.7021 39.341 50.2695 42.9522C51.4071 45.573 52.5446 48.1938 53.6827 50.814C54.2125 52.0301 55.3258 52.979 56.6213 53.2796C57.0926 53.4028 57.5787 53.3979 58.0632 53.3929C58.2138 53.3914 58.3643 53.3899 58.5141 53.3922C60.0008 49.8903 61.4923 46.3905 62.9839 42.8908C64.7617 38.7193 66.5395 34.5479 68.3089 30.3733C68.3541 29.8654 68.3472 29.3525 68.3403 28.8396C68.3361 28.529 68.3319 28.2183 68.3393 27.9087H60.116C60.1151 29.3129 60.1141 30.7161 60.116 32.1192C60.474 32.1197 60.832 32.1195 61.19 32.1194C61.6672 32.1193 62.1445 32.1191 62.6218 32.1202C61.9671 33.7242 61.3139 35.3288 60.6608 36.9334C59.3945 40.0446 58.1282 43.1557 56.8504 46.2617C55.855 43.9046 54.8598 41.5474 53.8646 39.1902C52.8696 36.8336 51.8746 34.4769 50.8793 32.1202C51.3004 32.1187 51.7217 32.119 52.1431 32.1192C52.5645 32.1195 52.986 32.1197 53.4076 32.1183V27.9097C49.9484 27.9077 46.4891 27.9087 43.0289 27.9097Z" fill="white"/>
</svg>
