<svg width="112" height="80" viewBox="0 0 112 80" fill="none" xmlns="http://www.w3.org/2000/svg">
<rect width="112" height="80" rx="6.4" fill="white"/>
<g clip-path="url(#clip0_554_2189)">
<path d="M65.3182 63.8592C62.195 65.088 58.9694 65.6512 55.6414 65.6C44.1214 65.4976 33.9326 57.4592 31.1678 46.2976C27.7886 32.6784 35.7758 19.0592 49.1902 15.3216C63.2702 11.4304 77.7086 20.1344 80.9342 34.368C83.7502 46.7072 77.0942 59.2512 65.3182 63.8592ZM75.6094 37.696C74.4318 34.4704 71.0526 32.5248 67.7758 33.1904C64.0382 33.9584 61.683 37.3376 62.2462 41.1264C62.8094 44.8128 66.5982 47.4752 70.2334 46.7584C74.483 45.9904 76.9406 41.8432 75.6094 37.696ZM48.7806 43.7376C49.3943 42.7839 49.7636 41.6936 49.8558 40.5632C50.2142 36.16 46.3742 32.5248 42.0222 33.1392C38.0286 33.7024 35.2638 37.6448 36.2878 41.536C37.0046 44.4544 38.899 46.2464 41.8686 46.7584C44.7358 47.2704 47.0398 46.1952 48.7806 43.7376ZM60.1982 38.976L63.0654 33.2416H58.4062C58.1502 33.2416 58.0478 33.344 57.9454 33.5488C57.331 34.7264 56.7678 35.9552 56.1534 37.1328C56.1022 37.2352 56.051 37.2864 55.9998 37.44L54.0542 33.5488C53.9518 33.344 53.8494 33.2928 53.6446 33.2928H49.2926H48.9854C49.0366 33.4464 49.0878 33.5488 49.139 33.6512L53.4398 42.2528C53.5422 42.4576 53.5934 42.6624 53.5934 42.8672V46.4512V46.8608H58.5086V42.9696C58.5086 42.7136 58.5598 42.4064 58.7134 42.2016C59.1742 41.0752 59.6862 40.0512 60.1982 38.976Z" fill="#ED302B"/>
<path d="M75.6103 37.7472C76.9415 41.8944 74.5351 45.9904 70.2855 46.8096C66.5991 47.5264 62.8103 44.864 62.2983 41.1776C61.7351 37.3888 64.0391 34.0096 67.8279 33.2416C71.0535 32.5248 74.4327 34.4704 75.6103 37.7472ZM71.5143 39.7952C71.4119 38.7712 70.8999 38.0544 69.9271 37.696C69.0055 37.3376 68.1351 37.5424 67.4183 38.208C66.7015 38.8736 66.4455 39.744 66.7015 40.7168C67.0087 41.8432 68.1863 42.6112 69.3127 42.4576C70.6951 42.2528 71.5143 41.2288 71.5143 39.7952ZM48.7815 43.7376C47.0407 46.1952 44.7367 47.2704 41.8183 46.8096C38.8999 46.2976 37.0055 44.5056 36.2375 41.5872C35.2647 37.696 37.9783 33.7536 41.9719 33.1904C46.3751 32.576 50.2151 36.2112 49.8055 40.6144C49.7543 41.6896 49.3959 42.7648 48.7815 43.7376ZM41.0503 41.5872C41.9207 42.5088 43.0983 42.7648 44.1735 42.1504C45.1975 41.5872 45.6583 40.4096 45.2999 39.2832C44.9927 38.2592 44.2759 37.696 43.2007 37.5424C42.1767 37.44 41.3575 37.8496 40.8455 38.72C40.2823 39.6928 40.3847 40.6656 41.0503 41.5872ZM60.1991 38.976L58.6631 42.048C58.5607 42.304 58.5095 42.56 58.4583 42.816V46.7072H53.5431V46.2976V42.7136C53.5431 42.5088 53.4919 42.304 53.3895 42.0992L49.0887 33.4976C49.0375 33.3952 48.9863 33.2928 48.9351 33.1392H49.2423H53.5943C53.7991 33.1392 53.9527 33.1904 54.0039 33.3952L55.9495 37.2864L56.1031 36.9792L57.8951 33.3952C57.9975 33.1904 58.0999 33.088 58.3559 33.088H63.0151C62.1447 35.1872 61.1719 37.0816 60.1991 38.976Z" fill="white"/>
<path d="M71.5139 39.8464C71.5139 41.2288 70.6947 42.2528 69.3635 42.4576C68.2371 42.6112 67.0595 41.8432 66.7523 40.7168C66.4963 39.744 66.7011 38.8736 67.4691 38.208C68.1859 37.5424 69.0563 37.3376 69.9779 37.696C70.8995 38.0544 71.4115 38.7712 71.5139 39.8464ZM41.0499 41.536C40.3843 40.6144 40.2819 39.6928 40.8451 38.72C41.3571 37.8496 42.1763 37.3888 43.2003 37.5424C44.2243 37.6448 44.9411 38.2592 45.2995 39.2832C45.6579 40.3584 45.1971 41.5872 44.1731 42.1504C43.1491 42.7136 41.9203 42.5088 41.0499 41.536Z" fill="#ED312C"/>
</g>
<defs>
<clipPath id="clip0_554_2189">
<rect width="51.2" height="51.2" fill="white" transform="translate(30.3994 14.4)"/>
</clipPath>
</defs>
</svg>
