<svg width="112" height="80" viewBox="0 0 112 80" fill="none" xmlns="http://www.w3.org/2000/svg">
<rect x="-0.000976562" y="-3.05176e-05" width="112" height="80" rx="6.4" fill="white"/>
<g clip-path="url(#clip0_554_2174)">
<path fill-rule="evenodd" clip-rule="evenodd" d="M15.999 37.8331C15.999 34.6049 18.6039 32 21.8321 32C25.0443 32 27.6653 34.6049 27.6653 37.8331C27.6653 40.2782 26.163 42.3717 24.0216 43.2347L21.944 41.1572C23.7339 41.0932 25.1562 39.639 25.1562 37.8331C25.1562 35.9953 23.67 34.509 21.8321 34.509C19.9943 34.509 18.5081 35.9953 18.5081 37.8331C18.5081 38.744 18.8756 39.575 19.4829 40.1823L24.2293 44.9287L22.4554 46.7026L17.709 41.9562C16.6542 40.9015 15.999 39.4472 15.999 37.8331ZM20.2182 39.4473C21.0971 40.3423 22.5514 40.3423 23.4304 39.4473C24.3253 38.5524 24.3253 37.1141 23.4304 36.2351C22.5514 35.3402 21.1131 35.3402 20.2182 36.2351C19.3232 37.1141 19.3232 38.5524 20.2182 39.4473Z" fill="#FE5000"/>
<path d="M61.6458 32.9269V33.2944C61.6458 33.5661 61.5502 33.7899 61.3742 33.9657C61.1986 34.1574 60.9746 34.2373 60.7191 34.2373C60.4635 34.2373 60.2395 34.1414 60.0479 33.9657C59.8559 33.7739 59.7764 33.5501 59.7764 33.2944V32.9269C59.7764 32.6712 59.8719 32.4474 60.0479 32.2716C60.2395 32.0799 60.4635 32 60.7191 32C60.9746 32 61.1986 32.0959 61.3742 32.2716C61.5662 32.4315 61.6458 32.6552 61.6458 32.9269Z" fill="#47495D"/>
<path fill-rule="evenodd" clip-rule="evenodd" d="M32.1131 46.415C31.9213 46.6068 31.6976 46.7026 31.4419 46.7026C31.1862 46.7026 30.9625 46.6068 30.7707 46.415C30.5789 46.2232 30.499 45.9995 30.499 45.7598V35.6597C30.499 35.404 30.5949 35.1802 30.7707 35.0044C30.9465 34.8286 31.1702 34.7328 31.4099 34.7328C31.6656 34.7328 31.8734 34.7967 32.0492 34.9405C32.225 35.0843 32.3369 35.2442 32.3688 35.4519C33.104 34.9725 33.887 34.7328 34.734 34.7328C35.9006 34.7328 36.8915 35.1642 37.7065 36.0272C38.5375 36.8902 38.9371 37.913 38.9371 39.1116C38.9371 40.3102 38.5216 41.317 37.7065 42.164C36.8755 43.011 35.8847 43.4265 34.734 43.4265C33.8391 43.4265 33.072 43.1868 32.4008 42.7073V45.7757C32.4008 46.0155 32.3049 46.2392 32.1131 46.415ZM36.3641 37.3537C35.9166 36.8742 35.3573 36.6345 34.7181 36.6345C34.0628 36.6345 33.5194 36.8742 33.072 37.3537C32.6245 37.8331 32.4008 38.4404 32.4008 39.1595C32.4008 39.8787 32.6245 40.438 33.072 40.8536C33.5194 41.333 34.0628 41.5887 34.7021 41.5887C35.3413 41.5887 35.9006 41.3489 36.3481 40.8536C36.8116 40.3581 37.0353 39.7828 37.0353 39.1276C37.0513 38.4564 36.8115 37.8651 36.3641 37.3537Z" fill="#47495D"/>
<path fill-rule="evenodd" clip-rule="evenodd" d="M48.4927 38.8559C48.4927 39.1116 48.4128 39.3193 48.237 39.4792C48.0613 39.639 47.8535 39.7189 47.5658 39.7189H42.0364C42.1482 40.2143 42.34 40.5979 42.6277 40.8695C42.9952 41.301 43.5386 41.5567 44.2577 41.6366C44.9769 41.7165 45.5842 41.5887 46.1116 41.2051C46.2873 41.0133 46.5111 40.9334 46.8147 40.9334C47.1024 40.9334 47.3101 41.0133 47.422 41.1572C47.7416 41.5088 47.7416 41.8923 47.422 42.2918C46.591 43.0589 45.5682 43.4425 44.3536 43.4265C43.1391 43.4265 42.1322 42.995 41.3012 42.148C40.4862 41.301 40.0706 40.2782 40.0547 39.0796C40.0706 37.8811 40.4862 36.8583 41.3012 36.0112C42.1163 35.1643 43.1071 34.7328 44.2737 34.7328C45.4403 34.7328 46.4152 35.1163 47.1983 35.8674C47.9973 36.6345 48.4288 37.5934 48.4927 38.76V38.8559ZM44.3057 36.3948C43.6344 36.4267 43.0911 36.6345 42.6916 37.0181C42.2921 37.4016 42.0364 37.8011 41.9564 38.2326H46.8786C46.7827 37.8331 46.4951 37.4336 46.0316 37.05C45.5682 36.6665 44.9928 36.4587 44.3057 36.3948Z" fill="#47495D"/>
<path fill-rule="evenodd" clip-rule="evenodd" d="M49.3877 39.1276C49.3877 40.3262 49.7872 41.3489 50.6022 42.18C51.4013 43.0749 52.3921 43.5064 53.5588 43.5384C54.4058 43.5384 55.1729 43.2987 55.844 42.8352C55.7162 43.3626 55.4445 43.8101 55.029 44.1616C54.5975 44.5132 54.166 44.689 53.7026 44.689C53.2551 44.689 52.8715 44.6091 52.5679 44.4493C52.3282 44.3534 52.0885 44.3374 51.8488 44.4173C51.6091 44.4972 51.4333 44.6411 51.3214 44.8808C51.2095 45.1045 51.1935 45.3442 51.2734 45.5999C51.3534 45.8397 51.4972 46.0155 51.7369 46.1273C52.2962 46.415 52.9035 46.5588 53.5588 46.5588C54.7094 46.5588 55.7002 46.1433 56.5153 45.3283C57.3303 44.4972 57.7458 43.5224 57.7458 42.3717V35.6597C57.7458 35.404 57.6499 35.1802 57.4741 35.0044C57.2984 34.8286 57.0906 34.7328 56.8509 34.7328C56.6111 34.7328 56.4034 34.7967 56.2276 34.9405C56.0518 35.0843 55.94 35.2601 55.892 35.4679C55.2208 34.9725 54.4377 34.7328 53.5588 34.7328C52.3921 34.7328 51.4173 35.1642 50.6022 36.0272C49.7872 36.8902 49.3877 37.929 49.3877 39.1276ZM51.9127 40.9015C51.4812 40.4061 51.2575 39.8307 51.2575 39.1435C51.2575 38.4564 51.4812 37.8651 51.9287 37.3537C52.3761 36.8583 52.9195 36.6026 53.5588 36.6026C54.198 36.6026 54.7414 36.8423 55.1888 37.3377C55.6363 37.8331 55.86 38.4404 55.86 39.1435C55.86 39.8467 55.6523 40.438 55.2048 40.9175C54.7573 41.3969 54.214 41.6366 53.5588 41.6366C52.9035 41.6366 52.3602 41.3809 51.9127 40.9015Z" fill="#47495D"/>
<path d="M60.7182 34.7488C60.4462 34.7488 60.2226 34.8447 60.0466 35.0205C59.8551 35.2123 59.7751 35.436 59.7911 35.7237V42.5157C59.7911 42.7714 59.8711 42.9791 60.0626 43.1709C60.2546 43.3467 60.4782 43.4426 60.7338 43.4426C60.9898 43.4426 61.2133 43.3467 61.3893 43.1709C61.5649 42.9951 61.6609 42.7714 61.6609 42.4997V35.7077C61.6609 35.436 61.5649 35.1963 61.3893 35.0205C61.2133 34.8447 60.9898 34.7488 60.7182 34.7488Z" fill="#47495D"/>
<path d="M95.6433 32.9269V33.2944C95.6433 33.5661 95.5473 33.7899 95.3717 33.9657C95.1957 34.1574 94.9721 34.2373 94.7161 34.2373C94.4606 34.2373 94.237 34.1414 94.045 33.9657C93.8534 33.7739 93.7734 33.5501 93.7734 33.2944V32.9269C93.7734 32.6712 93.8694 32.4474 94.045 32.2716C94.237 32.0799 94.4606 32 94.7161 32C94.9721 32 95.1957 32.0959 95.3717 32.2716C95.5633 32.4315 95.6433 32.6552 95.6433 32.9269Z" fill="#FE5000"/>
<path fill-rule="evenodd" clip-rule="evenodd" d="M66.1094 46.415C65.9174 46.6068 65.6938 46.7026 65.4383 46.7026C65.1823 46.7026 64.9587 46.6068 64.7667 46.415C64.5751 46.2232 64.4951 45.9995 64.4951 45.7598V35.6597C64.4951 35.404 64.5911 35.1802 64.7667 35.0044C64.9427 34.8286 65.1662 34.7328 65.4062 34.7328C65.6618 34.7328 65.8694 34.7967 66.0454 34.9405C66.221 35.0843 66.333 35.2442 66.365 35.4519C67.1001 34.9725 67.8832 34.7328 68.7304 34.7328C69.8966 34.7328 70.8878 35.1642 71.7025 36.0272C72.5336 36.8902 72.9332 37.913 72.9332 39.1116C72.9332 40.3102 72.5176 41.317 71.7025 42.164C70.8718 43.011 69.8806 43.4265 68.7304 43.4265C67.8352 43.4265 67.0681 43.1868 66.397 42.7073V45.7757C66.397 46.0155 66.301 46.2392 66.1094 46.415ZM70.3602 37.3537C69.9126 36.8742 69.3535 36.6345 68.7144 36.6345C68.0588 36.6345 67.5157 36.8742 67.0681 37.3537C66.6205 37.8331 66.397 38.4404 66.397 39.1595C66.397 39.8787 66.6205 40.438 67.0681 40.8536C67.5157 41.333 68.0588 41.5887 68.6984 41.5887C69.3375 41.5887 69.8966 41.3489 70.3442 40.8536C70.8078 40.3581 71.0313 39.7828 71.0313 39.1276C71.0473 38.4564 70.8238 37.8651 70.3602 37.3537Z" fill="#FE5000"/>
<path fill-rule="evenodd" clip-rule="evenodd" d="M82.4898 38.8559C82.4898 39.1116 82.4098 39.3193 82.2342 39.4792C82.0582 39.639 81.8347 39.7189 81.5631 39.7189H76.0336C76.1452 40.2143 76.3372 40.5979 76.6247 40.8695C76.9923 41.301 77.5359 41.5567 78.255 41.6366C78.9741 41.7165 79.5813 41.5887 80.1084 41.2051C80.2844 41.0133 80.508 40.9334 80.812 40.9334C81.0995 40.9334 81.3071 41.0133 81.4191 41.1572C81.7387 41.5088 81.7387 41.8923 81.4191 42.2918C80.588 43.0589 79.5653 43.4425 78.3506 43.4265C77.1363 43.4265 76.1292 42.995 75.2985 42.148C74.4833 41.301 74.0678 40.2782 74.0518 39.0796C74.0678 37.8811 74.4833 36.8583 75.2985 36.0112C76.1132 35.1643 77.1043 34.7328 78.271 34.7328C79.4373 34.7328 80.4124 35.1163 81.1955 35.8674C81.9942 36.6345 82.4258 37.5934 82.4898 38.76V38.8559ZM78.3026 36.3948C77.6314 36.4267 77.0883 36.6345 76.6887 37.0181C76.2892 37.4016 76.0336 37.8011 75.9536 38.2326H80.8755C80.78 37.8331 80.492 37.4336 80.0288 37.05C79.5653 36.6665 78.9901 36.4587 78.3026 36.3948Z" fill="#FE5000"/>
<path fill-rule="evenodd" clip-rule="evenodd" d="M83.3857 39.1276C83.3857 40.3262 83.7853 41.3489 84.6004 42.18C85.3991 43.0749 86.3903 43.5064 87.573 43.5384C88.4197 43.5384 89.1868 43.2987 89.858 42.8352C89.7304 43.3626 89.4584 43.8101 89.0433 44.1616C88.6117 44.5132 88.1801 44.689 87.7166 44.689C87.269 44.689 86.8854 44.6091 86.5819 44.4493C86.3423 44.3534 86.1027 44.3374 85.8627 44.4173C85.6231 44.4972 85.4471 44.6411 85.3356 44.8808C85.2236 45.1045 85.2076 45.3442 85.2876 45.5999C85.3676 45.8397 85.5111 46.0155 85.7511 46.1273C86.2943 46.415 86.9174 46.5588 87.573 46.5588C88.7073 46.5588 89.6984 46.1433 90.5135 45.3283C91.3282 44.4972 91.7438 43.5224 91.7438 42.3717V35.6597C91.7438 35.404 91.6478 35.1802 91.4722 35.0044C91.2962 34.8286 91.0887 34.7328 90.8491 34.7328C90.6091 34.7328 90.4015 34.7967 90.2255 34.9405C90.05 35.0843 89.938 35.2601 89.89 35.4679C89.2188 34.9725 88.4357 34.7328 87.557 34.7328C86.3903 34.7328 85.4151 35.1642 84.6004 36.0272C83.7853 36.8902 83.3857 37.929 83.3857 39.1276ZM85.9107 40.9015C85.4791 40.4061 85.2556 39.8307 85.2556 39.1435C85.2556 38.4564 85.4791 37.8651 85.9267 37.3537C86.3743 36.8583 86.9174 36.6026 87.557 36.6026C88.1961 36.6026 88.7393 36.8423 89.1868 37.3377C89.6344 37.8331 89.858 38.4404 89.858 39.1435C89.858 39.8467 89.6504 40.438 89.2028 40.9175C88.7553 41.3969 88.2121 41.6366 87.557 41.6366C86.9014 41.6366 86.3583 41.3809 85.9107 40.9015Z" fill="#FE5000"/>
<path d="M94.7172 34.7488C94.4452 34.7488 94.2216 34.8447 94.0461 35.0205C93.8541 35.2123 93.7741 35.436 93.7901 35.7237V42.5157C93.7901 42.7714 93.8701 42.9791 94.0616 43.1709C94.2536 43.3467 94.4772 43.4426 94.7332 43.4426C94.9888 43.4426 95.2123 43.3467 95.3883 43.1709C95.5639 42.9951 95.6599 42.7714 95.6599 42.4997V35.7077C95.6599 35.436 95.5639 35.1963 95.3883 35.0205C95.2123 34.8447 94.9888 34.7488 94.7172 34.7488Z" fill="#FE5000"/>
</g>
<defs>
<clipPath id="clip0_554_2174">
<rect width="80" height="14.7027" fill="white" transform="translate(15.999 32)"/>
</clipPath>
</defs>
</svg>
