<svg width="112" height="81" viewBox="0 0 112 81" fill="none" xmlns="http://www.w3.org/2000/svg">
<rect y="0.955322" width="112" height="80" rx="4" fill="white"/>
<mask id="mask0_598_407" style="mask-type:luminance" maskUnits="userSpaceOnUse" x="0" y="0" width="112" height="81">
<rect y="0.955322" width="112" height="80" rx="4" fill="white"/>
</mask>
<g mask="url(#mask0_598_407)">
<path fill-rule="evenodd" clip-rule="evenodd" d="M40.0376 23.6583L40 24.3863L54.0846 40.7623L54.5906 40.8428L54.6542 40.8111L54.9014 40.3588L48.8946 20.4317L47.8752 19.7507L40.0376 23.6583Z" fill="#0096B8"/>
<path fill-rule="evenodd" clip-rule="evenodd" d="M54.0846 40.7624L54.5899 40.8429L44.2033 25.1813L40 24.3864L54.0846 40.7624Z" fill="#005675"/>
<path fill-rule="evenodd" clip-rule="evenodd" d="M47.8753 19.7507L44.2847 23.9402L45.751 24.5755L48.8948 20.4324V20.4317L47.8753 19.7507Z" fill="#0BBBEF"/>
<path fill-rule="evenodd" clip-rule="evenodd" d="M45.75 24.5756L54.6548 40.8112L54.902 40.3574L48.8958 20.4332L45.75 24.5756Z" fill="#007290"/>
<path fill-rule="evenodd" clip-rule="evenodd" d="M61.8475 19.7933L55.8237 46.7415L56.0361 47.2472L56.137 47.2922L56.8192 47.1151L71.7654 24.6764L71.7488 23.5057L62.6408 19.3556L61.8475 19.7933Z" fill="#81B73E"/>
<path fill-rule="evenodd" clip-rule="evenodd" d="M65.6981 25.189L56.1382 47.2922L56.8186 47.1151L71.7654 24.6763L65.6981 25.189Z" fill="#69931D"/>
<path fill-rule="evenodd" clip-rule="evenodd" d="M55.8232 46.7402L56.0363 47.2459L63.9787 24.2509L61.847 19.7941L55.8232 46.7402Z" fill="#277933"/>
<path fill-rule="evenodd" clip-rule="evenodd" d="M71.748 23.5065L65.354 23.5884L65.6986 25.1894L71.7653 24.6764L71.7487 23.5065H71.748Z" fill="#AECC53"/>
<path fill-rule="evenodd" clip-rule="evenodd" d="M61.8472 19.7933L63.9768 24.2494L65.3538 23.5886L62.6405 19.3566L61.8472 19.7933Z" fill="#69931D"/>
<path fill-rule="evenodd" clip-rule="evenodd" d="M60.7519 12.1553L49.0926 12.2798L48.729 12.9716L55.1712 31.3745L55.5538 31.6296L55.565 31.6314L55.9199 31.4282L61.5054 12.9297L60.7519 12.1553Z" fill="#E4032E"/>
<path fill-rule="evenodd" clip-rule="evenodd" d="M48.729 12.9715L55.1712 31.3744L55.5517 31.6299L53.247 15.1995L48.729 12.9708V12.9715Z" fill="#791B15"/>
<path fill-rule="evenodd" clip-rule="evenodd" d="M55.439 15.2025L55.5649 31.6311L55.9197 31.4265L61.5049 12.9298L55.439 15.2025Z" fill="#B51227"/>
<path fill-rule="evenodd" clip-rule="evenodd" d="M69.9176 61.8155C69.9269 61.6225 69.9379 61.3147 69.9472 60.8942V52.8009L69.9222 52.0158C69.9161 51.8494 69.9086 51.7361 69.9005 51.6754C69.8924 51.6123 69.8796 51.5584 69.8622 51.5093C69.8039 51.31 69.6763 51.1689 69.4846 51.0833C69.3071 51.0049 69.0443 50.9672 68.7041 50.9647V50.6901L73.1021 50.6886C73.7419 50.6913 74.3191 50.7343 74.8345 50.8224C75.3501 50.908 75.7652 51.0275 76.0831 51.1802C77.0019 51.6388 77.4563 52.4105 77.4511 53.5064C77.4624 55.0756 76.4807 56.0762 74.4484 56.3346L74.1077 56.3925C74.5647 56.4102 75.1822 56.569 75.4702 56.6397C75.7556 56.7089 76.0352 56.8186 76.3099 56.9685C77.3879 57.5381 77.9192 58.4478 77.9085 59.7083C77.9137 61.237 77.2046 62.2299 75.7646 62.6999C75.4505 62.7947 75.0555 62.8687 74.579 62.9233C74.1001 62.9775 73.5815 63.0049 73.0206 63.0062H68.7041V62.7304C69.2128 62.7236 69.5623 62.642 69.7172 62.4506C69.7813 62.3863 69.8274 62.3144 69.8576 62.2324C69.8886 62.1495 69.9074 62.0068 69.9176 61.8155ZM71.2715 51.068V56.2036H72.9879C74.9835 56.1911 76.0172 55.3204 76.0279 53.5759C76.0422 51.882 74.9534 51.0555 72.8408 51.068H71.2715ZM76.3722 59.5697C76.36 58.3738 75.9488 57.5268 75.1274 57.0529C74.8777 56.9204 74.5613 56.8174 74.1805 56.7439C73.8008 56.6711 73.3808 56.6345 72.9223 56.6333H71.2715V62.6283H72.9223C74.1184 62.6334 74.9928 62.3988 75.5314 61.9075C75.8038 61.6704 76.0111 61.3513 76.155 60.9493C76.2983 60.5476 76.3696 60.0862 76.3722 59.5697Z" fill="black"/>
<path fill-rule="evenodd" clip-rule="evenodd" d="M84.2036 62.6547C84.1143 62.4694 84.0514 62.2488 84.025 61.684L84.0166 61.518L83.911 61.6441C83.7851 61.7913 83.6616 61.9224 83.5418 62.0321C83.42 62.1427 83.2787 62.2564 83.121 62.371C82.7741 62.6395 82.4394 62.8284 82.1189 62.9381C81.7978 63.0479 81.4367 63.1009 81.0339 63.0969C80.3323 63.1009 79.7937 62.9256 79.4089 62.5816C79.1942 62.3786 79.0246 62.1229 78.9004 61.8127C78.778 61.5027 78.7145 61.1702 78.7119 60.8121C78.7195 59.494 79.4892 58.6447 81.0646 58.2677C81.4811 58.1659 81.9214 58.0824 82.3846 58.0181C82.8483 57.9525 83.3756 57.8986 83.9638 57.8568L84.025 56.7076C84.025 56.3144 84.0076 55.9954 83.971 55.7534C83.9345 55.508 83.8739 55.2938 83.7886 55.1134C83.5554 54.6346 83.0786 54.4054 82.3904 54.4054C81.2856 54.3987 80.6873 54.9522 80.625 56.0496C80.6192 56.2248 80.6035 56.3486 80.5812 56.4214C80.5603 56.4921 80.5243 56.5436 80.4738 56.5814C80.3636 56.6597 80.1885 56.7039 79.9379 56.7076C79.3958 56.7152 79.1931 56.5464 79.2021 56.2614C79.2055 55.964 79.2998 55.6757 79.488 55.398C79.6777 55.1195 79.9408 54.8766 80.281 54.6712C80.8924 54.3146 81.6754 54.133 82.6357 54.129C83.6868 54.133 84.3916 54.3823 84.7764 54.8613C84.9325 55.0619 85.0479 55.3112 85.1225 55.6126C85.1979 55.9125 85.2359 56.2943 85.2353 56.7579L85.2338 56.8551L85.2254 57.3049L85.2025 58.4923L85.186 60.124L85.1697 60.9142C85.1715 61.286 85.186 61.5695 85.2112 61.887C85.2347 62.1957 85.34 62.541 85.5755 62.6319C85.8203 62.7276 86.0566 62.7653 86.5062 62.7681C86.8362 62.762 87.0903 62.7215 87.2626 62.6447C87.4586 62.5578 87.5799 62.371 87.6324 62.1064C87.6828 61.8492 87.7043 61.4561 87.6997 60.9307V56.3245C87.7104 55.697 87.6411 55.256 87.4714 55.0253C87.3049 54.801 86.9958 54.7038 86.5712 54.709V54.463L88.91 54.2853V56.2425L89.0318 56.0133C89.3775 55.3666 89.7702 54.908 90.2078 54.6334C90.6446 54.3585 91.1922 54.221 91.8517 54.229C92.8442 54.2137 93.5342 54.5627 93.9382 55.2609C94.087 55.4952 94.1943 55.7762 94.2587 56.1066C94.3228 56.4367 94.3559 56.8578 94.3532 57.3717V60.9307C94.3474 61.4613 94.3683 61.8568 94.4171 62.1141C94.4675 62.3786 94.5861 62.5639 94.7834 62.6483C94.9469 62.7202 95.3269 62.758 95.6505 62.7666C95.9545 62.758 96.1888 62.7175 96.3498 62.6447C96.5409 62.5563 96.6572 62.3698 96.7063 62.1064C96.7541 61.8483 96.775 61.4561 96.7686 60.9307V52.5628C96.775 52.0828 96.7556 51.7275 96.71 51.498C96.6622 51.2581 96.5447 51.0945 96.3527 51.0226C96.1859 50.961 95.9359 50.932 95.6079 50.9305V50.6864L98.0401 50.5554C98.0097 51.1234 97.9867 51.7031 97.9705 52.2968C97.9548 52.9154 97.9467 53.4561 97.9467 53.9187V59.5404L100.626 56.4556C101.005 56.0146 101.212 55.644 101.216 55.3468C101.235 54.9333 100.838 54.7467 100.185 54.7126V54.4682H103.668V54.7163C103.459 54.7416 103.277 54.7821 103.122 54.8376C102.954 54.8979 102.781 54.9848 102.605 55.0969C102.426 55.2103 102.275 55.3151 102.154 55.4096C102.031 55.5065 101.885 55.6452 101.718 55.8241C101.551 56.0033 101.307 56.2742 100.988 56.6384L100.104 57.6389L102.419 61.4664C102.683 61.9199 102.926 62.2399 103.15 62.4213C103.363 62.5956 103.635 62.7074 103.962 62.7605V63.0101H101.845C101.787 62.8866 101.706 62.7251 101.604 62.5273L101.268 61.8809L101.009 61.3942L99.2968 58.4606L97.9502 60.0447L97.9467 60.9307C97.9403 61.4561 97.9609 61.8492 98.0097 62.1064C98.0592 62.371 98.177 62.5563 98.3713 62.6447C98.5416 62.7215 98.7939 62.762 99.1228 62.7681V63.0101H91.9663V62.7681C92.4509 62.7541 92.7842 62.6712 92.9173 62.4844C92.9707 62.4127 93.0113 62.3308 93.0403 62.2387C93.0681 62.1467 93.0858 62.0269 93.0939 61.8809C93.1035 61.766 93.1134 61.5996 93.1241 61.3817C93.1363 61.1626 93.1421 61.0124 93.1432 60.9319V57.475C93.1464 56.6232 93.0594 55.992 92.8758 55.5909C92.5962 54.9598 92.0927 54.6434 91.3784 54.6407C90.5814 54.6383 89.9465 55.0366 89.4758 55.8241C89.2983 56.1218 89.1605 56.4607 89.0608 56.8386C88.9625 57.2165 88.9108 57.5899 88.91 57.9553V60.9307C88.9039 61.4613 88.9247 61.8568 88.9732 62.1141C89.0236 62.3786 89.1423 62.5639 89.3398 62.6483C89.5123 62.7239 89.7684 62.762 90.1031 62.7681V63.0101H86.583C86.2713 63.0213 85.6758 63.0378 85.3814 63.0338C85.072 63.029 84.9232 62.9948 84.6416 62.9723C84.3916 62.8952 84.2863 62.8272 84.2036 62.6547ZM80.053 60.7603C80.0588 61.3214 80.1885 61.7761 80.4475 62.1189C80.707 62.4642 81.0577 62.6419 81.491 62.6495C81.9286 62.6434 82.3431 62.5234 82.7291 62.2917C83.1152 62.0586 83.42 61.7471 83.6401 61.3616C83.7744 61.1157 83.8724 60.7996 83.9336 60.415C83.9948 60.0344 84.025 59.5596 84.025 58.9912V58.1089C83.2407 58.1808 82.6798 58.2588 82.2729 58.3496C81.8622 58.4405 81.5 58.5703 81.1838 58.7416C80.435 59.1323 80.0588 59.8104 80.053 60.7603Z" fill="black"/>
<path fill-rule="evenodd" clip-rule="evenodd" d="M11.188 57.8217V60.8854C11.1819 61.3767 11.2089 61.7421 11.2684 61.9804C11.3287 62.2185 11.458 62.376 11.6584 62.4528C11.858 62.5296 12.1657 62.5741 12.5796 62.5814V63.0099H8V62.5814C8.3898 62.5741 8.67838 62.5296 8.86661 62.4528C9.05368 62.376 9.17462 62.2185 9.23002 61.9804C9.28483 61.7421 9.31007 61.3767 9.30427 60.8854V52.83C9.30949 52.3384 9.28541 51.973 9.23234 51.7347C9.17897 51.4951 9.06209 51.3366 8.88343 51.2571C8.70419 51.1775 8.42895 51.1312 8.05772 51.1172V50.6887H12.4198C13.8902 50.6823 14.9677 50.9548 15.6516 51.5064C16.3358 52.0586 16.6739 52.9269 16.6658 54.1155C16.671 55.784 16.0524 56.8763 14.8108 57.3932C14.4871 57.5254 14.0741 57.63 13.5726 57.7055C13.07 57.7811 12.512 57.8204 11.898 57.8217H11.188ZM11.188 57.3441H11.9421C12.8479 57.3401 13.5141 57.1161 13.9418 56.6684C14.1742 56.41 14.3502 56.0699 14.4709 55.6502C14.5904 55.2318 14.6513 54.753 14.6518 54.2136C14.6472 52.1848 13.8012 51.169 12.1161 51.1663H11.188V57.3441Z" fill="black"/>
<path fill-rule="evenodd" clip-rule="evenodd" d="M24.0385 58.3384H18.7106C18.7158 58.9357 18.7492 59.437 18.8101 59.8418C18.8707 60.2453 18.9684 60.6143 19.1024 60.9493C19.545 62.0333 20.2286 62.5752 21.1538 62.5752C21.6776 62.5715 22.1524 62.41 22.579 62.0888C23.0048 61.7676 23.3595 61.3049 23.6417 60.7039L24.019 60.966C23.6481 61.7423 23.1948 62.3119 22.6597 62.676C22.1245 63.039 21.472 63.2194 20.7008 63.2155C19.4882 63.199 18.3724 62.7919 17.674 61.9943C16.9751 61.1964 16.6189 60.1026 16.605 58.7163C16.6189 57.3186 16.9635 56.2136 17.6384 55.3992C18.3127 54.5855 19.3896 54.1695 20.5503 54.1519C21.322 54.1534 22.0674 54.3384 22.5964 54.7065C23.1254 55.0732 23.5155 55.6114 23.767 56.3196C23.8491 56.554 23.9117 56.8222 23.9538 57.1263C23.9961 57.4287 24.0245 57.8331 24.0385 58.3384ZM18.7254 57.8632H22.0584C22.0448 57.3564 22.0193 56.9484 21.981 56.6396C21.9436 56.3294 21.8832 56.0536 21.8023 55.8104C21.5204 54.9485 21.0883 54.5212 20.5053 54.5285C19.8513 54.5352 19.3637 55.0165 19.0421 55.974C18.9597 56.2224 18.8942 56.4946 18.8437 56.7896C18.7938 57.0846 18.7541 57.4424 18.7254 57.8632Z" fill="black"/>
<path fill-rule="evenodd" clip-rule="evenodd" d="M24.3795 54.3863L27.3349 54.172C27.3509 54.4823 27.3625 54.7416 27.3706 54.9522C27.3787 55.164 27.3825 55.349 27.3825 55.5105V56.0058C28.0246 54.7721 28.8002 54.1495 29.7091 54.1394C30.1018 54.147 30.4212 54.2677 30.6659 54.4996C30.9113 54.7328 31.0378 55.0314 31.045 55.3947C31.0395 55.697 30.9334 55.939 30.7269 56.1216C30.5206 56.3029 30.2492 56.3977 29.9136 56.4013C29.5099 56.4151 29.2636 56.2401 29.1746 55.8735C29.1163 55.6465 29.0563 55.4929 28.9936 55.4109C28.9316 55.3289 28.8402 55.2911 28.7184 55.2951H28.6874C28.3779 55.3225 28.0847 55.5809 27.8065 56.0725C27.6812 56.3169 27.587 56.5866 27.524 56.8826C27.4611 57.1788 27.4298 57.5204 27.4298 57.9063V60.9621C27.4234 61.45 27.4463 61.809 27.4974 62.041C27.5481 62.2714 27.6641 62.4225 27.844 62.4948C28.0246 62.5652 28.3051 62.6054 28.6874 62.6142V63.0101H24.3169V62.6142C24.6731 62.6154 24.9373 62.5792 25.1084 62.5048C25.2807 62.4305 25.3915 62.2753 25.4425 62.041C25.4941 61.8039 25.5167 61.4449 25.5121 60.9621V56.3852C25.526 55.7044 25.4616 55.2621 25.3172 55.058C25.1728 54.8538 24.8604 54.7617 24.3795 54.7834V54.3863Z" fill="black"/>
<path fill-rule="evenodd" clip-rule="evenodd" d="M34.5562 54.172L34.5722 55.8076C35.2088 54.7065 36.1206 54.1506 37.3077 54.1394C38.5148 54.1317 39.2593 54.709 39.5398 55.8747C39.8809 55.2734 40.2713 54.8336 40.7089 54.5551C41.1466 54.2741 41.6582 54.1354 42.2435 54.1394C43.1687 54.1442 43.8499 54.4645 44.2876 55.0969C44.4581 55.3377 44.5805 55.63 44.6527 55.9768C44.7258 56.3242 44.7612 56.7743 44.7592 57.3278V60.9621C44.7537 61.4448 44.7769 61.8038 44.8279 62.0394C44.879 62.2753 44.9906 62.4304 45.1618 62.5048C45.334 62.5791 45.598 62.6154 45.9541 62.613V63.0101H41.6933V62.613C42.0341 62.6154 42.287 62.5791 42.452 62.5048C42.6173 62.4304 42.7249 62.2753 42.7736 62.0394C42.8241 61.8038 42.8461 61.4448 42.8415 60.9621V57.3439C42.8453 56.476 42.7432 55.8494 42.537 55.4651C42.3302 55.0796 41.9967 54.8915 41.5361 54.8991C40.9833 54.8879 40.5166 55.1905 40.1373 55.8076C39.8101 56.3221 39.6471 56.8792 39.6494 57.4765V60.9621C39.6448 61.4448 39.6671 61.8038 39.717 62.0394C39.7675 62.2753 39.8762 62.4304 40.0433 62.5048C40.2109 62.5791 40.467 62.6154 40.8133 62.613V63.0101H36.5998V62.613C36.9403 62.6154 37.1935 62.5791 37.3588 62.5048C37.5238 62.4304 37.6311 62.2753 37.6801 62.0394C37.73 61.8038 37.7529 61.4448 37.7471 60.9621V57.3278C37.7552 55.6918 37.3309 54.8827 36.4739 54.8991C35.9408 54.9193 35.4936 55.1853 35.134 55.6958C34.7734 56.2075 34.5861 56.845 34.5722 57.6085V60.9621C34.5672 61.45 34.5893 61.8127 34.6392 62.0473C34.6888 62.2826 34.7958 62.4365 34.9608 62.5084C35.1261 62.5804 35.3787 62.6154 35.7198 62.613V63.0101H31.459V62.613C31.8157 62.6154 32.0788 62.5804 32.2511 62.5084C32.4225 62.4365 32.5341 62.2826 32.5852 62.0473C32.6365 61.8127 32.6594 61.45 32.6536 60.9621V56.3699C32.6704 55.697 32.6061 55.2621 32.461 55.0631C32.3166 54.8629 31.9932 54.7708 31.4909 54.7833V54.3862L34.5562 54.172Z" fill="black"/>
<path fill-rule="evenodd" clip-rule="evenodd" d="M57.1315 54.9282V60.4456C57.131 60.8046 57.1437 61.1021 57.169 61.3376C57.1942 61.5732 57.2342 61.771 57.2887 61.9322C57.3549 62.1166 57.4581 62.2638 57.5968 62.375C57.7363 62.4845 57.8906 62.5411 58.0585 62.5436C58.3946 62.5387 58.7612 62.3671 59.1597 62.0322L59.3796 62.4439C58.7482 63.001 58.0306 63.2759 57.2261 63.2707C56.3583 63.257 55.7667 62.9532 55.4491 62.3622C55.387 62.2312 55.3386 62.0825 55.3041 61.9136C55.2704 61.746 55.2461 61.5205 55.2327 61.2343C55.2194 60.9494 55.2127 60.5651 55.2133 60.0823V54.9282H54.3174V54.4329C54.6602 54.4189 54.9499 54.3433 55.1881 54.2059C55.4265 54.0675 55.6338 53.8521 55.8113 53.5571C55.9503 53.3328 56.0651 53.0832 56.1547 52.8098C56.2449 52.5361 56.3241 52.196 56.3928 51.7888L57.1791 51.7072C57.1687 51.9251 57.1591 52.1469 57.1524 52.3724C57.1458 52.5968 57.1402 52.8677 57.1371 53.1837C57.1333 53.5001 57.1315 53.906 57.1315 54.3988H59.0341V54.9282H57.1315Z" fill="black"/>
<path fill-rule="evenodd" clip-rule="evenodd" d="M54.3091 62.661V63.0099C53.8494 63.0416 53.6635 63.0416 53.18 63.0416C52.7963 63.0416 52.399 63.0349 52.0692 62.9054C51.8653 62.8246 51.7516 62.7554 51.5994 62.5878C51.4932 62.4101 51.4256 62.3998 51.3917 61.9073C50.9857 62.3684 50.5634 62.7061 50.1246 62.9243C49.6846 63.141 49.2112 63.2482 48.7037 63.2458C47.949 63.237 47.3588 63.0187 46.9325 62.589C46.5064 62.1593 46.2904 61.5684 46.2822 60.8171C46.2796 59.3994 47.1181 58.5183 48.7974 58.1742C49.5549 58.0194 50.414 57.9149 51.376 57.8594V56.7858C51.3839 55.926 51.2971 55.3302 51.1167 54.9986C50.9355 54.667 50.6133 54.5086 50.1498 54.5238C49.657 54.5122 49.3061 54.7 49.0964 55.0846C49.0204 55.2181 48.9644 55.3692 48.9293 55.542C48.8945 55.7133 48.8661 55.9513 48.8449 56.2576C48.8325 56.5526 48.7513 56.7617 48.601 56.8854C48.4511 57.0101 48.2127 57.0704 47.8858 57.068C47.1573 57.0619 46.7907 56.8083 46.7854 56.3079C46.7878 56.0156 46.8739 55.7358 47.0433 55.4713C47.2121 55.2053 47.4513 54.9721 47.7605 54.7707C48.4148 54.3474 49.2745 54.138 50.3389 54.1432C51.4207 54.138 52.1962 54.3635 52.6652 54.821C52.8766 55.0303 53.0318 55.2973 53.131 55.6213C53.2305 55.9464 53.2792 56.3624 53.2781 56.8702L53.2621 58.3068L53.2467 59.7435C53.234 60.2149 53.2282 60.5121 53.2311 60.6355C53.2253 61.2319 53.2432 61.6665 53.2844 61.9402C53.3259 62.2148 53.3712 62.3358 53.5423 62.4845C53.8425 62.6649 54.1 62.6597 54.3091 62.661ZM51.376 59.5128V58.2413C50.2504 58.3208 49.452 58.5397 48.9804 58.8965C48.5097 59.2543 48.2805 59.8114 48.2948 60.5691C48.2994 61.1637 48.4154 61.6351 48.6428 61.9841C48.8693 62.3333 49.1782 62.511 49.568 62.5183C49.8879 62.5159 50.1831 62.419 50.4543 62.2273C50.7252 62.0371 50.9378 61.7698 51.093 61.4285C51.1939 61.2194 51.2664 60.9646 51.3116 60.662C51.3554 60.3597 51.3772 59.9766 51.376 59.5128Z" fill="black"/>
<path fill-rule="evenodd" clip-rule="evenodd" d="M67.8455 62.661V63.0099C67.3855 63.0416 67.1999 63.0428 66.7164 63.0428C66.3324 63.0428 65.936 63.0364 65.6053 62.9066C65.4014 62.8261 65.288 62.7579 65.1361 62.5878C65.0296 62.4114 64.9618 62.401 64.9281 61.9085C64.5221 62.3684 64.0998 62.7073 63.6607 62.9255C63.221 63.141 62.7474 63.2494 62.2398 63.247C61.4852 63.2379 60.8952 63.0187 60.4689 62.5902C60.0428 62.1605 59.8268 61.5696 59.8184 60.8184C59.816 59.4006 60.6545 58.5198 62.3338 58.1758C63.0914 58.0206 63.9504 57.9161 64.9122 57.8606V56.787C64.92 55.9275 64.8333 55.3314 64.6529 54.9986C64.4719 54.667 64.1494 54.5098 63.6859 54.525C63.1934 54.5138 62.8422 54.7015 62.6325 55.0855C62.5565 55.2193 62.5006 55.3704 62.4658 55.5432C62.431 55.7145 62.4025 55.9525 62.3817 56.2588C62.3689 56.5526 62.2877 56.7617 62.1372 56.8866C61.9875 57.0113 61.7491 57.0716 61.4219 57.0692C60.6937 57.0631 60.3271 56.8098 60.3216 56.3094C60.3239 56.0168 60.41 55.7371 60.5794 55.4725C60.7482 55.2068 60.9878 54.9733 61.2966 54.7731C61.9512 54.3486 62.8109 54.1392 63.875 54.1444C64.9568 54.1392 65.7327 54.3647 66.2016 54.8222C66.4131 55.0315 66.5682 55.2988 66.6671 55.6225C66.7663 55.9477 66.8156 56.3637 66.8142 56.8702L66.7985 58.308L66.7832 59.7447C66.7704 60.2158 66.7646 60.5133 66.7672 60.6367C66.7617 61.2328 66.7797 61.6677 66.8206 61.9414C66.8623 62.216 66.9073 62.3373 67.0787 62.4857C67.3786 62.6661 67.6364 62.6597 67.8455 62.661ZM64.9122 59.5143V58.2413C63.7866 58.3221 62.9884 58.5412 62.5168 58.8978C62.0449 59.2558 61.8167 59.8126 61.8309 60.5703C61.8358 61.1652 61.9518 61.6363 62.1789 61.9853C62.4057 62.3346 62.7146 62.5122 63.1041 62.5195C63.4243 62.5171 63.7196 62.4202 63.9907 62.2285C64.2613 62.0383 64.4742 61.771 64.6288 61.4297C64.7303 61.2203 64.8028 60.9659 64.8475 60.6632C64.8919 60.3609 64.9136 59.9778 64.9122 59.5143Z" fill="black"/>
</g>
</svg>
