<svg width="112" height="80" viewBox="0 0 112 80" fill="none" xmlns="http://www.w3.org/2000/svg">
<rect x="-0.000976562" width="112" height="80" rx="6.4" fill="#F0592C"/>
<path d="M60.6756 34.3517C60.5153 35.7306 59.6793 36.847 58.3847 37.399C57.6592 37.7048 56.6904 37.8724 55.9133 37.8226C54.7178 37.7728 53.597 37.4766 52.5509 36.9506C52.1891 36.7514 51.6314 36.378 51.206 36.0293C51.1011 35.9297 51.0835 35.8798 51.1596 35.7767C51.193 35.7163 51.2677 35.6057 51.4208 35.3818C51.6543 35.0516 51.6793 35.008 51.7042 34.9657C51.7789 34.8585 51.8927 34.8488 52.0116 34.9334C52.0279 34.95 52.0279 34.95 52.0369 34.9581C52.0528 34.9754 52.0528 34.9754 52.0954 35.0079C52.1394 35.0416 52.1714 35.0577 52.1792 35.0768C53.3002 35.9543 54.605 36.4525 55.9223 36.5023C57.7507 36.4777 59.0647 35.6555 59.3068 34.3851C59.556 33.0024 58.4663 31.7954 56.3354 31.1224C55.6641 30.9232 53.9746 30.2484 53.6627 30.0607C52.2022 29.2052 51.5168 28.0824 51.6164 26.69C51.7659 24.7657 53.5536 23.3334 55.813 23.3209C56.8159 23.3209 57.8268 23.53 58.7859 23.9334C59.1318 24.0805 59.7491 24.415 59.9544 24.5749C60.0776 24.6661 60.1039 24.7657 60.0279 24.8772C60.0026 24.9453 59.9283 25.0467 59.7999 25.264C59.6127 25.5494 59.6057 25.5613 59.5718 25.6241C59.5051 25.7289 59.4098 25.7373 59.283 25.6623C58.2579 24.9651 57.1017 24.6162 55.8384 24.5914C54.2693 24.6162 53.0895 25.5515 53.0135 26.833C52.9979 27.9842 53.8576 28.8228 55.7195 29.4543C59.5063 30.6742 60.9508 32.0995 60.6756 34.3517ZM56.0061 14.4863C58.4664 14.4863 60.4764 16.8207 60.5759 19.7472H51.4422C51.53 16.8207 53.5459 14.4863 56.0061 14.4863ZM68.7579 20.3016C68.7579 19.9962 68.5215 19.7472 68.2199 19.7472H68.2002H62.2957C62.1463 15.8861 59.3844 12.8 56.0061 12.8C52.6257 12.8 49.871 15.8861 49.7237 19.7472H43.7945C43.4971 19.754 43.2611 19.9975 43.2611 20.3016C43.2611 20.3192 43.2611 20.3269 43.2611 20.3445H43.2544L44.0965 38.9682C44.0965 39.0186 44.1064 39.0694 44.1064 39.1299C44.1064 39.1417 44.108 39.1453 44.108 39.1675V39.196L44.1142 39.2059C44.241 40.5043 45.179 41.5394 46.4611 41.5901V41.6H65.2681C65.278 41.6 65.2838 41.6 65.2935 41.6C65.3081 41.6 65.3081 41.6 65.3188 41.6H65.3578V41.5901C66.6581 41.5585 67.7227 40.5043 67.8242 39.1916L67.8298 39.1675C67.8298 39.1552 67.8298 39.1418 67.8298 39.1299C67.8298 39.092 67.8397 39.0679 67.8397 39.0284L68.7579 20.3269C68.7579 20.3201 68.7579 20.3095 68.7579 20.3016Z" fill="white"/>
<path fill-rule="evenodd" clip-rule="evenodd" d="M30.2916 54.1429C29.2479 53.7691 28.2032 53.395 27.3854 52.6142C25.6074 51.041 26.3257 47.7848 28.4451 46.8765C30.3033 46.0246 32.6126 46.3689 34.2897 47.482C35.0674 47.8768 34.5123 49.4054 33.6485 48.9216C32.3603 48.2864 30.885 47.758 29.4513 48.2389C28.0414 48.5565 27.4685 50.7145 28.7063 51.5693C29.4549 52.1574 30.3523 52.4684 31.2492 52.7793C32.3261 53.1525 33.4022 53.5255 34.2184 54.3774C35.9133 55.8021 35.9875 58.6547 34.2333 60.0646C31.7785 62.0623 28.0117 61.2282 25.8211 59.2186C25.2706 58.6925 25.8673 58.2085 26.3005 57.8572C26.3414 57.824 26.3808 57.792 26.4177 57.7612C27.7564 58.6725 29.2169 59.6164 30.8999 59.6105C31.918 59.5689 33.0667 59.2157 33.6129 58.2866C34.0344 57.4555 33.9513 56.3127 33.2092 55.6864C32.393 54.8954 31.3428 54.5194 30.2916 54.1429ZM36.7438 59.5892L36.7422 59.4383C36.7556 57.198 36.7529 54.9576 36.7501 52.7172V52.7168C36.748 51.0036 36.7459 49.2903 36.7511 47.577C36.7481 47.114 36.8223 46.3808 37.4516 46.4372C37.977 46.3066 38.3688 46.7607 38.348 47.2564C38.4109 48.5662 38.3962 49.8787 38.3815 51.1901V51.1903V51.1904V51.1905V51.1906C38.3747 51.7991 38.3679 52.4073 38.3688 53.0149C39.2652 52.4925 40.2329 51.9701 41.3104 52.074C43.2071 52.0028 45.0772 53.6472 45.0623 55.5796C45.0742 57.1824 45.0623 58.7853 45.0475 60.3882C45.187 61.2223 43.9492 61.5043 43.5099 60.8869C43.3804 59.9773 43.4051 59.0563 43.4299 58.1357C43.4573 57.1156 43.4847 56.096 43.3021 55.0928C42.75 53.3919 40.1557 53.2851 39.1465 54.6238C38.2393 55.6855 38.3095 57.0082 38.38 58.3358C38.426 59.2018 38.4721 60.0699 38.2471 60.8691C37.977 61.3677 37.1667 61.3173 36.8401 60.9017C36.7523 60.4704 36.748 60.0272 36.7438 59.5892ZM47.632 59.658C46.4506 58.2688 46.1389 56.1405 47.0739 54.5376C47.7032 53.4097 48.843 52.635 50.0689 52.2788C52.3694 51.6079 54.9726 53.1604 55.6523 55.4192C55.9788 56.6986 55.8393 58.1441 55.0675 59.2424C53.5062 61.7061 49.4604 61.9228 47.632 59.658ZM54.0375 57.6514C54.8953 55.5914 52.6691 53.2939 50.5705 53.8846C48.4927 54.1547 47.3618 56.9093 48.8074 58.4885C50.1431 60.3466 53.34 59.8123 54.0375 57.6514ZM58.2462 52.2313C57.6941 51.9997 57.1242 52.6587 57.228 53.1989C57.2066 55.0923 57.2104 56.9856 57.2143 58.8794V58.8795V58.8797V58.8799V58.8807V58.881C57.2179 60.6563 57.2215 62.432 57.2043 64.2084C57.2123 64.342 57.2117 64.48 57.2112 64.6192C57.2095 65.0486 57.2078 65.4896 57.4566 65.8528C57.9197 66.0398 58.828 66.111 58.8339 65.4105C58.9149 64.2177 58.895 63.0207 58.8752 61.8243V61.8243V61.8242V61.8241V61.8238V61.8234V61.8231C58.8659 61.2663 58.8567 60.7097 58.8576 60.1537C61.0275 61.8575 64.6933 61.5369 66.0854 59.002C67.5073 56.7639 66.3853 53.5344 63.9512 52.5578C62.3276 51.7118 60.3566 52.1867 58.9823 53.2939C58.9255 53.1897 58.8855 53.0613 58.8445 52.9302C58.7421 52.602 58.6343 52.2567 58.2462 52.2313ZM60.769 54.0776C62.1789 53.4839 64.0163 53.9499 64.7228 55.3747C65.6667 56.8114 64.7406 58.8268 63.2089 59.3938C61.6743 60.127 59.6974 59.2009 59.1869 57.6039C58.611 56.2415 59.4837 54.6504 60.769 54.0776ZM75.8659 60.4683C74.1087 61.5606 71.6688 61.709 69.8967 60.5603C67.4894 58.7615 67.5814 54.5762 70.0332 52.8605C71.9715 51.4773 75.1625 52.1363 76.1212 54.3951C76.4537 55.2114 76.6704 56.1672 76.3498 57.0221C76.0751 57.2146 75.7392 57.2233 75.414 57.2317H75.414C75.328 57.2339 75.2427 57.2362 75.1595 57.2417C74.5315 57.2448 73.9031 57.2418 73.2746 57.2389H73.2744H73.2743C72.0909 57.2332 70.9071 57.2276 69.7245 57.2625C69.7748 57.3869 69.8226 57.5162 69.871 57.6472C70.1233 58.3289 70.3922 59.0558 71.1018 59.367C72.4079 59.9785 73.9098 59.6134 75.1862 59.0999C75.9431 58.6754 76.611 60.0913 75.8659 60.4683ZM73.7168 54.0775C72.9836 53.7748 72.1406 53.7688 71.3837 53.9796C70.7284 54.1622 70.3913 54.7663 70.0777 55.3284C70.0191 55.4334 69.9614 55.5369 69.9025 55.6359C71.5588 55.6626 73.2181 55.6596 74.8774 55.6359C74.8195 55.5269 74.7645 55.4129 74.709 55.2978C74.4744 54.8113 74.2305 54.3056 73.7168 54.0775ZM79.5895 60.3911C81.3201 61.7358 83.8817 61.5844 85.7131 60.5188C86.5265 60.1002 85.8052 58.5508 84.9829 59.1355C83.7778 59.6342 82.3708 59.9251 81.1212 59.4235C80.3277 59.1139 80.0199 58.3095 79.7361 57.5679C79.6961 57.4633 79.6566 57.3601 79.6163 57.2596C80.8325 57.2271 82.0488 57.2335 83.2651 57.2398C83.8298 57.2427 84.3945 57.2457 84.9592 57.2447C85.053 57.2386 85.1499 57.2369 85.2479 57.2352C85.621 57.2287 86.0093 57.222 86.3009 56.9657C86.6333 55.725 86.191 54.3625 85.3926 53.3919C83.944 51.9077 81.3676 51.7059 79.735 53.0119C77.5711 54.7721 77.4731 58.5508 79.5895 60.3911ZM79.8186 55.6419C80.2311 54.6267 81.0801 53.6888 82.2852 53.8372C83.4844 53.6799 84.4639 54.5199 84.7697 55.6389C83.1193 55.6597 81.4689 55.6567 79.8186 55.6419Z" fill="white"/>
</svg>
