<svg width="112" height="80" viewBox="0 0 112 80" fill="none" xmlns="http://www.w3.org/2000/svg">
<rect width="112" height="80" rx="4" fill="#F0592C"/>
<path fill-rule="evenodd" clip-rule="evenodd" d="M12.986 52.8607C13.8038 53.6415 14.8485 54.0156 15.8921 54.3894C16.9434 54.7659 17.9936 55.142 18.8098 55.9329C19.5519 56.5592 19.635 57.702 19.2135 58.5331C18.6673 59.4622 17.5186 59.8154 16.5005 59.857C14.8174 59.8629 13.357 58.919 12.0183 58.0077C11.9814 58.0385 11.942 58.0705 11.901 58.1037C11.4679 58.455 10.8712 58.939 11.4217 59.4652C13.6123 61.4747 17.3791 62.3088 19.8339 60.3111C21.5881 58.9012 21.5139 56.0487 19.819 54.6239C19.0028 53.772 17.9267 53.399 16.8498 53.0258C15.9529 52.715 15.0554 52.4039 14.3069 51.8159C13.0691 50.961 13.642 48.803 15.0519 48.4854C16.4856 48.0046 17.9609 48.5329 19.2491 49.1681C20.1129 49.652 20.668 48.1233 19.8903 47.7285C18.2132 46.6154 15.9038 46.2711 14.0457 47.123C11.9263 48.0313 11.208 51.2875 12.986 52.8607ZM22.3421 59.6848L22.3437 59.8357C22.3479 60.2737 22.3522 60.7169 22.44 61.1482C22.7665 61.5638 23.5769 61.6142 23.847 61.1155C24.072 60.3164 24.0259 59.4483 23.9799 58.5823C23.9094 57.2546 23.8392 55.932 24.7464 54.8702C25.7556 53.5315 28.3499 53.6384 28.902 55.3392C29.0846 56.3425 29.0572 57.3621 29.0298 58.3822C29.005 59.3028 28.9803 60.2238 29.1098 61.1334C29.5491 61.7508 30.7869 61.4688 30.6474 60.6347C30.6622 59.0318 30.6741 57.4289 30.6622 55.826C30.6771 53.8937 28.807 52.2492 26.9103 52.3205C25.8328 52.2166 24.8651 52.739 23.9687 53.2614C23.9678 52.6536 23.9746 52.0452 23.9814 51.4366C23.9961 50.1251 24.0108 48.8126 23.9479 47.5029C23.9687 47.0072 23.5769 46.5531 23.0515 46.6837C22.4222 46.6273 22.348 47.3604 22.351 47.8235C22.3458 49.5368 22.3479 51.25 22.35 52.9633V52.9637C22.3528 55.2041 22.3555 57.4445 22.3421 59.6848ZM73.8518 61.7834L73.8527 61.7833C74.1851 61.7797 74.5178 61.776 74.8513 61.7715C75.0067 60.7754 75.1822 59.784 75.3577 58.7928L75.3577 58.7927L75.3577 58.7925L75.3578 58.7924L75.3578 58.7922L75.3578 58.7921L75.3578 58.7919L75.3579 58.7918C75.4605 58.2121 75.5631 57.6324 75.6617 57.0519C75.9189 57.0477 76.1765 57.0468 76.4341 57.0459H76.4343C77.2588 57.0431 78.0844 57.0403 78.903 56.9273C81.1708 56.58 83.1566 54.3656 82.7826 52.0118C82.5778 50.5514 81.1827 49.5303 79.7668 49.465C78.9122 49.4327 78.0577 49.439 77.2031 49.4453C76.4845 49.4506 75.7658 49.4559 75.0472 49.4383C74.6246 51.7738 74.2105 54.1103 73.7964 56.4473C73.4805 58.2298 73.1646 60.0125 72.8447 61.7953C73.1803 61.7908 73.5159 61.7871 73.8518 61.7834ZM76.0001 55.1493C76.1377 54.4218 76.2686 53.6934 76.3993 52.9657L76.3999 52.9622L76.4006 52.9588C76.4977 52.4179 76.5948 51.8774 76.6946 51.338C77.0378 51.3511 77.3855 51.3405 77.7339 51.3299C78.4882 51.307 79.2458 51.284 79.9687 51.5012C81.1174 52.0118 80.9541 53.6918 80.1349 54.4398C79.3246 55.2413 78.2091 55.1979 77.1266 55.1557C76.7418 55.1407 76.3613 55.1259 76.0001 55.1493ZM33.2328 59.9045C32.0514 58.5153 31.7397 56.387 32.6747 54.7842C33.304 53.6562 34.4438 52.8815 35.6698 52.5253C37.9702 51.8544 40.5734 53.4069 41.2531 55.6657C41.5796 56.9451 41.4401 58.3906 40.6684 59.4889C39.107 61.9526 35.0612 62.1693 33.2328 59.9045ZM39.6384 57.8979C40.4962 55.8379 38.27 53.5404 36.1714 54.1311C34.0936 54.4013 32.9627 57.1558 34.4082 58.735C35.744 60.5931 38.9408 60.0588 39.6384 57.8979ZM43.8474 52.4778C43.2953 52.2463 42.7254 52.9052 42.8293 53.4455C42.8078 55.3387 42.8117 57.2319 42.8155 59.1255V59.1257V59.1259V59.1261V59.1262V59.1264V59.1272V59.1275C42.8192 60.9028 42.8228 62.6785 42.8055 64.4549C42.8135 64.5886 42.813 64.7265 42.8124 64.8657C42.8107 65.2951 42.809 65.7361 43.0578 66.0993C43.5209 66.2863 44.4292 66.3576 44.4351 65.657C44.5162 64.4643 44.4963 63.2673 44.4764 62.071V62.0709V62.0708V62.0708V62.0707V62.0706V62.0703V62.07V62.0696V62.0693V62.0689C44.4672 61.5124 44.4579 60.956 44.4589 60.4002C46.6287 62.104 50.2946 61.7834 51.6867 59.2485C53.1085 57.0104 51.9865 53.7809 49.5525 52.8043C47.9288 51.9583 45.9579 52.4333 44.5836 53.5404C44.5268 53.4362 44.4867 53.3078 44.4458 53.1767C44.3433 52.8485 44.2356 52.5032 43.8474 52.4778ZM46.3705 54.3241C47.7804 53.7304 49.6178 54.1964 50.3242 55.6212C51.2682 57.0579 50.3421 59.0734 48.8104 59.6403C47.2758 60.3735 45.2989 59.4474 44.7884 57.8504C44.2125 56.488 45.0852 54.897 46.3705 54.3241ZM61.4672 60.7148C59.71 61.8072 57.2701 61.9556 55.498 60.8068C53.0907 59.0081 53.1827 54.8227 55.6345 53.1071C57.5728 51.7238 60.7638 52.3828 61.7225 54.6417C62.055 55.458 62.2717 56.4138 61.9511 57.2686C61.6764 57.4611 61.3405 57.4698 61.0153 57.4783L61.0153 57.4783C60.9292 57.4805 60.844 57.4827 60.7608 57.4883C60.1329 57.4914 59.5046 57.4884 58.8762 57.4854H58.876H58.8759H58.8757H58.8756C57.6922 57.4798 56.5084 57.4742 55.3258 57.5091C55.3761 57.6334 55.4239 57.7627 55.4723 57.8937C55.7246 58.5754 55.9935 59.3023 56.7031 59.6136C58.0092 60.2251 59.5111 59.86 60.7875 59.3464C61.5444 58.922 62.2123 60.3379 61.4672 60.7148ZM59.3182 54.3241C58.585 54.0213 57.742 54.0154 56.9851 54.2261C56.3298 54.4087 55.9927 55.0128 55.6791 55.5749C55.6205 55.6799 55.5628 55.7834 55.5039 55.8824C57.1602 55.9091 58.8195 55.9062 60.4788 55.8824C60.4209 55.7735 60.366 55.6595 60.3105 55.5445L60.3104 55.5444C60.0758 55.0578 59.8319 54.5521 59.3182 54.3241ZM65.1895 60.6376C66.92 61.9823 69.4817 61.8309 71.3131 60.7653C72.1264 60.3468 71.4051 58.7973 70.5829 59.3821C69.3778 59.8807 67.9708 60.1716 66.7211 59.67C65.9276 59.3604 65.6198 58.556 65.3361 57.8144C65.2961 57.7098 65.2565 57.6066 65.2162 57.5061C66.4325 57.4737 67.6488 57.48 68.8651 57.4863C69.4298 57.4893 69.9945 57.4922 70.5592 57.4912C70.653 57.4851 70.7499 57.4834 70.8478 57.4817C71.2209 57.4752 71.6093 57.4685 71.9008 57.2122C72.2333 55.9715 71.791 54.609 70.9925 53.6384C69.544 52.1542 66.9675 51.9524 65.3349 53.2585C63.1711 55.0187 63.0731 58.7973 65.1895 60.6376ZM65.4181 55.8884C65.8307 54.8732 66.6796 53.9352 67.8847 54.0836C69.0839 53.9263 70.0634 54.7663 70.3692 55.8854C68.7188 55.9062 67.0684 55.9032 65.4181 55.8884ZM88.0157 54.7159C86.7839 53.9055 85.2641 54.5823 84.2549 55.4312L83.0705 54.3894C84.059 53.5197 85.2463 52.8073 86.5939 52.7242C87.7486 52.6559 89.1081 52.7717 89.9184 53.7067C90.5239 54.3359 90.6219 55.2888 90.4824 56.1169C90.2585 57.5335 89.9998 58.9434 89.741 60.3542C89.6533 60.8324 89.5655 61.3107 89.4791 61.7893C88.838 61.7864 88.1968 61.7834 87.5586 61.7834L87.7842 60.7504C86.5464 61.9942 84.4835 62.5849 82.9281 61.5816C81.4617 60.5961 81.7793 58.3372 82.9963 57.2805C84.4953 55.8735 86.7601 55.9804 88.6035 56.5236C88.5825 56.3786 88.5752 56.2214 88.5677 56.0613C88.5434 55.5396 88.5176 54.9861 88.0157 54.7159ZM88.3244 58.0968C87.1698 57.6337 85.742 57.3191 84.6319 58.0582C83.8779 58.5361 83.593 59.8451 84.5339 60.2904C86.1694 61.0027 87.8584 59.6403 88.3244 58.0968ZM92.2286 55.6527C91.9969 54.7709 91.7652 53.8892 91.5302 53.0091H93.7C93.9274 53.9172 94.144 54.8279 94.3607 55.7387C94.6136 56.8018 94.8665 57.8651 95.1367 58.9249C95.947 57.6914 96.6825 56.4138 97.4181 55.1361C97.8278 54.4246 98.2375 53.7131 98.66 53.0091C99.3695 53.0091 100.079 53.0121 100.791 53.015L100.8 53.0151C99.8575 54.5382 98.9211 56.0652 97.9847 57.5923C96.3589 60.2437 94.733 62.8952 93.0737 65.5264C92.6245 65.5205 92.1752 65.5172 91.726 65.5139C91.5014 65.5123 91.2769 65.5106 91.0523 65.5086C91.3575 65.024 91.6661 64.5414 91.9748 64.0588C92.5698 63.1285 93.165 62.198 93.7356 61.2521C93.2113 59.3926 92.7198 57.5221 92.2286 55.6527Z" fill="white"/>
<path d="M60.6214 35.9517C60.4611 37.3306 59.6251 38.4471 58.3305 38.999C57.605 39.3049 56.6362 39.4725 55.8591 39.4226C54.6636 39.3728 53.5428 39.0766 52.4967 38.5507C52.1349 38.3515 51.5772 37.978 51.1518 37.6293C51.0469 37.5297 51.0293 37.4799 51.1054 37.3768C51.1388 37.3163 51.2135 37.2058 51.3666 36.9818C51.6001 36.6516 51.6251 36.608 51.65 36.5657C51.7247 36.4586 51.8385 36.4488 51.9574 36.5335C51.9737 36.5501 51.9737 36.5501 51.9827 36.5581C51.9986 36.5755 51.9986 36.5755 52.0412 36.6079C52.0852 36.6417 52.1172 36.6578 52.125 36.6768C53.246 37.5543 54.5508 38.0525 55.8681 38.1023C57.6965 38.0777 59.0105 37.2556 59.2526 35.9851C59.5018 34.6025 58.4121 33.3955 56.2812 32.7224C55.6099 32.5232 53.9204 31.8484 53.6085 31.6607C52.148 30.8053 51.4626 29.6825 51.5622 28.2901C51.7117 26.3657 53.4994 24.9335 55.7588 24.9209C56.7617 24.9209 57.7726 25.13 58.7317 25.5334C59.0776 25.6806 59.6949 26.015 59.9002 26.1749C60.0234 26.2662 60.0497 26.3657 59.9737 26.4773C59.9484 26.5453 59.8741 26.6467 59.7457 26.864C59.5585 27.1495 59.5515 27.1614 59.5176 27.2242C59.4509 27.329 59.3556 27.3373 59.2288 27.2623C58.2037 26.5652 57.0475 26.2163 55.7842 26.1914C54.2151 26.2163 53.0353 27.1515 52.9593 28.433C52.9437 29.5842 53.8034 30.4228 55.6653 31.0543C59.4521 32.2743 60.8966 33.6996 60.6214 35.9517ZM55.9519 16.0864C58.4122 16.0864 60.4222 18.4208 60.5217 21.3472H51.388C51.4758 18.4208 53.4917 16.0864 55.9519 16.0864ZM68.7037 21.9017C68.7037 21.5963 68.4673 21.3472 68.1657 21.3472H68.146H62.2415C62.0921 17.4862 59.3302 14.4 55.9519 14.4C52.5715 14.4 49.8168 17.4862 49.6695 21.3472H43.7403C43.4429 21.354 43.2069 21.5976 43.2069 21.9017C43.2069 21.9192 43.2069 21.927 43.2069 21.9445H43.2002L44.0423 40.5682C44.0423 40.6186 44.0522 40.6694 44.0522 40.7299C44.0522 40.7417 44.0538 40.7454 44.0538 40.7676V40.7961L44.06 40.8059C44.1868 42.1043 45.1248 43.1395 46.4069 43.1902V43.2H65.2139C65.2238 43.2 65.2296 43.2 65.2393 43.2C65.2539 43.2 65.2539 43.2 65.2646 43.2H65.3036V43.1902C66.6039 43.1586 67.6685 42.1043 67.77 40.7917L67.7756 40.7676C67.7756 40.7552 67.7756 40.7418 67.7756 40.7299C67.7756 40.692 67.7855 40.6679 67.7855 40.6285L68.7037 21.927C68.7037 21.9201 68.7037 21.9095 68.7037 21.9017Z" fill="white"/>
</svg>
