<svg width="112" height="80" viewBox="0 0 112 80" fill="none" xmlns="http://www.w3.org/2000/svg">
<rect width="112" height="80" rx="6.4" fill="white"/>
<g clip-path="url(#clip0_554_2145)">
<path fill-rule="evenodd" clip-rule="evenodd" d="M58.6482 49.3116C59.5258 49.1865 60.3248 48.9443 61.1146 48.5859C61.8034 48.2732 62.4928 47.806 63.0507 47.3356C63.6158 46.8593 64.1347 46.2703 64.5691 45.6648C66.2459 43.3271 66.62 39.8942 65.4136 37.2511C64.5039 35.2583 63.2411 33.9192 61.2406 32.884C60.7974 32.6547 60.2518 32.4484 59.7138 32.3021C59.4166 32.2214 59.1286 32.1606 58.8296 32.113C57.8805 31.9621 56.9672 31.9625 56.0182 32.1131C55.1884 32.2447 54.3319 32.5098 53.6067 32.8841C52.41 33.5019 51.6705 34.0824 50.8706 34.9584C48.6537 37.3862 48.1285 41.298 49.4956 44.2871C49.7743 44.8967 50.5148 46.1402 50.9952 46.5669C51.1206 46.6782 51.1331 46.6961 51.2397 46.8122C51.823 47.4471 52.7565 48.1294 53.7318 48.5877C54.4777 48.9382 55.3632 49.1935 56.199 49.3122C57.0305 49.4303 57.8168 49.4303 58.6482 49.3116Z" fill="#FEDD00"/>
<path fill-rule="evenodd" clip-rule="evenodd" d="M85.9709 37.6445C85.9589 37.0594 85.9288 36.6299 85.4092 36.4888C84.8771 36.3442 84.4346 36.7326 84.4346 37.2433V44.1614C84.4346 44.7131 84.9727 45.1064 85.517 44.8753C86.0479 44.6499 85.9678 44.0102 85.9678 43.3764C85.9678 42.0845 85.9715 40.7921 85.9678 39.5003C85.9662 39.0102 85.8928 38.7677 86.6365 38.2428C87.0121 37.9777 87.4669 37.7013 88.0908 37.7249C89.5028 37.7785 89.4391 38.9696 89.4391 40.2363C89.4391 41.5153 89.4045 42.8414 89.4375 44.1144C89.4473 44.4915 89.5259 44.5904 89.7353 44.7718C89.9288 44.9396 90.2123 44.9859 90.486 44.8888C91.049 44.6891 90.9722 44.0564 90.9722 43.4255C90.9722 42.1335 90.9738 40.8414 90.9722 39.5494C90.9714 38.9959 90.8678 38.8223 91.6044 38.2565C91.9531 37.9887 92.4511 37.7224 93.0446 37.7224C94.7494 37.7224 94.4674 39.5228 94.4674 40.9723C94.4674 41.365 94.4207 44.2129 94.5125 44.462C94.7601 45.1336 96.0007 45.1777 96.0007 44.0633V38.9115C96.0007 35.1211 91.7778 36.2398 90.8974 37.8361L90.8154 37.7065C90.342 36.8037 89.9105 36.3602 88.5797 36.3602C88.0411 36.3602 87.4775 36.5527 87.079 36.7743C86.3767 37.1649 86.3683 37.3288 85.9709 37.6445Z" fill="#0064D2"/>
<path fill-rule="evenodd" clip-rule="evenodd" d="M30.854 40.2363C30.995 40.0328 31.0918 39.9504 31.2681 39.7424C31.3959 39.5917 31.5542 39.4237 31.6762 39.2665L32.1065 38.764C32.1899 38.6692 32.2399 38.6372 32.3206 38.5376C32.4054 38.4329 32.4297 38.3905 32.5218 38.2968C33.6114 37.1886 32.5607 36.2508 31.7779 36.375C31.335 36.4453 31.011 36.9265 30.7868 37.1992C30.5133 37.532 30.2182 37.8424 29.9562 38.184C29.837 38.3394 28.4713 40.0165 28.303 40.0768V34.9864C28.3031 34.3838 28.3717 33.9543 28.0236 33.5743C27.3956 32.8884 26.1395 33.2421 26.1191 34.3464C26.0799 36.4748 26.1203 38.9483 26.1203 41.1194C26.1203 41.7811 25.999 43.9494 26.2749 44.3517C26.5454 44.7462 26.9871 44.9314 27.4709 44.8239C27.8812 44.7327 28.2171 44.3767 28.2835 43.9635C28.4079 43.1893 28.1137 42.7539 28.4726 42.442C28.7682 42.1851 28.9654 41.8012 29.3211 41.5985L30.7429 43.7092C30.9489 44.0082 31.2429 44.5316 31.522 44.6967C31.9752 44.9648 32.542 44.8754 32.8476 44.5586C33.1586 44.2362 33.3658 43.7605 33.0709 43.2459L30.854 40.2363Z" fill="#0064D2"/>
<path fill-rule="evenodd" clip-rule="evenodd" d="M35.639 39.8315C35.6285 39.3003 35.9883 38.7931 36.2507 38.542C37.4237 37.4192 39.6977 38.2018 39.6494 39.8315H35.639ZM35.6558 41.3332C36.7318 41.1749 40.635 41.5443 41.243 41.1815C41.9746 40.745 41.7828 39.8271 41.4891 38.998C40.9849 37.5754 39.8901 36.6063 38.4122 36.3399C36.1569 35.9333 33.8777 37.3044 33.4394 39.7548C32.7863 43.4052 35.8754 45.7019 39.4117 44.7481C40.0784 44.5683 41.0868 44.2456 40.9722 43.4383C40.9183 43.0586 40.6306 42.8131 40.2574 42.7257C39.8347 42.6268 39.5338 42.8736 39.1844 42.9971C37.4422 43.6127 35.9341 42.9016 35.6558 41.3332Z" fill="#0064D2"/>
<path fill-rule="evenodd" clip-rule="evenodd" d="M78.9753 37.7714C80.6494 37.4254 81.8083 38.7614 81.9869 40.204C82.1989 41.9169 81.3055 43.3822 79.9139 43.6353C76.4265 44.2695 75.6862 38.4513 78.9753 37.7714ZM75.2832 40.5798C75.2832 43.0975 76.8811 45.033 79.2574 45.033H79.6499C81.9813 45.033 83.6348 43.0441 83.6205 40.6777C83.5851 34.8561 75.2832 35.0133 75.2832 40.5798Z" fill="#0064D2"/>
<path fill-rule="evenodd" clip-rule="evenodd" d="M17.4554 36.4779C17.1172 36.4957 15.9838 36.3634 16.0002 37.4399C16.0164 38.5024 17.0805 38.3817 17.4554 38.4013C17.5924 39.2435 17.3554 42.083 17.499 43.1723C17.6884 44.6079 18.8741 45.1341 20.4478 44.9194C21.1418 44.8247 21.7313 44.4743 21.5109 43.6665C21.2521 42.7179 20.4221 43.2298 19.9424 42.8322C19.4925 42.4593 19.656 41.399 19.656 40.727C19.656 40.1337 19.5886 38.921 19.6731 38.4013C20.0994 38.379 21.4349 38.6163 21.4291 37.4397C21.4233 36.2718 20.1363 36.5022 19.6731 36.4779C19.5939 35.9905 19.7418 35.2832 19.593 34.8386C19.262 33.8495 17.8234 33.9342 17.5281 34.8301C17.3881 35.2548 17.5329 36.0016 17.4554 36.4779Z" fill="#0064D2"/>
<path fill-rule="evenodd" clip-rule="evenodd" d="M43.0664 36.4779C42.735 36.4953 41.6044 36.3653 41.6223 37.4396C41.64 38.5023 42.6835 38.3813 43.0664 38.4013C43.2011 39.2294 42.9701 42.0061 43.1173 43.1653C43.3006 44.6084 44.4864 45.1289 46.0589 44.9203C46.7588 44.8275 47.3546 44.4756 47.1292 43.6603C46.8698 42.7221 46.0806 43.2318 45.5511 42.8351C45.1146 42.508 45.267 41.3205 45.267 40.727C45.267 40.1337 45.1997 38.921 45.2842 38.4013C45.7339 38.3777 47.0519 38.6096 47.0464 37.4396C47.0408 36.262 45.7177 36.5007 45.2842 36.4779C45.2067 36.0016 45.3515 35.2548 45.2115 34.8301C44.9075 33.9079 43.4622 33.8751 43.1469 34.8386C42.9992 35.29 43.1461 35.9889 43.0664 36.4779Z" fill="#0064D2"/>
<path fill-rule="evenodd" clip-rule="evenodd" d="M67.8359 40.4817V40.8741C67.8359 43.1228 69.5697 45.033 71.7985 45.033C72.6306 45.033 73.087 45.0183 73.854 44.6481C74.1129 44.5231 74.2621 44.4151 74.4768 44.2406C74.6639 44.0885 74.893 43.9743 74.9133 43.6232C74.9516 42.9568 74.1744 42.7101 73.6714 43.0914C73.1065 43.5195 72.8288 43.6708 71.9948 43.6708C68.6079 43.6708 68.4731 37.7224 72.0929 37.7224C73.6337 37.7224 73.6645 38.743 74.4439 38.4674C75.0428 38.2556 75.2306 37.4508 73.8574 36.754C71.5361 35.5762 67.8359 37.0203 67.8359 40.4817Z" fill="#0064D2"/>
<path fill-rule="evenodd" clip-rule="evenodd" d="M22.5049 44.0142C22.6349 44.6489 23.4774 45.139 24.1474 44.6913C24.8331 44.2332 24.6606 43.4988 24.6606 42.5423C24.6606 41.7472 24.7109 37.6674 24.6437 37.2481C24.5323 36.553 23.6993 36.11 22.9701 36.5462C22.3207 36.9346 22.4771 37.8626 22.4771 38.7153C22.4771 39.4849 22.4239 43.6182 22.5049 44.0142Z" fill="#0064D2"/>
</g>
<defs>
<clipPath id="clip0_554_2145">
<rect width="80" height="17.4006" fill="white" transform="translate(16 32)"/>
</clipPath>
</defs>
</svg>
