<svg width="112" height="80" viewBox="0 0 112 80" fill="none" xmlns="http://www.w3.org/2000/svg">
<rect width="112" height="80" rx="6.4" fill="white"/>
<g clip-path="url(#clip0_554_2254)">
<path fill-rule="evenodd" clip-rule="evenodd" d="M56.0071 19.2987C57.6543 18.4751 59.6529 18.0266 61.4824 17.8681L63.5366 17.6894C65.7885 17.4953 68.0416 17.6137 70.2947 17.6137H71.5312V18.8502C71.5312 24.3374 71.5312 29.8268 71.5312 35.3151V35.9459C71.5312 41.6117 66.8985 46.2444 61.2303 46.2444H40.4688V17.6137H41.7042C43.9608 17.6137 46.2056 17.4657 48.461 17.6409L50.5164 17.7959C52.4678 17.9426 54.2546 18.4171 56.0071 19.2987Z" fill="#4D4C4B"/>
<path fill-rule="evenodd" clip-rule="evenodd" d="M41.7041 18.8503V32.9544V35.3152V35.9459V45.0102H50.7661H52.1908H61.2303C66.2169 45.0102 70.2946 40.9301 70.2946 35.9459V35.3152C70.2946 29.8588 70.2946 24.5362 70.2946 18.8503C68.1291 18.8503 65.8406 18.797 63.6443 18.9213L61.5888 19.0988C59.5772 19.3425 57.5418 19.8123 56 20.7022C54.335 19.7401 52.5198 19.2621 50.4229 19.0278L48.3675 18.8716C46.1262 18.7674 43.8282 18.8503 41.7041 18.8503Z" fill="#5FB74E"/>
<path fill-rule="evenodd" clip-rule="evenodd" d="M44.2666 45.0103H50.7655H52.1902H61.2297C63.439 45.0103 65.4684 44.2091 67.0434 42.885C65.2033 38.6072 60.9504 35.6134 55.9982 35.6134C50.2614 35.6134 45.463 39.632 44.2666 45.0103Z" fill="#89C45F"/>
<path fill-rule="evenodd" clip-rule="evenodd" d="M56 45.0102L61.3368 44.9309C63.5154 44.9309 65.4998 44.1617 67.0452 42.8861C69.0344 41.2412 70.2947 38.7515 70.2947 35.9458V35.3151C70.2947 29.8588 70.2947 24.5361 70.2947 18.8502C68.1292 18.8502 65.8406 18.797 63.6443 18.9212L61.5889 19.0987C59.5772 19.3425 57.5419 19.8123 56 20.7021V45.0102Z" fill="#4A9E4B"/>
<path fill-rule="evenodd" clip-rule="evenodd" d="M56 45.0102H61.2635C63.4728 45.0102 65.469 44.2091 67.0452 42.8861C65.2253 38.6557 60.8801 35.6808 56 35.6157V45.0102Z" fill="#5FB74E"/>
<path fill-rule="evenodd" clip-rule="evenodd" d="M63.644 18.0645C63.2512 14.2069 59.9899 11.2 56.0316 11.2C52.0746 11.2 48.8157 14.1808 48.3672 18.0172L50.4226 18.1734C50.7859 15.4032 53.1467 13.2602 56.0234 13.2602C58.8989 13.2602 61.2809 15.4387 61.5886 18.242L63.644 18.0645Z" fill="#4D4C4B"/>
<path fill-rule="evenodd" clip-rule="evenodd" d="M59.3431 36.8192C58.4473 37.767 57.5527 38.7137 56.6581 39.6627L55.999 40.3609L55.341 39.6627C54.4464 38.7161 53.5518 37.767 52.656 36.8192L52.1934 36.3269L52.5318 35.7435C53.2501 34.5046 54.5932 33.8384 55.999 33.8384C57.4071 33.8384 58.749 34.5046 59.4673 35.7435L59.8069 36.3269L59.3431 36.8192Z" fill="#4D4C4B"/>
<path fill-rule="evenodd" clip-rule="evenodd" d="M58.6834 36.1979C57.79 37.1458 56.8931 38.0924 55.9985 39.0415C55.1039 38.0924 54.2093 37.1458 53.3135 36.1979C53.8791 35.224 54.9406 34.7424 55.9985 34.7436C57.0575 34.7424 58.1178 35.224 58.6834 36.1979Z" fill="#FDF8B4"/>
<path fill-rule="evenodd" clip-rule="evenodd" d="M58.683 36.1979C57.7896 37.1458 56.8926 38.0924 55.998 39.0415V34.7436C57.0571 34.7424 58.1174 35.224 58.683 36.1979Z" fill="#FCD066"/>
<path fill-rule="evenodd" clip-rule="evenodd" d="M49.2904 22.4156C53.3008 22.4156 56.5537 25.6698 56.5537 29.6778C56.5537 33.6881 53.3008 36.9411 49.2904 36.9411C45.2801 36.9411 42.0283 33.6881 42.0283 29.6778C42.0283 25.6698 45.2801 22.4156 49.2904 22.4156Z" fill="#4D4C4B"/>
<path fill-rule="evenodd" clip-rule="evenodd" d="M49.2904 23.6511C52.6191 23.6511 55.3183 26.3502 55.3183 29.6778C55.3183 33.0065 52.6191 35.7057 49.2904 35.7057C45.9605 35.7057 43.2637 33.0065 43.2637 29.6778C43.2637 26.3502 45.9605 23.6511 49.2904 23.6511Z" fill="#EEEFEE"/>
<path fill-rule="evenodd" clip-rule="evenodd" d="M49.29 23.6511C52.0366 23.6511 54.3559 25.49 55.0813 28.0034C54.3559 30.5156 52.0366 32.3545 49.29 32.3545C46.5423 32.3545 44.2266 30.5156 43.5 28.0034C44.2266 25.49 46.5423 23.6511 49.29 23.6511Z" fill="#FEFEFE"/>
<path fill-rule="evenodd" clip-rule="evenodd" d="M62.7086 22.4156C66.7189 22.4156 69.9707 25.6698 69.9707 29.6778C69.9707 33.6881 66.7189 36.9411 62.7086 36.9411C58.6983 36.9411 55.4453 33.6904 55.4453 29.6778C55.4453 25.6698 58.6983 22.4156 62.7086 22.4156Z" fill="#4D4C4B"/>
<path fill-rule="evenodd" clip-rule="evenodd" d="M62.7074 23.6511C66.0349 23.6511 68.7341 26.3502 68.7341 29.6778C68.7341 33.0065 66.0349 35.7057 62.7074 35.7057C59.3787 35.7057 56.6807 33.0065 56.6807 29.6778C56.6807 26.3502 59.3787 23.6511 62.7074 23.6511Z" fill="#EEEFEE"/>
<path fill-rule="evenodd" clip-rule="evenodd" d="M62.7075 23.6511C65.454 23.6511 67.7721 25.49 68.4975 28.0034C67.7721 30.5156 65.454 32.3545 62.7075 32.3545C59.9598 32.3545 57.6416 30.5156 56.915 28.0034C57.6416 25.49 59.9598 23.6511 62.7075 23.6511Z" fill="#FEFEFE"/>
<path fill-rule="evenodd" clip-rule="evenodd" d="M50.0475 25.9302C52.1976 25.9302 53.9406 27.6732 53.9406 29.8198C53.9406 31.9711 52.1976 33.7141 50.0475 33.7141C47.8973 33.7141 46.1543 31.9711 46.1543 29.8198C46.1543 29.1039 46.3495 28.4329 46.688 27.8555C46.9661 28.543 47.6382 29.0258 48.4263 29.0258C49.4617 29.0258 50.3019 28.188 50.3019 27.1526C50.3019 26.6863 50.1315 26.2603 49.851 25.9337C49.9161 25.9302 49.9824 25.9302 50.0475 25.9302Z" fill="#4D4C4B"/>
<path fill-rule="evenodd" clip-rule="evenodd" d="M61.9496 25.9302C64.1009 25.9302 65.8428 27.6732 65.8428 29.8198C65.8428 31.9711 64.1009 33.7141 61.9484 33.7141C59.8007 33.7141 58.0576 31.9711 58.0576 29.8198C58.0576 29.1039 58.2517 28.4329 58.5889 27.8555C58.8682 28.543 59.5415 29.0258 60.3296 29.0258C61.3638 29.0258 62.2028 28.188 62.2028 27.1526C62.2028 26.6863 62.0348 26.2603 61.7543 25.9337C61.8194 25.9302 61.8833 25.9302 61.9496 25.9302Z" fill="#4D4C4B"/>
<path fill-rule="evenodd" clip-rule="evenodd" d="M58.7686 62.8951C57.9 63.7767 56.8599 64.2205 55.6541 64.2205C54.6802 64.2205 53.8518 64.0217 53.0058 63.5306V61.5083C53.6862 61.9686 54.5405 62.4088 55.3831 62.4088C57.1415 62.4088 58.1888 61.1982 58.1888 59.4836C58.1888 57.7677 57.1048 56.5217 55.3476 56.5217C54.5607 56.5217 53.9252 56.8045 53.427 57.3701C52.8933 57.9831 52.6188 58.86 52.6188 60.0184V68.0048H52.4863C51.5171 68.0048 50.7314 67.219 50.7314 66.2511V59.7191C50.7314 56.9477 52.4259 54.71 55.3381 54.71C56.7759 54.71 57.9438 55.2011 58.8289 56.1892C59.662 57.1122 60.075 58.2813 60.075 59.6883C60.075 60.9414 59.6395 62.0124 58.7686 62.8951ZM18.7636 64.0347C16.9188 64.0347 16.0029 62.7792 16.0029 61.0266V54.3763C16.0029 53.4072 16.7887 52.6226 17.7578 52.6226H17.8892V54.897H21.0771V56.7086H17.8892V61.2361C17.8892 62.0064 18.2335 62.223 18.9684 62.223H21.0771V64.0347H18.7636ZM29.7213 62.8786C28.7877 63.7732 27.6682 64.2205 26.3666 64.2205C25.0779 64.2205 23.9632 63.772 23.0319 62.8786C22.0959 61.9816 21.6297 60.8409 21.6297 59.4658C21.6297 56.782 23.6792 54.71 26.3666 54.71C27.6564 54.71 28.7735 55.162 29.7107 56.0614C30.6526 56.9642 31.1224 58.1014 31.1224 59.4658C31.1224 60.8409 30.655 61.9816 29.7213 62.8786ZM38.5407 57.0956C38.2638 57.5595 38.0496 57.892 37.8981 58.0932C37.7313 58.3121 37.568 58.486 37.4047 58.6067C38.7158 59.0315 39.2045 59.9392 39.2045 61.2929V64.0347H39.072C38.1029 64.0347 37.3171 63.2489 37.3171 62.2798V61.4787C37.3171 60.603 36.9254 60.0078 35.9965 60.0078H34.2831V64.0347H34.1505C33.1814 64.0347 32.3956 63.2489 32.3956 62.2798V52.5504C32.3956 51.5813 33.1814 50.7955 34.1505 50.7955H34.2831V58.1772H34.8404C35.4534 58.1772 35.8557 57.9677 36.0865 57.5713L37.6721 54.897L39.8222 54.8946L38.5407 57.0956ZM48.2795 62.8786C47.3471 63.7732 46.2264 64.2205 44.926 64.2205C43.6361 64.2205 42.5226 63.772 41.5901 62.8786C40.6553 61.9816 40.1891 60.8409 40.1891 59.4658C40.1891 56.782 42.2386 54.71 44.926 54.71C46.2158 54.71 47.3329 55.162 48.2701 56.0614C49.2108 56.9642 49.6818 58.1014 49.6818 59.4658C49.6818 60.8409 49.2144 61.9816 48.2795 62.8786ZM46.9175 57.3394C46.398 56.795 45.7365 56.5217 44.926 56.5217C43.1888 56.5217 42.1499 57.7879 42.1499 59.4658C42.1499 61.1201 43.2149 62.4088 44.926 62.4088C46.6382 62.4088 47.7009 61.1201 47.7009 59.4658C47.7009 58.5866 47.437 57.8825 46.9175 57.3394ZM28.3581 57.3394C27.8386 56.795 27.1783 56.5217 26.3666 56.5217C24.6306 56.5217 23.5916 57.7879 23.5916 59.4658C23.5916 61.1201 24.6555 62.4088 26.3666 62.4088C28.0777 62.4088 29.1427 61.1201 29.1427 59.4658C29.1427 58.5866 28.8788 57.8825 28.3581 57.3394ZM79.1965 62.8277C78.3303 63.7566 77.2156 64.2205 75.8642 64.2205C74.4383 64.2205 73.2763 63.7282 72.3923 62.7413C71.5604 61.8065 71.1463 60.6361 71.1463 59.2422C71.1463 56.7726 73.0526 54.71 75.5589 54.71C76.5269 54.71 77.367 54.9135 78.2155 55.3798V57.4222C77.5339 56.9607 76.6807 56.5217 75.8382 56.5217C74.0797 56.5217 73.0337 57.7311 73.0337 59.4469C73.0337 61.1391 74.1413 62.4088 75.8737 62.4088C76.6582 62.4088 77.3055 62.1141 77.8214 61.5225C78.335 60.9332 78.6024 60.0681 78.6024 58.9061V52.5504C78.6024 51.5813 79.3882 50.7955 80.3573 50.7955H80.4887V59.2043C80.4887 60.6858 80.0615 61.8976 79.1965 62.8277ZM84.5238 53.8119C84.325 54.0343 84.041 54.1361 83.6943 54.1361C83.047 54.1361 82.5844 53.658 82.5844 53.0155C82.5844 52.3575 83.0399 51.9138 83.6943 51.9138C84.3262 51.9138 84.8067 52.3824 84.8067 53.0155C84.8067 53.3291 84.7144 53.5977 84.5238 53.8119ZM94.1088 58.9061C94.1088 58.163 93.8284 57.5737 93.2616 57.1276C92.7527 56.7264 92.1161 56.5217 91.3434 56.5217C89.6358 56.5217 88.5401 57.8565 88.5401 59.5025C88.5401 61.087 89.7009 62.4088 91.3256 62.4088C92.4546 62.4088 93.0592 61.7485 93.703 60.9272V63.2975C93.3752 63.5424 92.9977 63.811 92.6119 63.9684C92.2049 64.1376 91.7209 64.2205 91.1588 64.2205C88.4442 64.2205 86.6527 61.9709 86.6527 59.3723C86.6527 58.0375 87.068 56.9347 87.9023 56.0732C88.7874 55.162 89.9494 54.71 91.3706 54.71C94.0674 54.71 95.9963 56.2578 95.9963 59.0552V64.0347H95.8637C94.8946 64.0347 94.1088 63.2489 94.1088 62.2798V58.9061ZM68.2838 58.3724C68.0447 57.634 67.7454 57.2719 67.0578 56.8885C65.4237 55.9738 63.8143 56.7512 63.0653 58.3653L68.2838 58.3724ZM66.8437 64.1932C65.639 64.4488 64.4557 64.2512 63.3031 63.6075C62.1778 62.978 61.4228 62.0431 61.0453 60.8089C60.2821 58.3109 61.8464 55.5277 64.3622 54.8532C65.6094 54.5195 66.8058 54.671 67.9418 55.3064C69.8292 56.3608 70.5167 57.9926 70.3972 60.0954L62.7955 60.0788C62.9079 60.9367 63.4392 61.6077 64.1871 62.0254C64.9444 62.449 65.6414 62.5496 66.2875 62.3496C67.0046 62.1236 67.5868 61.539 68.0601 60.9935L69.6091 62.1212C68.9772 63.2525 68.1169 63.9211 66.8437 64.1932ZM82.7524 54.897H84.6386V64.0347H84.5061C83.5381 64.0347 82.7524 63.2489 82.7524 62.2798V54.897Z" fill="#3CAF41"/>
</g>
<defs>
<clipPath id="clip0_554_2254">
<rect width="80" height="56.8047" fill="white" transform="translate(16 11.2)"/>
</clipPath>
</defs>
</svg>
