<svg width="112" height="80" viewBox="0 0 112 80" fill="none" xmlns="http://www.w3.org/2000/svg">
<rect x="0.000976562" y="-3.05176e-05" width="112" height="80" rx="6.4" fill="white"/>
<g clip-path="url(#clip0_554_2162)">
<path fill-rule="evenodd" clip-rule="evenodd" d="M88.4326 31.4486C91.5628 29.4582 95.4925 29.076 95.4925 29.076C95.4925 29.076 91.3232 33.8152 90.3038 36.0047C89.989 36.9599 90.648 37.7368 90.648 37.7368C90.648 37.7368 88.8218 35.6915 88.4326 31.4486Z" fill="#1BA0E2"/>
<path fill-rule="evenodd" clip-rule="evenodd" d="M89.7879 30.7007C89.3291 30.9204 88.873 31.1686 88.4326 31.4486C88.6306 33.6068 89.2003 35.1964 89.7124 36.2374C89.9866 36.7219 90.2473 37.1272 90.4437 37.4169C90.3442 37.2238 90.2417 36.9545 90.222 36.6405C89.9564 35.6247 89.7131 33.8294 89.7879 30.7007Z" fill="#0D7FCC"/>
<path fill-rule="evenodd" clip-rule="evenodd" d="M85.6259 33.3002C85.6259 33.3002 85.4199 32.5764 85.3489 32.3677C85.1578 31.8054 84.9621 31.2337 84.9621 30.258C84.9621 28.9201 87.2409 27.4926 88.6298 27.0443C88.2531 31.9136 88.8003 33.404 89.3044 35.0225C90.4973 39.0051 93.2217 39.581 93.4907 39.851C92.7961 39.7009 93.1926 40.0249 93.1926 40.0249C93.1926 40.0249 92.0836 39.2533 89.8507 38.6217C87.6178 37.99 85.8757 37.8933 84.8099 37.288C83.9892 36.6715 83.9628 36.1692 83.5727 35.8321C82.2914 34.7246 79.0654 34.2589 79.0654 34.2589L81.8409 34.7111C81.8409 34.7111 82.2224 34.7111 82.6727 34.5493C82.7697 34.5367 83.0787 34.1843 83.748 34.4071C84.0234 34.4978 83.946 34.5964 84.7344 34.8182C85.7337 35.0992 85.6259 33.3002 85.6259 33.3002Z" fill="#1BA0E2"/>
<path fill-rule="evenodd" clip-rule="evenodd" d="M17.1134 41.704C17.1134 44.5512 19.2838 44.8882 20.3774 44.8882C20.7139 44.8882 20.9494 44.8545 20.9494 44.8545V43.4056C20.9494 43.4056 20.798 43.4393 20.5624 43.4393C19.9399 43.4393 18.7454 43.2203 18.7454 41.5187V37.728H20.798V36.4139H18.7454V33.9542H17.1638V36.4139H16.0029V37.728H17.1134V41.704ZM22.4529 44.8208H24.0849V41.3333C24.0849 40.8111 24.1354 40.2888 24.2868 39.8002C24.6738 38.5367 25.6328 37.7954 26.6759 37.7954C26.9283 37.7954 27.147 37.8459 27.147 37.8459V36.2286C27.147 36.2286 26.9451 36.1949 26.7264 36.1949C25.4141 36.1949 24.4214 37.172 24.0345 38.4187H24.0008C24.0008 38.4187 24.0345 38.1323 24.0345 37.7785V36.296H22.4529V44.8208ZM27.6948 42.4284C27.6948 44.13 29.1249 45.0229 30.5887 45.0229C32.6245 45.0229 33.3143 43.3382 33.3143 43.3382H33.3479C33.3479 43.3382 33.3143 43.6246 33.3143 44.0121V44.8208H34.8285V39.4296C34.8285 37.2731 33.6171 36.0938 31.4636 36.0938C29.5119 36.0938 28.2837 37.1046 28.2837 37.1046L28.9567 38.3008C28.9567 38.3008 30.0166 37.4753 31.329 37.4753C32.4058 37.4753 33.1965 37.947 33.1965 39.3453V39.497H32.8264C31.3963 39.497 27.6948 39.6149 27.6948 42.4284ZM29.3436 42.3442C29.3436 40.8111 31.5645 40.7268 32.7927 40.7268H33.2133V40.9964C33.2133 42.26 32.3216 43.7088 30.942 43.7088C29.882 43.7088 29.3436 43.0349 29.3436 42.3442ZM38.9567 44.8208H40.8411L43.9873 36.296H42.2712L40.2017 42.0578C40.0335 42.5295 39.9157 43.2203 39.8989 43.2203H39.8652C39.8484 43.2203 39.7475 42.5295 39.5792 42.0578L37.5098 36.296H35.7768L38.9567 44.8208ZM44.4173 40.5584C44.4173 43.0855 46.2512 45.0229 48.9263 45.0229C50.9621 45.0229 52.224 43.8099 52.224 43.8099L51.551 42.6137C51.551 42.6137 50.4911 43.6077 49.0273 43.6077C47.5131 43.6077 46.1839 42.6643 46.0998 40.7942H52.3081C52.3081 40.7942 52.3586 40.3057 52.3586 40.0866C52.3586 37.8796 51.0799 36.0938 48.674 36.0938C46.2512 36.0938 44.4173 37.8459 44.4173 40.5584ZM46.1503 39.5644C46.3858 38.166 47.3953 37.391 48.6403 37.391C49.7339 37.391 50.6425 38.0986 50.693 39.5644H46.1503ZM53.8654 42.4958C53.8654 44.6354 55.2282 44.8882 56.1536 44.8882C56.4396 44.8882 56.692 44.8545 56.692 44.8545V43.4056C56.692 43.4056 56.5574 43.4224 56.4059 43.4224C55.9012 43.4224 55.4974 43.2371 55.4974 42.2094V32.9265H53.8654V42.4958ZM57.4248 40.5415C57.4248 43.136 59.4774 45.0229 62.018 45.0229C64.5585 45.0229 66.6111 43.136 66.6111 40.5415C66.6111 37.9639 64.5585 36.0938 62.018 36.0938C59.4774 36.0938 57.4248 37.9639 57.4248 40.5415ZM59.0905 40.5415C59.0905 38.7725 60.4196 37.509 62.018 37.509C63.6332 37.509 64.9455 38.7725 64.9455 40.5415C64.9455 42.3273 63.6332 43.6077 62.018 43.6077C60.4196 43.6077 59.0905 42.3273 59.0905 40.5415ZM68.2156 44.8208H69.8476V40.8111H71.0758L73.6332 44.8208H75.5344L72.3881 40.0866V40.0529L75.2147 36.296H73.364L71.0422 39.4296H69.8476V32.9265H68.2156V44.8208ZM75.998 42.4284C75.998 44.13 77.4281 45.0229 78.8919 45.0229C80.9277 45.0229 81.6175 43.3382 81.6175 43.3382H81.6512C81.6512 43.3382 81.6175 43.6246 81.6175 44.0121V44.8208H83.1317V39.4296C83.1317 37.2731 81.9203 36.0938 79.7668 36.0938C77.8151 36.0938 76.5869 37.1046 76.5869 37.1046L77.2599 38.3008C77.2599 38.3008 78.3199 37.4753 79.6322 37.4753C80.709 37.4753 81.4997 37.947 81.4997 39.3453V39.497H81.1296C79.6995 39.497 75.998 39.6149 75.998 42.4284ZM77.6469 42.3442C77.6469 40.8111 79.8677 40.7268 81.0959 40.7268H81.5166V40.9964C81.5166 42.26 80.6248 43.7088 79.2452 43.7088C78.1853 43.7088 77.6469 43.0349 77.6469 42.3442Z" fill="#434343"/>
</g>
<defs>
<clipPath id="clip0_554_2162">
<rect width="80" height="25.4815" fill="white" transform="translate(16.001 27.0005)"/>
</clipPath>
</defs>
</svg>
