<svg width="25" height="24" viewBox="0 0 25 24" fill="none" xmlns="http://www.w3.org/2000/svg">
<path fill-rule="evenodd" clip-rule="evenodd" d="M22.3184 6.14609C21.6358 6.44854 20.9034 6.65366 20.1339 6.74524C20.9196 6.27472 21.5211 5.52842 21.8061 4.64188C21.0691 5.0776 20.2556 5.394 19.3887 5.56551C18.6946 4.825 17.7072 4.36375 16.612 4.36375C14.511 4.36375 12.8075 6.0673 12.8075 8.16718C12.8075 8.465 12.8411 8.75588 12.906 9.03403C9.74459 8.87524 6.94128 7.3606 5.06507 5.05906C4.7371 5.61997 4.55053 6.27354 4.55053 6.97121C4.55053 8.29118 5.22268 9.45585 6.24249 10.1372C5.61901 10.1164 5.03262 9.94488 4.51925 9.65978V9.7073C4.51925 11.5499 5.8311 13.0877 7.57056 13.4377C7.25186 13.5235 6.9158 13.571 6.56813 13.571C6.32246 13.571 6.08489 13.5467 5.85195 13.5003C6.33634 15.0126 7.74092 16.1124 9.40507 16.1425C8.10365 17.1624 6.46268 17.7685 4.68034 17.7685C4.37325 17.7685 4.07077 17.7499 3.77295 17.7163C5.4568 18.7975 7.45586 19.428 9.6044 19.428C16.6028 19.428 20.4283 13.6313 20.4283 8.60409L20.4155 8.11157C21.163 7.57845 21.8096 6.90863 22.3184 6.14609Z" fill="#BBC3CF"/>
<mask id="mask0_444_3603" style="mask-type:luminance" maskUnits="userSpaceOnUse" x="3" y="4" width="20" height="16">
<path fill-rule="evenodd" clip-rule="evenodd" d="M22.3184 6.14609C21.6358 6.44854 20.9034 6.65366 20.1339 6.74524C20.9196 6.27472 21.5211 5.52842 21.8061 4.64188C21.0691 5.0776 20.2556 5.394 19.3887 5.56551C18.6946 4.825 17.7072 4.36375 16.612 4.36375C14.511 4.36375 12.8075 6.0673 12.8075 8.16718C12.8075 8.465 12.8411 8.75588 12.906 9.03403C9.74459 8.87524 6.94128 7.3606 5.06507 5.05906C4.7371 5.61997 4.55053 6.27354 4.55053 6.97121C4.55053 8.29118 5.22268 9.45585 6.24249 10.1372C5.61901 10.1164 5.03262 9.94488 4.51925 9.65978V9.7073C4.51925 11.5499 5.8311 13.0877 7.57056 13.4377C7.25186 13.5235 6.9158 13.571 6.56813 13.571C6.32246 13.571 6.08489 13.5467 5.85195 13.5003C6.33634 15.0126 7.74092 16.1124 9.40507 16.1425C8.10365 17.1624 6.46268 17.7685 4.68034 17.7685C4.37325 17.7685 4.07077 17.7499 3.77295 17.7163C5.4568 18.7975 7.45586 19.428 9.6044 19.428C16.6028 19.428 20.4283 13.6313 20.4283 8.60409L20.4155 8.11157C21.163 7.57845 21.8096 6.90863 22.3184 6.14609Z" fill="white"/>
</mask>
<g mask="url(#mask0_444_3603)">
</g>
</svg>
