<svg width="33" height="32" viewBox="0 0 33 32" fill="none" xmlns="http://www.w3.org/2000/svg">
<g clip-path="url(#clip0_917_2484)">
<path d="M11.5006 3.99997C12.511 3.99997 13.485 4.13018 14.4225 4.39059C15.36 4.65101 16.235 5.0208 17.0475 5.49997C17.86 5.97914 18.6047 6.55205 19.2818 7.21872C19.9589 7.88539 20.5318 8.62497 21.0006 9.43747C21.4693 10.25 21.8391 11.1302 22.11 12.0781C22.3808 13.026 22.511 14 22.5006 15C22.5006 16.0104 22.3704 16.9843 22.11 17.9218C21.8495 18.8593 21.4797 19.7343 21.0006 20.5468C20.5214 21.3593 19.9485 22.1041 19.2818 22.7812C18.6152 23.4583 17.8756 24.0312 17.0631 24.5C16.2506 24.9687 15.3704 25.3385 14.4225 25.6093C13.4745 25.8802 12.5006 26.0104 11.5006 26C10.4902 26 9.5162 25.8698 8.5787 25.6093C7.6412 25.3489 6.7662 24.9791 5.9537 24.5C5.1412 24.0208 4.39641 23.4479 3.71933 22.7812C3.04225 22.1146 2.46933 21.375 2.00058 20.5625C1.53183 19.75 1.16204 18.8698 0.891204 17.9218C0.62037 16.9739 0.490162 16 0.500579 15C0.500579 13.9896 0.630787 13.0156 0.891204 12.0781C1.15162 11.1406 1.52141 10.2656 2.00058 9.45309C2.47975 8.64059 3.05266 7.8958 3.71933 7.21872C4.386 6.54164 5.12558 5.96872 5.93808 5.49997C6.75058 5.03122 7.63079 4.66143 8.5787 4.39059C9.52662 4.11976 10.5006 3.98955 11.5006 3.99997ZM11.5006 24C12.7402 24 13.9068 23.7656 15.0006 23.2968C16.0943 22.8281 17.0475 22.1823 17.86 21.3593C18.6725 20.5364 19.3131 19.5833 19.7818 18.5C20.2506 17.4166 20.4902 16.25 20.5006 15C20.5006 13.7604 20.2662 12.5937 19.7975 11.5C19.3287 10.4062 18.6829 9.45309 17.86 8.64059C17.037 7.82809 16.0839 7.18747 15.0006 6.71872C13.9172 6.24997 12.7506 6.01039 11.5006 5.99997C10.261 5.99997 9.09433 6.23434 8.00058 6.70309C6.90683 7.17184 5.9537 7.81768 5.1412 8.64059C4.3287 9.46351 3.68808 10.4166 3.21933 11.5C2.75058 12.5833 2.511 13.75 2.50058 15C2.50058 16.2396 2.73495 17.4062 3.2037 18.5C3.67245 19.5937 4.31829 20.5468 5.1412 21.3593C5.96412 22.1718 6.91725 22.8125 8.00058 23.2812C9.08391 23.75 10.2506 23.9896 11.5006 24ZM15.7975 11.2968L17.2037 12.7031L9.50058 20.4062L5.79745 16.7031L7.2037 15.2968L9.50058 17.5937L15.7975 11.2968ZM26.5006 14H32.5006V16H26.5006V14ZM32.5006 7.99997V9.99997H24.5006V7.99997H32.5006ZM26.5006 20H32.5006V22H26.5006V20Z" fill="url(#paint0_linear_917_2484)"/>
</g>
<defs>
<linearGradient id="paint0_linear_917_2484" x1="0.5" y1="15" x2="32.5006" y2="15" gradientUnits="userSpaceOnUse">
<stop stop-color="#667EEA"/>
<stop offset="1" stop-color="#764BA2"/>
</linearGradient>
<clipPath id="clip0_917_2484">
<rect width="32" height="32" fill="white" transform="translate(0.5)"/>
</clipPath>
</defs>
</svg>
