<svg width="19" height="18" viewBox="0 0 19 18" fill="none" xmlns="http://www.w3.org/2000/svg">
<path fill-rule="evenodd" clip-rule="evenodd" d="M11.0961 8.57502L6.24837 3.99657L6.06917 3.82734L6.06917 3.82734C5.88059 3.64923 5.88059 3.36046 6.06917 3.18235C6.25776 3.00424 6.56352 3.00424 6.7521 3.18235L6.9313 3.35159L11.8507 7.99766L12.0299 8.1669C12.1473 8.27783 12.1916 8.4317 12.1628 8.57502C12.1916 8.71834 12.1473 8.87221 12.0299 8.98314L11.8507 9.15238L6.9313 13.7985L6.7521 13.9677C6.56352 14.1458 6.25776 14.1458 6.06917 13.9677C5.88059 13.7896 5.88059 13.5008 6.06917 13.3227L6.24837 13.1535L11.0961 8.57502Z" fill="white"/>
<mask id="mask0_601_9640" style="mask-type:luminance" maskUnits="userSpaceOnUse" x="5" y="3" width="8" height="12">
<path fill-rule="evenodd" clip-rule="evenodd" d="M11.0961 8.57502L6.24837 3.99657L6.06917 3.82734L6.06917 3.82734C5.88059 3.64923 5.88059 3.36046 6.06917 3.18235C6.25776 3.00424 6.56352 3.00424 6.7521 3.18235L6.9313 3.35159L11.8507 7.99766L12.0299 8.1669C12.1473 8.27783 12.1916 8.4317 12.1628 8.57502C12.1916 8.71834 12.1473 8.87221 12.0299 8.98314L11.8507 9.15238L6.9313 13.7985L6.7521 13.9677C6.56352 14.1458 6.25776 14.1458 6.06917 13.9677C5.88059 13.7896 5.88059 13.5008 6.06917 13.3227L6.24837 13.1535L11.0961 8.57502Z" fill="white"/>
</mask>
<g mask="url(#mask0_601_9640)">
</g>
</svg>
