<svg width="17" height="18" viewBox="0 0 17 18" fill="none" xmlns="http://www.w3.org/2000/svg">
<path fill-rule="evenodd" clip-rule="evenodd" d="M8.92492 10.5966L13.5034 5.74886L13.6726 5.56966L13.6726 5.56966C13.8507 5.38108 14.1395 5.38108 14.3176 5.56966C14.4957 5.75825 14.4957 6.06401 14.3176 6.25259L14.1484 6.43178L9.50228 11.3512L9.33304 11.5303C9.22211 11.6478 9.06824 11.6921 8.92492 11.6632C8.7816 11.6921 8.62773 11.6478 8.5168 11.5303L8.34756 11.3512L3.70148 6.43178L3.53225 6.25259C3.35414 6.06401 3.35414 5.75825 3.53225 5.56966C3.71036 5.38108 3.99913 5.38108 4.17724 5.56966L4.34647 5.74886L8.92492 10.5966Z" fill="white"/>
<mask id="mask0_601_8433" style="mask-type:luminance" maskUnits="userSpaceOnUse" x="3" y="5" width="12" height="7">
<path fill-rule="evenodd" clip-rule="evenodd" d="M8.92492 10.5966L13.5034 5.74886L13.6726 5.56966L13.6726 5.56966C13.8507 5.38108 14.1395 5.38108 14.3176 5.56966C14.4957 5.75825 14.4957 6.06401 14.3176 6.25259L14.1484 6.43178L9.50228 11.3512L9.33304 11.5303C9.22211 11.6478 9.06824 11.6921 8.92492 11.6632C8.7816 11.6921 8.62773 11.6478 8.5168 11.5303L8.34756 11.3512L3.70148 6.43178L3.53225 6.25259C3.35414 6.06401 3.35414 5.75825 3.53225 5.56966C3.71036 5.38108 3.99913 5.38108 4.17724 5.56966L4.34647 5.74886L8.92492 10.5966Z" fill="white"/>
</mask>
<g mask="url(#mask0_601_8433)">
</g>
</svg>
