<svg width="20" height="20" viewBox="0 0 20 20" fill="none" xmlns="http://www.w3.org/2000/svg">
<path fill-rule="evenodd" clip-rule="evenodd" d="M18.3327 9.99996C18.3327 14.6025 14.6018 18.3333 9.99935 18.3333C5.39685 18.3333 1.66602 14.6025 1.66602 9.99996C1.66602 5.39746 5.39685 1.66663 9.99935 1.66663C14.6018 1.66663 18.3327 5.39746 18.3327 9.99996ZM13.3577 7.47496C13.4747 7.59215 13.5405 7.751 13.5405 7.91663C13.5405 8.08225 13.4747 8.2411 13.3577 8.35829L9.19102 12.525C9.07383 12.642 8.91497 12.7077 8.74935 12.7077C8.58372 12.7077 8.42487 12.642 8.30768 12.525L6.64102 10.8583C6.57961 10.8011 6.53036 10.7321 6.4962 10.6554C6.46204 10.5787 6.44367 10.496 6.44219 10.4121C6.44071 10.3281 6.45615 10.2448 6.48758 10.167C6.51901 10.0891 6.5658 10.0184 6.62515 9.95909C6.6845 9.89974 6.75519 9.85296 6.83302 9.82152C6.91084 9.79009 6.9942 9.77465 7.07812 9.77613C7.16204 9.77761 7.2448 9.79598 7.32146 9.83014C7.39813 9.8643 7.46713 9.91355 7.52435 9.97496L8.74935 11.2L10.6118 9.33663L12.4743 7.47496C12.5915 7.35792 12.7504 7.29218 12.916 7.29218C13.0816 7.29218 13.2405 7.35792 13.3577 7.47496Z" fill="#6FCF97"/>
</svg>
