<svg width="25" height="24" viewBox="0 0 25 24" fill="none" xmlns="http://www.w3.org/2000/svg">
<path d="M7.5 17.0129L11.913 16.9979L21.545 7.4579C21.923 7.0799 22.131 6.5779 22.131 6.0439C22.131 5.5099 21.923 5.0079 21.545 4.6299L19.959 3.0439C19.203 2.2879 17.884 2.2919 17.134 3.0409L7.5 12.5829V17.0129ZM18.545 4.4579L20.134 6.0409L18.537 7.6229L16.951 6.0379L18.545 4.4579ZM9.5 13.4169L15.53 7.4439L17.116 9.0299L11.087 15.0009L9.5 15.0059V13.4169Z" fill="#E6E6E6"/>
<path d="M5.5 21H19.5C20.603 21 21.5 20.103 21.5 19V10.332L19.5 12.332V19H8.658C8.632 19 8.605 19.01 8.579 19.01C8.546 19.01 8.513 19.001 8.479 19H5.5V5H12.347L14.347 3H5.5C4.397 3 3.5 3.897 3.5 5V19C3.5 20.103 4.397 21 5.5 21Z" fill="#E6E6E6"/>
</svg>
