<svg width="24" height="24" viewBox="0 0 24 24" fill="none" xmlns="http://www.w3.org/2000/svg">
<rect x="0.5" y="0.5" width="23" height="23" rx="11.5" fill="#F9FAFF"/>
<g clip-path="url(#clip0_402_1169)">
<path d="M15.9317 6.65049C16.1337 6.44854 16.4603 6.44854 16.6601 6.65049L17.3476 7.33799C17.5495 7.53994 17.5495 7.8665 17.3476 8.06631L15.4784 9.93545L16.3163 10.7733C16.4646 10.9216 16.5075 11.1429 16.428 11.3362C16.3485 11.5296 16.1595 11.6542 15.9511 11.6542H12.8595C12.5737 11.6542 12.3438 11.4243 12.3438 11.1386V8.04697C12.3438 7.83857 12.4685 7.64951 12.6618 7.57002C12.8552 7.49053 13.0765 7.5335 13.2247 7.68174L14.0626 8.51963L15.9317 6.65049ZM8.04697 12.3438H11.1407C11.4265 12.3438 11.6563 12.5737 11.6563 12.8595V15.9532C11.6563 16.1616 11.5317 16.3507 11.3384 16.4302C11.145 16.5097 10.9237 16.4667 10.7755 16.3185L9.9376 15.4806L8.06846 17.3497C7.8665 17.5517 7.53994 17.5517 7.34014 17.3497L6.65049 16.6622C6.44854 16.4603 6.44854 16.1337 6.65049 15.9339L8.51963 14.0647L7.68174 13.2247C7.5335 13.0765 7.49053 12.8552 7.57002 12.6618C7.64951 12.4685 7.83857 12.3438 8.04697 12.3438Z" fill="#797979"/>
</g>
<rect x="0.5" y="0.5" width="23" height="23" rx="11.5" stroke="#D4D5D8"/>
<defs>
<clipPath id="clip0_402_1169">
<rect width="11" height="22" fill="white" transform="translate(6.5 1)"/>
</clipPath>
</defs>
</svg>
