<svg width="20" height="20" viewBox="0 0 20 20" fill="none" xmlns="http://www.w3.org/2000/svg">
<g clip-path="url(#clip0_402_830)">
<path d="M10.0003 1.6665C14.6028 1.6665 18.3337 5.39734 18.3337 9.99984C18.3337 14.6023 14.6028 18.3332 10.0003 18.3332C5.39783 18.3332 1.66699 14.6023 1.66699 9.99984C1.66699 5.39734 5.39783 1.6665 10.0003 1.6665ZM10.0003 12.4998C9.77931 12.4998 9.56735 12.5876 9.41107 12.7439C9.25479 12.9002 9.16699 13.1122 9.16699 13.3332C9.16699 13.5542 9.25479 13.7661 9.41107 13.9224C9.56735 14.0787 9.77931 14.1665 10.0003 14.1665C10.2213 14.1665 10.4333 14.0787 10.5896 13.9224C10.7459 13.7661 10.8337 13.5542 10.8337 13.3332C10.8337 13.1122 10.7459 12.9002 10.5896 12.7439C10.4333 12.5876 10.2213 12.4998 10.0003 12.4998ZM10.0003 4.99984C9.79621 4.99986 9.59921 5.0748 9.44668 5.21043C9.29415 5.34607 9.19671 5.53296 9.17283 5.73567L9.16699 5.83317V10.8332C9.16723 11.0456 9.24856 11.2499 9.39437 11.4043C9.54017 11.5588 9.73945 11.6517 9.95149 11.6641C10.1635 11.6766 10.3723 11.6076 10.5352 11.4713C10.6981 11.335 10.8027 11.1416 10.8278 10.9307L10.8337 10.8332V5.83317C10.8337 5.61216 10.7459 5.4002 10.5896 5.24392C10.4333 5.08763 10.2213 4.99984 10.0003 4.99984Z" fill="#EB5757"/>
</g>
<defs>
<clipPath id="clip0_402_830">
<rect width="20" height="20" fill="white"/>
</clipPath>
</defs>
</svg>
