<svg width="24" height="24" viewBox="0 0 24 24" fill="none" xmlns="http://www.w3.org/2000/svg">
<path fill-rule="evenodd" clip-rule="evenodd" d="M12 24C18.6274 24 24 18.6274 24 12C24 5.37258 18.6274 0 12 0C5.37258 0 0 5.37258 0 12C0 18.6274 5.37258 24 12 24ZM19.7751 9.83394C18.3384 11.266 16.0082 11.2677 14.5705 9.83664L9.53692 4.8259L9.21233 4.50278C10.6508 3.07087 12.9818 3.06992 14.4201 4.5023C16.3898 6.46421 18.771 8.83524 19.7751 9.83394ZM8.41402 5.29714L8.04966 4.93443L7.68509 5.29694C6.04669 6.92609 6.04384 9.56929 7.68164 11.2002L7.68165 11.2002C9.69852 13.2085 12.406 15.9034 13.975 17.4651L13.9871 17.4771L13.9883 17.4783L15.2208 18.7051L15.5854 19.0682L15.95 18.7052C17.5878 17.0747 17.5895 14.4311 15.9513 12.8L15.9512 12.8C13.8024 10.6612 10.9714 7.84298 9.35095 6.22983L8.41402 5.29714ZM8.41088 10.4679C7.30348 9.36511 7.19326 7.64791 8.07882 6.42173L8.61969 6.96016L8.63224 6.97266L8.63365 6.97406C10.256 8.58911 13.0785 11.3988 15.2221 13.5324C16.33 14.6355 16.4409 16.3532 15.5558 17.5803L14.7214 16.7498L14.7115 16.74C13.1435 15.1792 10.4303 12.4787 8.41088 10.4679ZM14.4219 19.4975L14.4229 19.4964L9.06654 14.1641C7.62779 12.7317 5.29577 12.7328 3.85686 14.165L9.21362 19.4975C10.6519 20.9292 12.9836 20.9292 14.4219 19.4975Z" fill="url(#paint0_linear_1329_2802)"/>
<defs>
<linearGradient id="paint0_linear_1329_2802" x1="0" y1="12" x2="24" y2="12" gradientUnits="userSpaceOnUse">
<stop stop-color="#667EEA"/>
<stop offset="1" stop-color="#764BA2"/>
</linearGradient>
</defs>
</svg>
