<svg width="20" height="20" viewBox="0 0 20 20" fill="none" xmlns="http://www.w3.org/2000/svg">
<path fill-rule="evenodd" clip-rule="evenodd" d="M19.4604 4.60912L10.8727 0.183338C10.3976 -0.0611128 9.60267 -0.0611128 9.12733 0.183338L0.539778 4.60912C0.231778 4.76759 0 5.15069 0 5.50004V6.35832C0 6.82269 0.373333 7.20107 0.832 7.20107H2.25956V8.51359C2.25956 8.81386 2.50089 9.05809 2.79733 9.05809H2.886V13.7389H2.79733C2.50089 13.7389 2.25956 13.9831 2.25956 14.2836V15.597H1.39778C0.627111 15.597 0 16.232 0 17.0129V17.5842C0 18.3648 0.627111 19 1.39778 19H18.6022C19.3729 19 20 18.3648 20 17.5842V17.0129C20 16.232 19.3729 15.597 18.6022 15.597H17.7404V14.2836C17.7404 13.9831 17.4991 13.7389 17.2027 13.7389H17.114V9.05809H17.2027C17.4991 9.05809 17.7404 8.81386 17.7404 8.51359V7.20107H19.1682C19.6267 7.20107 20 6.82269 20 6.35832V5.50004C20 5.15069 19.7682 4.76759 19.4604 4.60912ZM18.6022 16.2503C19.0171 16.2503 19.3549 16.5924 19.3549 17.0129V17.5842C19.3549 18.0044 19.0171 18.3468 18.6022 18.3468H1.39778C0.982889 18.3468 0.645111 18.0044 0.645111 17.5842V17.0129C0.645111 16.5924 0.982889 16.2503 1.39778 16.2503H18.6022ZM2.90511 8.40464H2.99356C3.28978 8.40464 3.53133 8.64887 3.53111 8.94937V13.8478C3.53111 14.1481 3.28956 14.3923 2.99333 14.3923H2.90489V15.597H5.60667V14.3572H5.51822C5.22178 14.3572 4.98044 14.113 4.98044 13.8125V8.91358C4.98044 8.61353 5.22178 8.36885 5.51822 8.36885H5.60667V7.20107H2.90511V8.40464ZM8.54133 9.02252H8.62978V13.7036H8.54133C8.24511 13.7036 8.00378 13.9478 8.00378 14.2483V15.597H6.25156V14.2483C6.25156 13.9478 6.01067 13.7036 5.71422 13.7036H5.62556V9.02252H5.71422C6.01067 9.02252 6.25156 8.7783 6.25156 8.47802V7.20107H8.00378V8.47802C8.00378 8.7783 8.24511 9.02252 8.54133 9.02252ZM8.64867 8.36908H8.73733C9.034 8.36908 9.27489 8.61375 9.27489 8.9138V13.813C9.27489 14.1135 9.034 14.3577 8.73733 14.3577H8.64867V15.5975H11.3504V14.3928H11.2624C10.9658 14.3928 10.7249 14.1486 10.7249 13.8483V8.94959C10.7249 8.64909 10.9658 8.40487 11.2624 8.40487H11.3504V7.20129H8.64867V8.36908ZM14.2858 9.05809H14.3742V13.7389H14.2858C13.9893 13.7389 13.7484 13.9831 13.7484 14.2836V15.597H11.9956V14.2836C11.9956 13.9831 11.7542 13.7389 11.4578 13.7389H11.37V9.05809H11.4578C11.7542 9.05809 11.9956 8.81386 11.9956 8.51359V7.20107H13.7484V8.51359C13.7484 8.81386 13.9893 9.05809 14.2858 9.05809ZM14.3936 8.40464H14.4818C14.7784 8.40464 15.0196 8.64887 15.0196 8.94937V13.8481C15.0196 14.1483 14.7784 14.3926 14.4818 14.3926H14.3936V15.5973H17.0951V14.3926H17.0067C16.7102 14.3926 16.4689 14.1483 16.4689 13.8481V8.94937C16.4689 8.64887 16.7102 8.40464 17.0067 8.40464H17.0951V7.20107H14.3936V8.40464ZM19.3549 6.35832C19.3549 6.46231 19.2711 6.54762 19.1682 6.54762H0.832C0.728889 6.54762 0.645111 6.46231 0.645111 6.35832V5.50004C0.645111 5.39695 0.741333 5.23826 0.832 5.19144L9.42 0.766105C9.56667 0.690698 9.77778 0.64748 10 0.64748C10.2222 0.64748 10.4336 0.690698 10.5798 0.766105L19.168 5.19144C19.2587 5.23826 19.3547 5.39672 19.3547 5.50004V6.35832H19.3549ZM10 2.05611C9.07844 2.05611 8.32867 2.8149 8.32867 3.74814C8.32867 4.68137 9.07822 5.44084 10 5.44084C10.9218 5.44084 11.6713 4.68137 11.6713 3.74814C11.6713 2.8149 10.9216 2.05611 10 2.05611ZM10 4.78717C9.43422 4.78717 8.97378 4.321 8.97378 3.74814C8.97378 3.17573 9.43422 2.70978 10 2.70978C10.5658 2.70978 11.026 3.17573 11.026 3.74814C11.026 4.32078 10.5658 4.78717 10 4.78717Z" fill="white"/>
</svg>
