<svg width="124" height="124" viewBox="0 0 124 124" fill="none" xmlns="http://www.w3.org/2000/svg">
<rect width="124" height="124" rx="12" fill="white"/>
<path d="M7.03516 7H11.4323V11.3972H7.03516V7ZM11.4323 7H15.8295V11.3972H11.4323V7ZM15.8295 7H20.2266V11.3972H15.8295V7ZM20.2266 7H24.6238V11.3972H20.2266V7ZM24.6238 7H29.021V11.3972H24.6238V7ZM29.021 7H33.4181V11.3972H29.021V7ZM33.4181 7H37.8153V11.3972H33.4181V7ZM55.404 7H59.8011V11.3972H55.404V7ZM68.5954 7H72.9926V11.3972H68.5954V7ZM72.9926 7H77.3898V11.3972H72.9926V7ZM77.3898 7H81.7869V11.3972H77.3898V7ZM86.1841 7H90.5813V11.3972H86.1841V7ZM90.5813 7H94.9784V11.3972H90.5813V7ZM94.9784 7H99.3756V11.3972H94.9784V7ZM99.3756 7H103.773V11.3972H99.3756V7ZM103.773 7H108.17V11.3972H103.773V7ZM108.17 7H112.567V11.3972H108.17V7ZM112.567 7H116.964V11.3972H112.567V7ZM7.03516 11.3972H11.4323V15.7943H7.03516V11.3972ZM33.4181 11.3972H37.8153V15.7943H33.4181V11.3972ZM46.6096 11.3972H51.0068V15.7943H46.6096V11.3972ZM64.1983 11.3972H68.5954V15.7943H64.1983V11.3972ZM68.5954 11.3972H72.9926V15.7943H68.5954V11.3972ZM77.3898 11.3972H81.7869V15.7943H77.3898V11.3972ZM86.1841 11.3972H90.5813V15.7943H86.1841V11.3972ZM112.567 11.3972H116.964V15.7943H112.567V11.3972ZM7.03516 15.7943H11.4323V20.1915H7.03516V15.7943ZM15.8295 15.7943H20.2266V20.1915H15.8295V15.7943ZM20.2266 15.7943H24.6238V20.1915H20.2266V15.7943ZM24.6238 15.7943H29.021V20.1915H24.6238V15.7943ZM33.4181 15.7943H37.8153V20.1915H33.4181V15.7943ZM46.6096 15.7943H51.0068V20.1915H46.6096V15.7943ZM51.0068 15.7943H55.404V20.1915H51.0068V15.7943ZM59.8011 15.7943H64.1983V20.1915H59.8011V15.7943ZM68.5954 15.7943H72.9926V20.1915H68.5954V15.7943ZM72.9926 15.7943H77.3898V20.1915H72.9926V15.7943ZM86.1841 15.7943H90.5813V20.1915H86.1841V15.7943ZM94.9784 15.7943H99.3756V20.1915H94.9784V15.7943ZM99.3756 15.7943H103.773V20.1915H99.3756V15.7943ZM103.773 15.7943H108.17V20.1915H103.773V15.7943ZM112.567 15.7943H116.964V20.1915H112.567V15.7943ZM7.03516 20.1915H11.4323V24.5887H7.03516V20.1915ZM15.8295 20.1915H20.2266V24.5887H15.8295V20.1915ZM20.2266 20.1915H24.6238V24.5887H20.2266V20.1915ZM24.6238 20.1915H29.021V24.5887H24.6238V20.1915ZM33.4181 20.1915H37.8153V24.5887H33.4181V20.1915ZM42.2125 20.1915H46.6096V24.5887H42.2125V20.1915ZM46.6096 20.1915H51.0068V24.5887H46.6096V20.1915ZM59.8011 20.1915H64.1983V24.5887H59.8011V20.1915ZM68.5954 20.1915H72.9926V24.5887H68.5954V20.1915ZM72.9926 20.1915H77.3898V24.5887H72.9926V20.1915ZM86.1841 20.1915H90.5813V24.5887H86.1841V20.1915ZM94.9784 20.1915H99.3756V24.5887H94.9784V20.1915ZM99.3756 20.1915H103.773V24.5887H99.3756V20.1915ZM103.773 20.1915H108.17V24.5887H103.773V20.1915ZM112.567 20.1915H116.964V24.5887H112.567V20.1915ZM7.03516 24.5887H11.4323V28.9858H7.03516V24.5887ZM15.8295 24.5887H20.2266V28.9858H15.8295V24.5887ZM20.2266 24.5887H24.6238V28.9858H20.2266V24.5887ZM24.6238 24.5887H29.021V28.9858H24.6238V24.5887ZM33.4181 24.5887H37.8153V28.9858H33.4181V24.5887ZM51.0068 24.5887H55.404V28.9858H51.0068V24.5887ZM55.404 24.5887H59.8011V28.9858H55.404V24.5887ZM59.8011 24.5887H64.1983V28.9858H59.8011V24.5887ZM64.1983 24.5887H68.5954V28.9858H64.1983V24.5887ZM68.5954 24.5887H72.9926V28.9858H68.5954V24.5887ZM86.1841 24.5887H90.5813V28.9858H86.1841V24.5887ZM94.9784 24.5887H99.3756V28.9858H94.9784V24.5887ZM99.3756 24.5887H103.773V28.9858H99.3756V24.5887ZM103.773 24.5887H108.17V28.9858H103.773V24.5887ZM112.567 24.5887H116.964V28.9858H112.567V24.5887ZM7.03516 28.9858H11.4323V33.383H7.03516V28.9858ZM33.4181 28.9858H37.8153V33.383H33.4181V28.9858ZM42.2125 28.9858H46.6096V33.383H42.2125V28.9858ZM55.404 28.9858H59.8011V33.383H55.404V28.9858ZM77.3898 28.9858H81.7869V33.383H77.3898V28.9858ZM86.1841 28.9858H90.5813V33.383H86.1841V28.9858ZM112.567 28.9858H116.964V33.383H112.567V28.9858ZM7.03516 33.383H11.4323V37.7801H7.03516V33.383ZM11.4323 33.383H15.8295V37.7801H11.4323V33.383ZM15.8295 33.383H20.2266V37.7801H15.8295V33.383ZM20.2266 33.383H24.6238V37.7801H20.2266V33.383ZM24.6238 33.383H29.021V37.7801H24.6238V33.383ZM29.021 33.383H33.4181V37.7801H29.021V33.383ZM33.4181 33.383H37.8153V37.7801H33.4181V33.383ZM42.2125 33.383H46.6096V37.7801H42.2125V33.383ZM51.0068 33.383H55.404V37.7801H51.0068V33.383ZM59.8011 33.383H64.1983V37.7801H59.8011V33.383ZM68.5954 33.383H72.9926V37.7801H68.5954V33.383ZM77.3898 33.383H81.7869V37.7801H77.3898V33.383ZM86.1841 33.383H90.5813V37.7801H86.1841V33.383ZM90.5813 33.383H94.9784V37.7801H90.5813V33.383ZM94.9784 33.383H99.3756V37.7801H94.9784V33.383ZM99.3756 33.383H103.773V37.7801H99.3756V33.383ZM103.773 33.383H108.17V37.7801H103.773V33.383ZM108.17 33.383H112.567V37.7801H108.17V33.383ZM112.567 33.383H116.964V37.7801H112.567V33.383ZM42.2125 37.7801H46.6096V42.1773H42.2125V37.7801ZM46.6096 37.7801H51.0068V42.1773H46.6096V37.7801ZM51.0068 37.7801H55.404V42.1773H51.0068V37.7801ZM68.5954 37.7801H72.9926V42.1773H68.5954V37.7801ZM72.9926 37.7801H77.3898V42.1773H72.9926V37.7801ZM77.3898 37.7801H81.7869V42.1773H77.3898V37.7801ZM11.4323 42.1773H15.8295V46.5745H11.4323V42.1773ZM15.8295 42.1773H20.2266V46.5745H15.8295V42.1773ZM33.4181 42.1773H37.8153V46.5745H33.4181V42.1773ZM64.1983 42.1773H68.5954V46.5745H64.1983V42.1773ZM68.5954 42.1773H72.9926V46.5745H68.5954V42.1773ZM77.3898 42.1773H81.7869V46.5745H77.3898V42.1773ZM86.1841 42.1773H90.5813V46.5745H86.1841V42.1773ZM90.5813 42.1773H94.9784V46.5745H90.5813V42.1773ZM99.3756 42.1773H103.773V46.5745H99.3756V42.1773ZM11.4323 46.5745H15.8295V50.9716H11.4323V46.5745ZM15.8295 46.5745H20.2266V50.9716H15.8295V46.5745ZM24.6238 46.5745H29.021V50.9716H24.6238V46.5745ZM37.8153 46.5745H42.2125V50.9716H37.8153V46.5745ZM51.0068 46.5745H55.404V50.9716H51.0068V46.5745ZM55.404 46.5745H59.8011V50.9716H55.404V46.5745ZM59.8011 46.5745H64.1983V50.9716H59.8011V46.5745ZM64.1983 46.5745H68.5954V50.9716H64.1983V46.5745ZM68.5954 46.5745H72.9926V50.9716H68.5954V46.5745ZM72.9926 46.5745H77.3898V50.9716H72.9926V46.5745ZM77.3898 46.5745H81.7869V50.9716H77.3898V46.5745ZM86.1841 46.5745H90.5813V50.9716H86.1841V46.5745ZM90.5813 46.5745H94.9784V50.9716H90.5813V46.5745ZM99.3756 46.5745H103.773V50.9716H99.3756V46.5745ZM108.17 46.5745H112.567V50.9716H108.17V46.5745ZM112.567 46.5745H116.964V50.9716H112.567V46.5745ZM33.4181 50.9716H37.8153V55.3688H33.4181V50.9716ZM55.404 50.9716H59.8011V55.3688H55.404V50.9716ZM72.9926 50.9716H77.3898V55.3688H72.9926V50.9716ZM81.7869 50.9716H86.1841V55.3688H81.7869V50.9716ZM90.5813 50.9716H94.9784V55.3688H90.5813V50.9716ZM99.3756 50.9716H103.773V55.3688H99.3756V50.9716ZM103.773 50.9716H108.17V55.3688H103.773V50.9716ZM112.567 50.9716H116.964V55.3688H112.567V50.9716ZM7.03516 55.3688H11.4323V59.766H7.03516V55.3688ZM11.4323 55.3688H15.8295V59.766H11.4323V55.3688ZM24.6238 55.3688H29.021V59.766H24.6238V55.3688ZM37.8153 55.3688H42.2125V59.766H37.8153V55.3688ZM46.6096 55.3688H51.0068V59.766H46.6096V55.3688ZM51.0068 55.3688H55.404V59.766H51.0068V55.3688ZM64.1983 55.3688H68.5954V59.766H64.1983V55.3688ZM72.9926 55.3688H77.3898V59.766H72.9926V55.3688ZM81.7869 55.3688H86.1841V59.766H81.7869V55.3688ZM90.5813 55.3688H94.9784V59.766H90.5813V55.3688ZM99.3756 55.3688H103.773V59.766H99.3756V55.3688ZM7.03516 59.766H11.4323V64.1631H7.03516V59.766ZM11.4323 59.766H15.8295V64.1631H11.4323V59.766ZM20.2266 59.766H24.6238V64.1631H20.2266V59.766ZM33.4181 59.766H37.8153V64.1631H33.4181V59.766ZM37.8153 59.766H42.2125V64.1631H37.8153V59.766ZM42.2125 59.766H46.6096V64.1631H42.2125V59.766ZM46.6096 59.766H51.0068V64.1631H46.6096V59.766ZM51.0068 59.766H55.404V64.1631H51.0068V59.766ZM64.1983 59.766H68.5954V64.1631H64.1983V59.766ZM72.9926 59.766H77.3898V64.1631H72.9926V59.766ZM77.3898 59.766H81.7869V64.1631H77.3898V59.766ZM86.1841 59.766H90.5813V64.1631H86.1841V59.766ZM90.5813 59.766H94.9784V64.1631H90.5813V59.766ZM112.567 59.766H116.964V64.1631H112.567V59.766ZM15.8295 64.1631H20.2266V68.5603H15.8295V64.1631ZM20.2266 64.1631H24.6238V68.5603H20.2266V64.1631ZM24.6238 64.1631H29.021V68.5603H24.6238V64.1631ZM51.0068 64.1631H55.404V68.5603H51.0068V64.1631ZM55.404 64.1631H59.8011V68.5603H55.404V64.1631ZM59.8011 64.1631H64.1983V68.5603H59.8011V64.1631ZM72.9926 64.1631H77.3898V68.5603H72.9926V64.1631ZM77.3898 64.1631H81.7869V68.5603H77.3898V64.1631ZM86.1841 64.1631H90.5813V68.5603H86.1841V64.1631ZM90.5813 64.1631H94.9784V68.5603H90.5813V64.1631ZM108.17 64.1631H112.567V68.5603H108.17V64.1631ZM112.567 64.1631H116.964V68.5603H112.567V64.1631ZM7.03516 68.5603H11.4323V72.9575H7.03516V68.5603ZM11.4323 68.5603H15.8295V72.9575H11.4323V68.5603ZM20.2266 68.5603H24.6238V72.9575H20.2266V68.5603ZM29.021 68.5603H33.4181V72.9575H29.021V68.5603ZM33.4181 68.5603H37.8153V72.9575H33.4181V68.5603ZM42.2125 68.5603H46.6096V72.9575H42.2125V68.5603ZM46.6096 68.5603H51.0068V72.9575H46.6096V68.5603ZM51.0068 68.5603H55.404V72.9575H51.0068V68.5603ZM59.8011 68.5603H64.1983V72.9575H59.8011V68.5603ZM72.9926 68.5603H77.3898V72.9575H72.9926V68.5603ZM77.3898 68.5603H81.7869V72.9575H77.3898V68.5603ZM86.1841 68.5603H90.5813V72.9575H86.1841V68.5603ZM99.3756 68.5603H103.773V72.9575H99.3756V68.5603ZM103.773 68.5603H108.17V72.9575H103.773V68.5603ZM112.567 68.5603H116.964V72.9575H112.567V68.5603ZM15.8295 72.9575H20.2266V77.3546H15.8295V72.9575ZM20.2266 72.9575H24.6238V77.3546H20.2266V72.9575ZM24.6238 72.9575H29.021V77.3546H24.6238V72.9575ZM37.8153 72.9575H42.2125V77.3546H37.8153V72.9575ZM51.0068 72.9575H55.404V77.3546H51.0068V72.9575ZM68.5954 72.9575H72.9926V77.3546H68.5954V72.9575ZM72.9926 72.9575H77.3898V77.3546H72.9926V72.9575ZM77.3898 72.9575H81.7869V77.3546H77.3898V72.9575ZM81.7869 72.9575H86.1841V77.3546H81.7869V72.9575ZM86.1841 72.9575H90.5813V77.3546H86.1841V72.9575ZM90.5813 72.9575H94.9784V77.3546H90.5813V72.9575ZM94.9784 72.9575H99.3756V77.3546H94.9784V72.9575ZM99.3756 72.9575H103.773V77.3546H99.3756V72.9575ZM7.03516 77.3546H11.4323V81.7518H7.03516V77.3546ZM11.4323 77.3546H15.8295V81.7518H11.4323V77.3546ZM15.8295 77.3546H20.2266V81.7518H15.8295V77.3546ZM24.6238 77.3546H29.021V81.7518H24.6238V77.3546ZM33.4181 77.3546H37.8153V81.7518H33.4181V77.3546ZM42.2125 77.3546H46.6096V81.7518H42.2125V77.3546ZM55.404 77.3546H59.8011V81.7518H55.404V77.3546ZM77.3898 77.3546H81.7869V81.7518H77.3898V77.3546ZM81.7869 77.3546H86.1841V81.7518H81.7869V77.3546ZM86.1841 77.3546H90.5813V81.7518H86.1841V77.3546ZM90.5813 77.3546H94.9784V81.7518H90.5813V77.3546ZM94.9784 77.3546H99.3756V81.7518H94.9784V77.3546ZM108.17 77.3546H112.567V81.7518H108.17V77.3546ZM42.2125 81.7518H46.6096V86.1489H42.2125V81.7518ZM46.6096 81.7518H51.0068V86.1489H46.6096V81.7518ZM51.0068 81.7518H55.404V86.1489H51.0068V81.7518ZM55.404 81.7518H59.8011V86.1489H55.404V81.7518ZM64.1983 81.7518H68.5954V86.1489H64.1983V81.7518ZM68.5954 81.7518H72.9926V86.1489H68.5954V81.7518ZM77.3898 81.7518H81.7869V86.1489H77.3898V81.7518ZM94.9784 81.7518H99.3756V86.1489H94.9784V81.7518ZM112.567 81.7518H116.964V86.1489H112.567V81.7518ZM7.03516 86.1489H11.4323V90.5461H7.03516V86.1489ZM11.4323 86.1489H15.8295V90.5461H11.4323V86.1489ZM15.8295 86.1489H20.2266V90.5461H15.8295V86.1489ZM20.2266 86.1489H24.6238V90.5461H20.2266V86.1489ZM24.6238 86.1489H29.021V90.5461H24.6238V86.1489ZM29.021 86.1489H33.4181V90.5461H29.021V86.1489ZM33.4181 86.1489H37.8153V90.5461H33.4181V86.1489ZM51.0068 86.1489H55.404V90.5461H51.0068V86.1489ZM55.404 86.1489H59.8011V90.5461H55.404V86.1489ZM68.5954 86.1489H72.9926V90.5461H68.5954V86.1489ZM77.3898 86.1489H81.7869V90.5461H77.3898V86.1489ZM86.1841 86.1489H90.5813V90.5461H86.1841V86.1489ZM94.9784 86.1489H99.3756V90.5461H94.9784V86.1489ZM112.567 86.1489H116.964V90.5461H112.567V86.1489ZM7.03516 90.5461H11.4323V94.9433H7.03516V90.5461ZM33.4181 90.5461H37.8153V94.9433H33.4181V90.5461ZM46.6096 90.5461H51.0068V94.9433H46.6096V90.5461ZM51.0068 90.5461H55.404V94.9433H51.0068V90.5461ZM59.8011 90.5461H64.1983V94.9433H59.8011V90.5461ZM64.1983 90.5461H68.5954V94.9433H64.1983V90.5461ZM77.3898 90.5461H81.7869V94.9433H77.3898V90.5461ZM94.9784 90.5461H99.3756V94.9433H94.9784V90.5461ZM108.17 90.5461H112.567V94.9433H108.17V90.5461ZM7.03516 94.9433H11.4323V99.3404H7.03516V94.9433ZM15.8295 94.9433H20.2266V99.3404H15.8295V94.9433ZM20.2266 94.9433H24.6238V99.3404H20.2266V94.9433ZM24.6238 94.9433H29.021V99.3404H24.6238V94.9433ZM33.4181 94.9433H37.8153V99.3404H33.4181V94.9433ZM46.6096 94.9433H51.0068V99.3404H46.6096V94.9433ZM51.0068 94.9433H55.404V99.3404H51.0068V94.9433ZM68.5954 94.9433H72.9926V99.3404H68.5954V94.9433ZM72.9926 94.9433H77.3898V99.3404H72.9926V94.9433ZM77.3898 94.9433H81.7869V99.3404H77.3898V94.9433ZM81.7869 94.9433H86.1841V99.3404H81.7869V94.9433ZM86.1841 94.9433H90.5813V99.3404H86.1841V94.9433ZM90.5813 94.9433H94.9784V99.3404H90.5813V94.9433ZM94.9784 94.9433H99.3756V99.3404H94.9784V94.9433ZM108.17 94.9433H112.567V99.3404H108.17V94.9433ZM112.567 94.9433H116.964V99.3404H112.567V94.9433ZM7.03516 99.3404H11.4323V103.738H7.03516V99.3404ZM15.8295 99.3404H20.2266V103.738H15.8295V99.3404ZM20.2266 99.3404H24.6238V103.738H20.2266V99.3404ZM24.6238 99.3404H29.021V103.738H24.6238V99.3404ZM33.4181 99.3404H37.8153V103.738H33.4181V99.3404ZM46.6096 99.3404H51.0068V103.738H46.6096V99.3404ZM51.0068 99.3404H55.404V103.738H51.0068V99.3404ZM55.404 99.3404H59.8011V103.738H55.404V99.3404ZM59.8011 99.3404H64.1983V103.738H59.8011V99.3404ZM72.9926 99.3404H77.3898V103.738H72.9926V99.3404ZM81.7869 99.3404H86.1841V103.738H81.7869V99.3404ZM94.9784 99.3404H99.3756V103.738H94.9784V99.3404ZM103.773 99.3404H108.17V103.738H103.773V99.3404ZM108.17 99.3404H112.567V103.738H108.17V99.3404ZM7.03516 103.738H11.4323V108.135H7.03516V103.738ZM15.8295 103.738H20.2266V108.135H15.8295V103.738ZM20.2266 103.738H24.6238V108.135H20.2266V103.738ZM24.6238 103.738H29.021V108.135H24.6238V103.738ZM33.4181 103.738H37.8153V108.135H33.4181V103.738ZM42.2125 103.738H46.6096V108.135H42.2125V103.738ZM64.1983 103.738H68.5954V108.135H64.1983V103.738ZM68.5954 103.738H72.9926V108.135H68.5954V103.738ZM72.9926 103.738H77.3898V108.135H72.9926V103.738ZM77.3898 103.738H81.7869V108.135H77.3898V103.738ZM81.7869 103.738H86.1841V108.135H81.7869V103.738ZM90.5813 103.738H94.9784V108.135H90.5813V103.738ZM94.9784 103.738H99.3756V108.135H94.9784V103.738ZM99.3756 103.738H103.773V108.135H99.3756V103.738ZM108.17 103.738H112.567V108.135H108.17V103.738ZM112.567 103.738H116.964V108.135H112.567V103.738ZM7.03516 108.135H11.4323V112.532H7.03516V108.135ZM33.4181 108.135H37.8153V112.532H33.4181V108.135ZM42.2125 108.135H46.6096V112.532H42.2125V108.135ZM46.6096 108.135H51.0068V112.532H46.6096V108.135ZM51.0068 108.135H55.404V112.532H51.0068V108.135ZM64.1983 108.135H68.5954V112.532H64.1983V108.135ZM77.3898 108.135H81.7869V112.532H77.3898V108.135ZM81.7869 108.135H86.1841V112.532H81.7869V108.135ZM86.1841 108.135H90.5813V112.532H86.1841V108.135ZM90.5813 108.135H94.9784V112.532H90.5813V108.135ZM94.9784 108.135H99.3756V112.532H94.9784V108.135ZM7.03516 112.532H11.4323V116.929H7.03516V112.532ZM11.4323 112.532H15.8295V116.929H11.4323V112.532ZM15.8295 112.532H20.2266V116.929H15.8295V112.532ZM20.2266 112.532H24.6238V116.929H20.2266V112.532ZM24.6238 112.532H29.021V116.929H24.6238V112.532ZM29.021 112.532H33.4181V116.929H29.021V112.532ZM33.4181 112.532H37.8153V116.929H33.4181V112.532ZM51.0068 112.532H55.404V116.929H51.0068V112.532ZM59.8011 112.532H64.1983V116.929H59.8011V112.532ZM77.3898 112.532H81.7869V116.929H77.3898V112.532ZM86.1841 112.532H90.5813V116.929H86.1841V112.532ZM99.3756 112.532H103.773V116.929H99.3756V112.532ZM112.567 112.532H116.964V116.929H112.567V112.532Z" fill="black"/>
</svg>
