<svg width="20" height="20" viewBox="0 0 20 20" fill="none" xmlns="http://www.w3.org/2000/svg">
<path fill-rule="evenodd" clip-rule="evenodd" d="M0 10C0 4.48622 4.48622 0 10 0C15.514 0 20 4.48622 20 10C20 15.5138 15.5138 20 10 20C4.48622 20 0 15.5138 0 10ZM0.707556 10C0.707556 15.1238 4.876 19.2924 10 19.2924C15.124 19.2924 19.2924 15.1238 19.2924 10C19.2924 4.87622 15.124 0.707556 10 0.707556C4.876 0.707556 0.707556 4.87622 0.707556 10ZM10.6431 15.4184C10.6431 15.7736 10.3552 16.0616 10 16.0616C9.64482 16.0616 9.35689 15.7736 9.35689 15.4184C9.35689 15.0633 9.64482 14.7753 10 14.7753C10.3552 14.7753 10.6431 15.0633 10.6431 15.4184ZM6.70978 7.25822C6.87867 5.59178 8.28978 4.28733 10 4.28733C11.8236 4.28733 13.3071 5.77044 13.3064 7.59422C13.3064 8.47733 12.9627 9.30778 12.338 9.93289C12.2333 10.0378 12.1057 10.1412 11.9585 10.2605L11.9462 10.2704L11.9455 10.271C11.3557 10.7488 10.4864 11.453 10.3669 12.8791C10.3516 13.0644 10.2027 13.2156 10.0164 13.2156H9.98267C9.79644 13.2156 9.64422 13.0644 9.65711 12.8789C9.77903 11.1156 10.8464 10.2511 11.5 9.72171L11.5013 9.72067C11.6384 9.60978 11.7569 9.51378 11.8378 9.43267C12.3289 8.94156 12.5991 8.28844 12.5991 7.59422C12.5991 6.16089 11.4333 4.99444 9.99978 4.99444C8.68 4.99444 7.58667 5.98289 7.42156 7.25844C7.39778 7.44289 7.24956 7.59422 7.06333 7.59422H7.02956C6.84356 7.59422 6.69089 7.44311 6.70978 7.25822Z" fill="white"/>
</svg>
