<svg width="20" height="20" viewBox="0 0 20 20" fill="none" xmlns="http://www.w3.org/2000/svg">
<g opacity="0.65">
<path fill-rule="evenodd" clip-rule="evenodd" d="M18.1002 8.54832L19.2792 7.87587C19.6118 7.68586 19.8502 7.37853 19.9501 7.01008C20.0497 6.64141 19.9993 6.25718 19.807 5.92873L18.7223 4.07227C18.5302 3.7436 18.2191 3.50782 17.846 3.40915C17.4736 3.3107 17.0842 3.36048 16.7516 3.55048L15.5724 4.22294C15.412 4.31471 15.1239 4.29227 14.9797 4.17649C14.9665 4.16582 14.655 3.91693 14.2047 3.66004C13.7612 3.4063 13.3836 3.26242 13.3653 3.25544L13.3651 3.25537C13.1917 3.18959 13.0277 2.95426 13.0277 2.77025V1.42579C13.0275 0.63934 12.3802 0 11.5847 0H9.41519C8.61968 0 7.97238 0.63934 7.97238 1.42557V2.77048C7.97238 2.95381 7.80842 3.18959 7.63501 3.25537C7.61927 3.26137 7.24052 3.40582 6.79542 3.66004C6.34514 3.91693 6.03364 4.16582 6.02082 4.17627C5.87688 4.29205 5.58899 4.31471 5.42795 4.22294L4.24829 3.55004C3.91564 3.36026 3.52722 3.31048 3.15387 3.40893C2.78096 3.50759 2.46968 3.74338 2.27761 4.07182L1.19286 5.92829C1.00078 6.25696 0.950179 6.64118 1.05004 7.00941C1.1499 7.3783 1.38831 7.68564 1.72073 7.87542L2.89994 8.54809C3.06053 8.63965 3.1849 8.89743 3.15522 9.07832C3.15252 9.09432 3.09112 9.47766 3.09112 10.0001C3.09112 10.5226 3.15252 10.9055 3.15522 10.9215C3.18468 11.1021 3.0603 11.3601 2.89994 11.4517L1.72073 12.1241C1.38808 12.3139 1.1499 12.6215 1.05004 12.9904C0.950179 13.3586 1.00078 13.7433 1.19286 14.0717L2.27761 15.9282C2.6757 16.6086 3.55938 16.8424 4.24874 16.45L5.42773 15.7775C5.58831 15.6855 5.87643 15.7084 6.02014 15.824C6.03341 15.8346 6.34514 16.0837 6.79542 16.3408C7.24074 16.5955 7.61949 16.7397 7.63524 16.7455C7.80865 16.8113 7.97261 17.0469 7.97261 17.2304V18.5744C7.97261 19.3602 8.6199 20 9.41542 20H11.5849C12.3804 20 13.0277 19.3602 13.0277 18.5744V17.2304C13.0277 17.0471 13.1917 16.8113 13.3651 16.7455C13.3808 16.7397 13.76 16.5953 14.2051 16.3408C14.6556 16.0837 14.9676 15.8346 14.9804 15.824C15.1244 15.7084 15.4129 15.686 15.5733 15.7775L16.7516 16.4495C17.0842 16.6395 17.4733 16.6895 17.846 16.5911C18.2191 16.4924 18.5304 16.2564 18.7223 15.928L19.807 14.0715C19.9991 13.7428 20.0497 13.3588 19.9501 12.9906C19.8502 12.6217 19.6116 12.3139 19.2789 12.1244L18.1004 11.4519C17.9398 11.3603 17.8154 11.1028 17.8449 10.9217C17.8478 10.9057 17.909 10.5226 17.909 10.0003C17.909 9.47744 17.8474 9.09455 17.8447 9.07855C17.8152 8.89765 17.9396 8.63987 18.1002 8.54832ZM17.1382 9.19032L17.1389 9.19485C17.145 9.23696 17.1929 9.56634 17.1929 10.0003C17.1929 10.463 17.1387 10.8066 17.1382 10.8095C17.0622 11.2768 17.3278 11.8281 17.7426 12.0646L18.9213 12.7368C19.0884 12.8324 19.2081 12.9873 19.2587 13.1737C19.3093 13.3595 19.2837 13.553 19.1874 13.7179L18.1026 15.5744C18.0059 15.7397 17.8494 15.8577 17.6609 15.908C17.4729 15.958 17.277 15.9326 17.1097 15.8373L15.9316 15.1655C15.5173 14.9286 14.901 14.9771 14.5295 15.2751C14.5268 15.2777 14.2456 15.5015 13.8475 15.7286C13.4535 15.9535 13.1121 16.0846 13.1089 16.0855C12.6622 16.2548 12.3121 16.758 12.3121 17.2306V18.5746C12.3121 18.9707 11.9862 19.2927 11.5854 19.2927H9.41587C9.01507 19.2927 8.68918 18.9707 8.68918 18.5746V17.2306C8.68918 16.758 8.33921 16.2546 7.89231 16.0853C7.88871 16.084 7.55112 15.9555 7.15393 15.7286C6.75583 15.5015 6.47469 15.2777 6.47222 15.2751C6.10044 14.9771 5.48395 14.9284 5.07034 15.1655L4.27415 15.6193C4.21963 15.6509 4.13924 15.6966 4.01435 15.7676L3.89158 15.8375C3.54386 16.0357 3.09876 15.9175 2.89859 15.5751L1.81384 13.7186C1.71735 13.5533 1.69194 13.3597 1.74254 13.1739C1.79292 12.9875 1.9128 12.8326 2.07969 12.737L2.12018 12.714L2.1202 12.714C2.31392 12.6038 2.40996 12.5491 2.46159 12.5179L3.25778 12.0646C3.67251 11.8281 3.93769 11.2766 3.86189 10.8099L3.86173 10.8088C3.85849 10.7875 3.80724 10.45 3.80724 10.0003C3.80724 9.54018 3.86085 9.19741 3.86188 9.19085L3.86189 9.19077C3.93814 8.72343 3.67274 8.17209 3.25778 7.93564L2.45979 7.48031L2.07856 7.26297C1.91168 7.16786 1.7918 7.01274 1.74142 6.82652C1.69081 6.64052 1.71645 6.44718 1.81272 6.28185L2.89747 4.42538C2.99395 4.26049 3.15049 4.14205 3.33919 4.09227C3.52722 4.04227 3.72312 4.0676 3.89 4.16227L5.06967 4.83517C5.48463 5.07183 6.10021 5.02361 6.47154 4.72539C6.47447 4.72294 6.75516 4.49983 7.15348 4.27227C7.54707 4.04738 7.88826 3.91649 7.89119 3.9156C8.33786 3.74626 8.68805 3.24359 8.68805 2.77048V1.42557C8.68805 1.02957 9.01395 0.707341 9.41474 0.707341H11.5842C11.985 0.707341 12.3109 1.02957 12.3109 1.42557V2.77003C12.3109 3.24315 12.6611 3.74626 13.1076 3.91538C13.1112 3.91671 13.4521 4.04738 13.846 4.27205C14.2441 4.49938 14.525 4.72272 14.5277 4.72516C14.8988 5.02339 15.5155 5.07183 15.9295 4.83517L17.1088 4.16294C17.2756 4.06738 17.4709 4.04227 17.66 4.09249C17.8485 4.14227 18.005 4.26049 18.1015 4.42538L19.1863 6.28185C19.2828 6.44718 19.3082 6.64074 19.2576 6.82652C19.207 7.01274 19.0873 7.16786 18.9202 7.26297L17.7421 7.93564C17.3274 8.17209 17.062 8.72343 17.1382 9.19032ZM10.4999 6.10962C8.32909 6.10962 6.56241 7.8552 6.56241 10.0006C6.56241 12.1459 8.32909 13.8913 10.4999 13.8913C12.6708 13.8913 14.4375 12.1459 14.4375 10.0006C14.4375 7.8552 12.6708 6.10962 10.4999 6.10962ZM10.4999 13.1837C8.72381 13.1837 7.27875 11.7555 7.27875 10.0006C7.27875 8.24543 8.72381 6.81741 10.4999 6.81741C12.2761 6.81741 13.7211 8.24543 13.7211 10.0006C13.7211 11.7555 12.2761 13.1837 10.4999 13.1837Z" fill="white"/>
</g>
</svg>
