<svg width="24" height="24" viewBox="0 0 24 24" fill="none" xmlns="http://www.w3.org/2000/svg">
<path d="M12 21C11.7167 21 11.4793 20.904 11.288 20.712C11.0967 20.52 11.0007 20.2827 11 20C11 19.7167 11.096 19.4793 11.288 19.288C11.48 19.0967 11.7173 19.0007 12 19H19V11.9C19 9.95 18.321 8.296 16.963 6.938C15.605 5.58 13.9507 4.90067 12 4.9C10.05 4.9 8.396 5.57933 7.038 6.938C5.68 8.29667 5.00067 9.95067 5 11.9V17C5 17.2833 4.904 17.521 4.712 17.713C4.52 17.905 4.28267 18.0007 4 18C3.45 18 2.97933 17.8043 2.588 17.413C2.19667 17.0217 2.00067 16.5507 2 16V14C2 13.65 2.08767 13.321 2.263 13.013C2.43833 12.705 2.684 12.459 3 12.275L3.075 10.95C3.20833 9.81667 3.53767 8.76667 4.063 7.8C4.58833 6.83333 5.24667 5.99167 6.038 5.275C6.82933 4.55833 7.73733 4 8.762 3.6C9.78667 3.2 10.866 3 12 3C13.1333 3 14.2083 3.2 15.225 3.6C16.2417 4 17.15 4.55433 17.95 5.263C18.75 5.971 19.4083 6.80833 19.925 7.775C20.4417 8.74167 20.775 9.79167 20.925 10.925L21 12.225C21.3167 12.375 21.5627 12.6 21.738 12.9C21.9133 13.2 22.0007 13.5167 22 13.85V16.15C22 16.4833 21.9127 16.8 21.738 17.1C21.5633 17.4 21.3173 17.625 21 17.775V19C21 19.55 20.8043 20.021 20.413 20.413C20.0217 20.805 19.5507 21.0007 19 21H12ZM9 14C8.71667 14 8.47933 13.904 8.288 13.712C8.09667 13.52 8.00067 13.2827 8 13C8 12.7167 8.096 12.4793 8.288 12.288C8.48 12.0967 8.71733 12.0007 9 12C9.28333 12 9.521 12.096 9.713 12.288C9.905 12.48 10.0007 12.7173 10 13C10 13.2833 9.904 13.521 9.712 13.713C9.52 13.905 9.28267 14.0007 9 14ZM15 14C14.7167 14 14.4793 13.904 14.288 13.712C14.0967 13.52 14.0007 13.2827 14 13C14 12.7167 14.096 12.4793 14.288 12.288C14.48 12.0967 14.7173 12.0007 15 12C15.2833 12 15.521 12.096 15.713 12.288C15.905 12.48 16.0007 12.7173 16 13C16 13.2833 15.904 13.521 15.712 13.713C15.52 13.905 15.2827 14.0007 15 14ZM6.025 12.45C5.90833 10.6833 6.44167 9.16667 7.625 7.9C8.80833 6.63333 10.2833 6 12.05 6C13.5333 6 14.8377 6.47067 15.963 7.412C17.0883 8.35333 17.7673 9.558 18 11.026C16.4833 11.0087 15.0877 10.6 13.813 9.8C12.5383 9 11.559 7.91667 10.875 6.55C10.6083 7.88333 10.046 9.071 9.188 10.113C8.33 11.155 7.27567 11.934 6.025 12.45Z" fill="#E6E6E6"/>
</svg>
