<svg width="24" height="24" viewBox="0 0 24 24" fill="none" xmlns="http://www.w3.org/2000/svg">
<path d="M4 7.99997L3.293 7.29297L2.586 7.99997L3.293 8.70697L4 7.99997ZM19 9.99997C19 10.2652 19.1054 10.5195 19.2929 10.7071C19.4804 10.8946 19.7348 11 20 11C20.2652 11 20.5196 10.8946 20.7071 10.7071C20.8946 10.5195 21 10.2652 21 9.99997H19ZM7.293 3.29297L3.293 7.29297L4.707 8.70697L8.707 4.70697L7.293 3.29297ZM3.293 8.70697L7.293 12.707L8.707 11.293L4.707 7.29297L3.293 8.70697ZM4 8.99997H18V6.99997H4V8.99997ZM18 8.99997C18.2652 8.99997 18.5196 9.10533 18.7071 9.29286C18.8946 9.4804 19 9.73475 19 9.99997H21C21 9.20432 20.6839 8.44126 20.1213 7.87865C19.5587 7.31604 18.7956 6.99997 18 6.99997V8.99997ZM20 16L20.707 15.293L21.414 16L20.707 16.707L20 16ZM2 14C2 13.7348 2.10536 13.4804 2.29289 13.2929C2.48043 13.1053 2.73478 13 3 13C3.26522 13 3.51957 13.1053 3.70711 13.2929C3.89464 13.4804 4 13.7348 4 14H2ZM16.707 11.293L20.707 15.293L19.293 16.707L15.293 12.707L16.707 11.293ZM20.707 16.707L16.707 20.707L15.293 19.293L19.293 15.293L20.707 16.707ZM20 17H5V15H20V17ZM5 17C4.20435 17 3.44129 16.6839 2.87868 16.1213C2.31607 15.5587 2 14.7956 2 14H4C4 14.2652 4.10536 14.5195 4.29289 14.7071C4.48043 14.8946 4.73478 15 5 15V17Z" fill="#E6E6E6"/>
</svg>
