<svg width="322" height="177" viewBox="0 0 322 177" fill="none" xmlns="http://www.w3.org/2000/svg">
<rect x="1" y="0.5" width="320" height="176" fill="#21222D"/>
<rect x="1" y="0.5" width="320" height="176" stroke="url(#paint0_linear_1166_6347)" stroke-linecap="round" stroke-dasharray="4 4"/>
<path d="M187.667 76.9999C187.667 76.2927 187.386 75.6144 186.886 75.1143C186.386 74.6142 185.708 74.3333 185.001 74.3333C184.293 74.3333 183.615 74.6142 183.115 75.1143C182.615 75.6144 182.334 76.2927 182.334 76.9999H187.667ZM161.001 55.6666C161.708 55.6666 162.386 55.3856 162.886 54.8855C163.386 54.3854 163.667 53.7072 163.667 52.9999C163.667 52.2927 163.386 51.6144 162.886 51.1143C162.386 50.6142 161.708 50.3333 161.001 50.3333V55.6666ZM181.001 98.3332H141.001V103.667H181.001V98.3332ZM139.667 96.9999V56.9999H134.334V96.9999H139.667ZM182.334 76.9999V96.9999H187.667V76.9999H182.334ZM141.001 55.6666H161.001V50.3333H141.001V55.6666ZM141.001 98.3332C140.647 98.3332 140.308 98.1928 140.058 97.9427C139.808 97.6927 139.667 97.3535 139.667 96.9999H134.334C134.334 98.768 135.036 100.464 136.287 101.714C137.537 102.964 139.233 103.667 141.001 103.667V98.3332ZM181.001 103.667C182.769 103.667 184.464 102.964 185.715 101.714C186.965 100.464 187.667 98.768 187.667 96.9999H182.334C182.334 97.3535 182.194 97.6927 181.943 97.9427C181.693 98.1928 181.354 98.3332 181.001 98.3332V103.667ZM139.667 56.9999C139.667 56.6463 139.808 56.3072 140.058 56.0571C140.308 55.8071 140.647 55.6666 141.001 55.6666V50.3333C139.233 50.3333 137.537 51.0356 136.287 52.2859C135.036 53.5361 134.334 55.2318 134.334 56.9999H139.667Z" fill="#666666"/>
<path d="M137 91.6667L151.257 78.5973C151.738 78.1569 152.363 77.9077 153.015 77.8969C153.667 77.8861 154.3 78.1144 154.795 78.5387L171.667 93M166.333 86.3333L172.697 79.9693C173.151 79.5151 173.754 79.24 174.394 79.1944C175.035 79.1488 175.67 79.3359 176.184 79.7213L185 86.3333M169 61H185M177 53V69" stroke="#666666" stroke-width="2" stroke-linecap="round" stroke-linejoin="round"/>
<path d="M111.736 129.084C110.961 129.084 110.271 128.921 109.664 128.594C109.057 128.258 108.577 127.801 108.222 127.222C107.877 126.634 107.704 125.971 107.704 125.234V119.186H109.538V125.108C109.538 125.547 109.636 125.939 109.832 126.284C110.037 126.62 110.308 126.891 110.644 127.096C110.98 127.301 111.344 127.404 111.736 127.404C112.165 127.404 112.553 127.301 112.898 127.096C113.243 126.891 113.514 126.62 113.71 126.284C113.915 125.939 114.018 125.547 114.018 125.108V119.186H115.782V125.234C115.782 125.971 115.605 126.634 115.25 127.222C114.905 127.801 114.429 128.258 113.822 128.594C113.215 128.921 112.52 129.084 111.736 129.084ZM117.994 132.08V121.622H119.688L119.716 123.302L119.422 123.176C119.478 122.887 119.637 122.616 119.898 122.364C120.16 122.103 120.477 121.893 120.85 121.734C121.233 121.575 121.63 121.496 122.04 121.496C122.694 121.496 123.272 121.659 123.776 121.986C124.29 122.313 124.691 122.761 124.98 123.33C125.279 123.899 125.428 124.557 125.428 125.304C125.428 126.041 125.279 126.699 124.98 127.278C124.691 127.847 124.29 128.3 123.776 128.636C123.272 128.963 122.703 129.126 122.068 129.126C121.639 129.126 121.224 129.042 120.822 128.874C120.43 128.706 120.094 128.487 119.814 128.216C119.544 127.945 119.376 127.661 119.31 127.362L119.73 127.166V132.08H117.994ZM121.718 127.6C122.11 127.6 122.46 127.502 122.768 127.306C123.076 127.11 123.314 126.839 123.482 126.494C123.66 126.149 123.748 125.752 123.748 125.304C123.748 124.856 123.664 124.464 123.496 124.128C123.328 123.783 123.09 123.512 122.782 123.316C122.474 123.12 122.12 123.022 121.718 123.022C121.308 123.022 120.948 123.12 120.64 123.316C120.342 123.503 120.104 123.769 119.926 124.114C119.749 124.459 119.66 124.856 119.66 125.304C119.66 125.752 119.749 126.149 119.926 126.494C120.104 126.839 120.342 127.11 120.64 127.306C120.948 127.502 121.308 127.6 121.718 127.6ZM126.977 129V118.64H128.713V129H126.977ZM133.974 129.14C133.236 129.14 132.578 128.977 132 128.65C131.421 128.314 130.964 127.857 130.628 127.278C130.292 126.699 130.124 126.041 130.124 125.304C130.124 124.567 130.292 123.909 130.628 123.33C130.964 122.751 131.421 122.299 132 121.972C132.578 121.636 133.236 121.468 133.974 121.468C134.702 121.468 135.355 121.636 135.934 121.972C136.512 122.299 136.965 122.751 137.292 123.33C137.628 123.909 137.796 124.567 137.796 125.304C137.796 126.041 137.628 126.699 137.292 127.278C136.965 127.857 136.512 128.314 135.934 128.65C135.355 128.977 134.702 129.14 133.974 129.14ZM133.974 127.614C134.375 127.614 134.73 127.511 135.038 127.306C135.355 127.101 135.602 126.825 135.78 126.48C135.966 126.135 136.055 125.743 136.046 125.304C136.055 124.856 135.966 124.459 135.78 124.114C135.602 123.769 135.355 123.498 135.038 123.302C134.73 123.097 134.375 122.994 133.974 122.994C133.572 122.994 133.208 123.097 132.882 123.302C132.564 123.498 132.317 123.773 132.14 124.128C131.962 124.473 131.874 124.865 131.874 125.304C131.874 125.743 131.962 126.135 132.14 126.48C132.317 126.825 132.564 127.101 132.882 127.306C133.208 127.511 133.572 127.614 133.974 127.614ZM142.122 129.14C141.515 129.14 140.965 128.972 140.47 128.636C139.975 128.3 139.579 127.843 139.28 127.264C138.981 126.685 138.832 126.027 138.832 125.29C138.832 124.553 138.981 123.895 139.28 123.316C139.579 122.737 139.985 122.285 140.498 121.958C141.011 121.631 141.59 121.468 142.234 121.468C142.607 121.468 142.948 121.524 143.256 121.636C143.564 121.739 143.835 121.888 144.068 122.084C144.301 122.28 144.493 122.504 144.642 122.756C144.801 123.008 144.908 123.279 144.964 123.568L144.586 123.47V121.622H146.322V129H144.572V127.236L144.978 127.166C144.913 127.418 144.791 127.665 144.614 127.908C144.446 128.141 144.231 128.351 143.97 128.538C143.718 128.715 143.433 128.86 143.116 128.972C142.808 129.084 142.477 129.14 142.122 129.14ZM142.598 127.614C142.999 127.614 143.354 127.516 143.662 127.32C143.97 127.124 144.208 126.853 144.376 126.508C144.553 126.153 144.642 125.747 144.642 125.29C144.642 124.842 144.553 124.445 144.376 124.1C144.208 123.755 143.97 123.484 143.662 123.288C143.354 123.092 142.999 122.994 142.598 122.994C142.197 122.994 141.842 123.092 141.534 123.288C141.235 123.484 141.002 123.755 140.834 124.1C140.666 124.445 140.582 124.842 140.582 125.29C140.582 125.747 140.666 126.153 140.834 126.508C141.002 126.853 141.235 127.124 141.534 127.32C141.842 127.516 142.197 127.614 142.598 127.614ZM151.287 129.14C150.633 129.14 150.045 128.977 149.523 128.65C149.009 128.314 148.599 127.861 148.291 127.292C147.992 126.713 147.843 126.051 147.843 125.304C147.843 124.567 147.992 123.909 148.291 123.33C148.589 122.751 148.995 122.299 149.509 121.972C150.031 121.636 150.619 121.468 151.273 121.468C151.627 121.468 151.968 121.524 152.295 121.636C152.631 121.748 152.929 121.902 153.191 122.098C153.452 122.285 153.657 122.495 153.807 122.728C153.965 122.961 154.054 123.204 154.073 123.456L153.611 123.512V118.64H155.333V129H153.667L153.625 127.264L153.961 127.292C153.951 127.525 153.867 127.749 153.709 127.964C153.559 128.179 153.363 128.375 153.121 128.552C152.878 128.729 152.593 128.874 152.267 128.986C151.949 129.089 151.623 129.14 151.287 129.14ZM151.623 127.684C152.024 127.684 152.379 127.581 152.687 127.376C152.995 127.171 153.233 126.891 153.401 126.536C153.578 126.181 153.667 125.771 153.667 125.304C153.667 124.847 153.578 124.441 153.401 124.086C153.233 123.722 152.995 123.442 152.687 123.246C152.379 123.041 152.024 122.938 151.623 122.938C151.221 122.938 150.867 123.041 150.559 123.246C150.251 123.442 150.008 123.722 149.831 124.086C149.663 124.441 149.579 124.847 149.579 125.304C149.579 125.771 149.663 126.181 149.831 126.536C150.008 126.891 150.251 127.171 150.559 127.376C150.867 127.581 151.221 127.684 151.623 127.684ZM161.417 129V127.39H163.027V120.81H161.417V119.2H166.457V120.81H164.847V127.39H166.457V129H161.417ZM168.779 129V119.2H172.713C173.422 119.2 174.062 119.317 174.631 119.55C175.21 119.783 175.704 120.119 176.115 120.558C176.535 120.997 176.852 121.515 177.067 122.112C177.291 122.709 177.403 123.372 177.403 124.1C177.403 124.828 177.291 125.495 177.067 126.102C176.852 126.699 176.54 127.217 176.129 127.656C175.718 128.085 175.224 128.417 174.645 128.65C174.066 128.883 173.422 129 172.713 129H168.779ZM170.599 127.586L170.459 127.32H172.643C173.1 127.32 173.506 127.245 173.861 127.096C174.225 126.947 174.533 126.732 174.785 126.452C175.037 126.172 175.228 125.836 175.359 125.444C175.49 125.043 175.555 124.595 175.555 124.1C175.555 123.605 175.49 123.162 175.359 122.77C175.228 122.369 175.032 122.028 174.771 121.748C174.519 121.468 174.216 121.253 173.861 121.104C173.506 120.955 173.1 120.88 172.643 120.88H170.417L170.599 120.642V127.586ZM187.648 129.14C186.938 129.14 186.29 129.019 185.702 128.776C185.114 128.533 184.605 128.188 184.176 127.74C183.746 127.283 183.41 126.746 183.168 126.13C182.934 125.505 182.818 124.823 182.818 124.086C182.818 123.377 182.944 122.719 183.196 122.112C183.448 121.505 183.798 120.973 184.246 120.516C184.694 120.059 185.216 119.704 185.814 119.452C186.411 119.2 187.06 119.074 187.76 119.074C188.236 119.074 188.698 119.144 189.146 119.284C189.594 119.424 190.004 119.62 190.378 119.872C190.751 120.115 191.064 120.399 191.316 120.726L190.154 122C189.911 121.748 189.659 121.538 189.398 121.37C189.146 121.193 188.88 121.062 188.6 120.978C188.329 120.885 188.049 120.838 187.76 120.838C187.33 120.838 186.924 120.917 186.542 121.076C186.168 121.235 185.842 121.459 185.562 121.748C185.291 122.037 185.076 122.383 184.918 122.784C184.759 123.176 184.68 123.615 184.68 124.1C184.68 124.595 184.754 125.043 184.904 125.444C185.062 125.845 185.282 126.191 185.562 126.48C185.851 126.769 186.192 126.993 186.584 127.152C186.985 127.301 187.424 127.376 187.9 127.376C188.208 127.376 188.506 127.334 188.796 127.25C189.085 127.166 189.351 127.049 189.594 126.9C189.846 126.741 190.074 126.559 190.28 126.354L191.176 127.796C190.952 128.048 190.653 128.277 190.28 128.482C189.906 128.687 189.486 128.851 189.02 128.972C188.562 129.084 188.105 129.14 187.648 129.14ZM195.538 129.14C194.931 129.14 194.381 128.972 193.886 128.636C193.391 128.3 192.995 127.843 192.696 127.264C192.397 126.685 192.248 126.027 192.248 125.29C192.248 124.553 192.397 123.895 192.696 123.316C192.995 122.737 193.401 122.285 193.914 121.958C194.427 121.631 195.006 121.468 195.65 121.468C196.023 121.468 196.364 121.524 196.672 121.636C196.98 121.739 197.251 121.888 197.484 122.084C197.717 122.28 197.909 122.504 198.058 122.756C198.217 123.008 198.324 123.279 198.38 123.568L198.002 123.47V121.622H199.738V129H197.988V127.236L198.394 127.166C198.329 127.418 198.207 127.665 198.03 127.908C197.862 128.141 197.647 128.351 197.386 128.538C197.134 128.715 196.849 128.86 196.532 128.972C196.224 129.084 195.893 129.14 195.538 129.14ZM196.014 127.614C196.415 127.614 196.77 127.516 197.078 127.32C197.386 127.124 197.624 126.853 197.792 126.508C197.969 126.153 198.058 125.747 198.058 125.29C198.058 124.842 197.969 124.445 197.792 124.1C197.624 123.755 197.386 123.484 197.078 123.288C196.77 123.092 196.415 122.994 196.014 122.994C195.613 122.994 195.258 123.092 194.95 123.288C194.651 123.484 194.418 123.755 194.25 124.1C194.082 124.445 193.998 124.842 193.998 125.29C193.998 125.747 194.082 126.153 194.25 126.508C194.418 126.853 194.651 127.124 194.95 127.32C195.258 127.516 195.613 127.614 196.014 127.614ZM201.735 129V121.622H203.429L203.457 123.974L203.219 123.442C203.321 123.069 203.499 122.733 203.751 122.434C204.003 122.135 204.292 121.902 204.619 121.734C204.955 121.557 205.305 121.468 205.669 121.468C205.827 121.468 205.977 121.482 206.117 121.51C206.266 121.538 206.387 121.571 206.481 121.608L206.019 123.498C205.916 123.442 205.79 123.395 205.641 123.358C205.491 123.321 205.342 123.302 205.193 123.302C204.959 123.302 204.735 123.349 204.521 123.442C204.315 123.526 204.133 123.647 203.975 123.806C203.816 123.965 203.69 124.151 203.597 124.366C203.513 124.571 203.471 124.805 203.471 125.066V129H201.735ZM210.281 129.14C209.627 129.14 209.039 128.977 208.517 128.65C208.003 128.314 207.593 127.861 207.285 127.292C206.986 126.713 206.837 126.051 206.837 125.304C206.837 124.567 206.986 123.909 207.285 123.33C207.583 122.751 207.989 122.299 208.503 121.972C209.025 121.636 209.613 121.468 210.267 121.468C210.621 121.468 210.962 121.524 211.289 121.636C211.625 121.748 211.923 121.902 212.185 122.098C212.446 122.285 212.651 122.495 212.801 122.728C212.959 122.961 213.048 123.204 213.067 123.456L212.605 123.512V118.64H214.327V129H212.661L212.619 127.264L212.955 127.292C212.945 127.525 212.861 127.749 212.703 127.964C212.553 128.179 212.357 128.375 212.115 128.552C211.872 128.729 211.587 128.874 211.261 128.986C210.943 129.089 210.617 129.14 210.281 129.14ZM210.617 127.684C211.018 127.684 211.373 127.581 211.681 127.376C211.989 127.171 212.227 126.891 212.395 126.536C212.572 126.181 212.661 125.771 212.661 125.304C212.661 124.847 212.572 124.441 212.395 124.086C212.227 123.722 211.989 123.442 211.681 123.246C211.373 123.041 211.018 122.938 210.617 122.938C210.215 122.938 209.861 123.041 209.553 123.246C209.245 123.442 209.002 123.722 208.825 124.086C208.657 124.441 208.573 124.847 208.573 125.304C208.573 125.771 208.657 126.181 208.825 126.536C209.002 126.891 209.245 127.171 209.553 127.376C209.861 127.581 210.215 127.684 210.617 127.684Z" fill="#666666"/>
<defs>
<linearGradient id="paint0_linear_1166_6347" x1="1.5" y1="88.5" x2="320.5" y2="88.5" gradientUnits="userSpaceOnUse">
<stop stop-color="#667EEA"/>
<stop offset="1" stop-color="#764BA2"/>
</linearGradient>
</defs>
</svg>
