<svg width="33" height="32" viewBox="0 0 33 32" fill="none" xmlns="http://www.w3.org/2000/svg">
<path d="M6.46875 6.49995H26.4688C26.7024 6.49984 26.9358 6.51467 27.1675 6.54433C27.0889 5.99294 26.8996 5.46316 26.6107 4.98695C26.3219 4.51073 25.9396 4.09794 25.4869 3.77346C25.0343 3.44897 24.5206 3.21952 23.9768 3.09894C23.4331 2.97835 22.8705 2.96913 22.3231 3.07183L5.875 5.87995H5.85625C4.8238 6.07739 3.90566 6.66153 3.28938 7.51308C4.21787 6.85266 5.32934 6.49848 6.46875 6.49995ZM26.4688 7.99995H6.46875C5.40824 8.00111 4.3915 8.42291 3.6416 9.17281C2.89171 9.9227 2.46991 10.9394 2.46875 12V24C2.46991 25.0605 2.89171 26.0772 3.6416 26.8271C4.3915 27.577 5.40824 27.9988 6.46875 28H26.4688C27.5293 27.9988 28.546 27.577 29.2959 26.8271C30.0458 26.0772 30.4676 25.0605 30.4688 24V12C30.4676 10.9394 30.0458 9.9227 29.2959 9.17281C28.546 8.42291 27.5293 8.00111 26.4688 7.99995ZM23.5 20C23.1044 20 22.7178 19.8827 22.3889 19.6629C22.06 19.4431 21.8036 19.1308 21.6522 18.7653C21.5009 18.3999 21.4613 17.9977 21.5384 17.6098C21.6156 17.2218 21.8061 16.8654 22.0858 16.5857C22.3655 16.306 22.7219 16.1156 23.1098 16.0384C23.4978 15.9612 23.8999 16.0008 24.2654 16.1522C24.6308 16.3036 24.9432 16.5599 25.1629 16.8888C25.3827 17.2177 25.5 17.6044 25.5 18C25.5 18.5304 25.2893 19.0391 24.9142 19.4142C24.5391 19.7892 24.0304 20 23.5 20Z" fill="white"/>
<path d="M2.5 16.2188V10C2.5 8.64563 3.25 6.375 5.85313 5.88312C8.0625 5.46875 10.25 5.46875 10.25 5.46875C10.25 5.46875 11.6875 6.46875 10.5 6.46875C9.3125 6.46875 9.34375 8 10.5 8C11.6562 8 10.5 9.46875 10.5 9.46875L5.84375 14.75L2.5 16.2188Z" fill="white"/>
</svg>
